Urbanist-ExtraLight.ufo
<glyph name="exclam" format="2">
  <advance width="316.0"/>
  <unicode hex="0021"/>
  <outline>
    <contour>
      <point x="97.0" y="420.0" type="line"/>
      <point x="180.66666666666669" y="420.0" type="line"/>
      <point x="180.66666666666669" y="1400.0" type="line"/>
      <point x="97.0" y="1400.0" type="line"/>
    </contour>
    <contour>
      <point x="139.0" y="-26.0" type="curve" smooth="yes"/>
      <point x="170.33333333333334" y="-26.0"/>
      <point x="196.0" y="-0.33333333333333215"/>
      <point x="196.0" y="33.333333333333336" type="curve" smooth="yes"/>
      <point x="196.0" y="64.66666666666667"/>
      <point x="170.33333333333334" y="90.33333333333334"/>
      <point x="139.0" y="90.33333333333334" type="curve" smooth="yes"/>
      <point x="105.66666666666667" y="90.33333333333334"/>
      <point x="80.0" y="64.66666666666667"/>
      <point x="80.0" y="33.333333333333336" type="curve" smooth="yes"/>
      <point x="80.0" y="-0.33333333333333215"/>
      <point x="105.66666666666667" y="-26.0"/>
    </contour>
  </outline>
</glyph>
<glyph name="numbersign" format="2">
  <advance width="1481.75"/>
  <unicode hex="0023"/>
  <outline>
    <contour>
      <point x="1378.0" y="953.3333333333334" type="line"/>
      <point x="1401.6666666666667" y="1040.3333333333333" type="line"/>
      <point x="1183.6666666666667" y="1040.3333333333333" type="line"/>
      <point x="1279.6666666666667" y="1400.0" type="line"/>
      <point x="1189.6666666666667" y="1400.0" type="line"/>
      <point x="1093.6666666666667" y="1040.3333333333333" type="line"/>
      <point x="571.6666666666666" y="1040.3333333333333" type="line"/>
      <point x="667.6666666666666" y="1400.0" type="line"/>
      <point x="577.6666666666666" y="1400.0" type="line"/>
      <point x="481.6666666666667" y="1040.3333333333333" type="line"/>
      <point x="261.6666666666667" y="1040.3333333333333" type="line"/>
      <point x="238.0" y="953.3333333333334" type="line"/>
      <point x="458.0" y="953.3333333333334" type="line"/>
      <point x="321.6666666666667" y="448.6666666666667" type="line"/>
      <point x="103.66666666666667" y="448.6666666666667" type="line"/>
      <point x="80.0" y="361.6666666666667" type="line"/>
      <point x="299.6666666666667" y="361.6666666666667" type="line"/>
      <point x="202.0" y="0.0" type="line"/>
      <point x="292.0" y="0.0" type="line"/>
      <point x="389.6666666666667" y="361.6666666666667" type="line"/>
      <point x="912.0" y="361.6666666666667" type="line"/>
      <point x="814.0" y="0.0" type="line"/>
      <point x="904.0" y="0.0" type="line"/>
      <point x="1002.0" y="361.6666666666667" type="line"/>
      <point x="1220.0" y="361.6666666666667" type="line"/>
      <point x="1243.6666666666667" y="448.6666666666667" type="line"/>
      <point x="1023.6666666666666" y="448.6666666666667" type="line"/>
      <point x="1160.0" y="953.3333333333334" type="line"/>
    </contour>
    <contour>
      <point x="933.6666666666666" y="448.6666666666667" type="line"/>
      <point x="411.6666666666667" y="448.6666666666667" type="line"/>
      <point x="548.0" y="953.3333333333334" type="line"/>
      <point x="1070.0" y="953.3333333333334" type="line"/>
    </contour>
  </outline>
</glyph>
<glyph name="dollar" format="2">
  <advance width="1166.25"/>
  <unicode hex="0024"/>
  <outline>
    <contour>
      <point x="582.3333333333334" y="1328.6666666666667" type="curve"/>
      <point x="757.6666666666666" y="1328.6666666666667"/>
      <point x="948.6666666666666" y="1249.6666666666667"/>
      <point x="1000.3333333333334" y="1104.3333333333333" type="curve"/>
      <point x="1086.3333333333333" y="1134.6666666666667" type="line"/>
      <point x="1021.0" y="1306.3333333333333"/>
      <point x="820.6666666666666" y="1406.0"/>
      <point x="622.6666666666666" y="1416.6666666666667" type="curve"/>
      <point x="622.6666666666666" y="1624.0" type="line"/>
      <point x="545.3333333333334" y="1624.0" type="line"/>
      <point x="545.3333333333334" y="1416.6666666666667" type="line"/>
      <point x="300.0" y="1403.3333333333333"/>
      <point x="88.66666666666667" y="1256.6666666666667"/>
      <point x="88.66666666666667" y="1035.3333333333333" type="curve"/>
      <point x="88.66666666666667" y="780.6666666666666"/>
      <point x="301.0" y="702.6666666666666"/>
      <point x="582.3333333333334" y="651.6666666666666" type="curve"/>
      <point x="785.3333333333334" y="614.6666666666666"/>
      <point x="987.6666666666666" y="539.6666666666666"/>
      <point x="987.6666666666666" y="357.6666666666667" type="curve"/>
      <point x="987.6666666666666" y="179.66666666666669"/>
      <point x="795.0" y="64.0"/>
      <point x="582.3333333333334" y="64.0" type="curve"/>
      <point x="406.6666666666667" y="64.0"/>
      <point x="215.66666666666669" y="143.33333333333334"/>
      <point x="164.33333333333334" y="288.6666666666667" type="curve"/>
      <point x="80.0" y="256.6666666666667" type="line"/>
      <point x="138.66666666666666" y="90.33333333333333"/>
      <point x="336.6666666666667" y="-14.666666666666666"/>
      <point x="545.3333333333334" y="-25.0" type="curve"/>
      <point x="545.3333333333334" y="-224.0" type="line"/>
      <point x="622.6666666666666" y="-224.0" type="line"/>
      <point x="622.6666666666666" y="-25.0" type="line"/>
      <point x="868.0" y="-10.0"/>
      <point x="1077.6666666666667" y="134.66666666666666"/>
      <point x="1077.6666666666667" y="357.6666666666667" type="curve"/>
      <point x="1077.6666666666667" y="587.6666666666666"/>
      <point x="844.0" y="697.6666666666666"/>
      <point x="582.3333333333334" y="745.0" type="curve"/>
      <point x="351.3333333333333" y="787.6666666666666"/>
      <point x="178.66666666666669" y="832.6666666666666"/>
      <point x="178.66666666666669" y="1035.3333333333333" type="curve"/>
      <point x="178.66666666666669" y="1211.3333333333333"/>
      <point x="368.3333333333333" y="1329.0"/>
    </contour>
  </outline>
</glyph>
<glyph name="percent" format="2">
  <advance width="1173.25"/>
  <unicode hex="0025"/>
  <outline>
    <contour>
      <point x="129.66666666666666" y="0.0" type="line"/>
      <point x="234.0" y="0.0" type="line"/>
      <point x="1042.0" y="1400.0" type="line"/>
      <point x="937.6666666666666" y="1400.0" type="line"/>
    </contour>
    <contour>
      <point x="289.6666666666667" y="882.6666666666666" type="curve" smooth="yes"/>
      <point x="404.6666666666667" y="882.6666666666666"/>
      <point x="499.33333333333337" y="975.6666666666666"/>
      <point x="499.33333333333337" y="1092.0" type="curve" smooth="yes"/>
      <point x="499.33333333333337" y="1208.0"/>
      <point x="405.3333333333333" y="1303.3333333333333"/>
      <point x="289.6666666666667" y="1303.3333333333333" type="curve" smooth="yes"/>
      <point x="174.66666666666666" y="1303.3333333333333"/>
      <point x="80.0" y="1208.6666666666667"/>
      <point x="80.0" y="1092.0" type="curve" smooth="yes"/>
      <point x="80.0" y="976.0"/>
      <point x="174.33333333333334" y="882.6666666666666"/>
    </contour>
    <contour>
      <point x="289.6666666666667" y="960.0" type="curve" smooth="yes"/>
      <point x="215.66666666666669" y="960.0"/>
      <point x="157.66666666666669" y="1019.6666666666666"/>
      <point x="157.66666666666669" y="1092.0" type="curve" smooth="yes"/>
      <point x="157.66666666666669" y="1166.0"/>
      <point x="215.66666666666669" y="1225.6666666666667"/>
      <point x="289.6666666666667" y="1225.6666666666667" type="curve" smooth="yes"/>
      <point x="363.6666666666667" y="1225.6666666666667"/>
      <point x="421.6666666666667" y="1166.0"/>
      <point x="421.6666666666667" y="1092.0" type="curve" smooth="yes"/>
      <point x="421.6666666666667" y="1019.6666666666666"/>
      <point x="363.6666666666667" y="960.0"/>
    </contour>
    <contour>
      <point x="883.6666666666666" y="96.66666666666666" type="curve" smooth="yes"/>
      <point x="999.3333333333334" y="96.66666666666666"/>
      <point x="1093.3333333333333" y="192.33333333333334"/>
      <point x="1093.3333333333333" y="307.6666666666667" type="curve" smooth="yes"/>
      <point x="1093.3333333333333" y="422.6666666666667"/>
      <point x="1000.3333333333334" y="517.6666666666666"/>
      <point x="883.6666666666666" y="517.6666666666666" type="curve" smooth="yes"/>
      <point x="768.6666666666666" y="517.6666666666666"/>
      <point x="672.3333333333334" y="424.3333333333333"/>
      <point x="672.3333333333334" y="307.6666666666667" type="curve" smooth="yes"/>
      <point x="672.3333333333334" y="193.33333333333334"/>
      <point x="767.6666666666666" y="96.66666666666666"/>
    </contour>
    <contour>
      <point x="883.6666666666666" y="174.0" type="curve" smooth="yes"/>
      <point x="809.6666666666666" y="174.0"/>
      <point x="749.6666666666666" y="234.0"/>
      <point x="749.6666666666666" y="307.6666666666667" type="curve" smooth="yes"/>
      <point x="749.6666666666666" y="380.0"/>
      <point x="809.6666666666666" y="440.0"/>
      <point x="883.6666666666666" y="440.0" type="curve" smooth="yes"/>
      <point x="955.6666666666666" y="440.0"/>
      <point x="1015.6666666666666" y="380.0"/>
      <point x="1015.6666666666666" y="307.6666666666667" type="curve" smooth="yes"/>
      <point x="1015.6666666666666" y="234.0"/>
      <point x="955.6666666666666" y="174.0"/>
    </contour>
  </outline>
</glyph>
<glyph name="ampersand" format="2">
  <advance width="1410.0"/>
  <unicode hex="0026"/>
  <outline>
    <contour>
      <point x="473.3333333333333" y="-26.0" type="curve" smooth="yes"/>
      <point x="651.3333333333334" y="-26.0"/>
      <point x="691.6666666666666" y="27.666666666666668"/>
      <point x="964.6666666666666" y="300.6666666666667" type="curve"/>
      <point x="1266.6666666666667" y="0.0" type="line"/>
      <point x="1330.0" y="63.333333333333336" type="line"/>
      <point x="1026.0" y="365.6666666666667" type="line"/>
      <point x="1169.6666666666667" y="509.3333333333333" type="line"/>
      <point x="1169.6666666666667" y="635.6666666666666" type="line"/>
      <point x="964.6666666666666" y="432.3333333333333" type="line"/>
      <point x="538.3333333333334" y="858.6666666666666" type="line"/>
      <point x="696.6666666666666" y="1016.6666666666666"/>
      <point x="736.6666666666666" y="1049.6666666666667"/>
      <point x="736.6666666666666" y="1165.3333333333333" type="curve" smooth="yes"/>
      <point x="736.6666666666666" y="1311.6666666666667"/>
      <point x="617.6666666666666" y="1428.6666666666667"/>
      <point x="473.3333333333333" y="1428.6666666666667" type="curve" smooth="yes"/>
      <point x="331.6666666666667" y="1428.6666666666667"/>
      <point x="212.0" y="1310.6666666666667"/>
      <point x="212.0" y="1165.3333333333333" type="curve" smooth="yes"/>
      <point x="212.0" y="1053.3333333333333"/>
      <point x="246.33333333333334" y="1024.0"/>
      <point x="410.0" y="858.6666666666666" type="curve"/>
      <point x="141.0" y="589.6666666666666"/>
      <point x="80.0" y="544.0"/>
      <point x="80.0" y="369.0" type="curve" smooth="yes"/>
      <point x="80.0" y="166.0"/>
      <point x="239.0" y="-26.0"/>
    </contour>
    <contour>
      <point x="473.3333333333333" y="64.0" type="curve" smooth="yes"/>
      <point x="305.0" y="64.0"/>
      <point x="171.66666666666669" y="197.33333333333334"/>
      <point x="171.66666666666669" y="365.6666666666667" type="curve" smooth="yes"/>
      <point x="171.66666666666669" y="512.6666666666666"/>
      <point x="216.0" y="536.3333333333334"/>
      <point x="473.3333333333333" y="795.3333333333334" type="curve"/>
      <point x="901.3333333333334" y="367.3333333333333" type="line"/>
      <point x="651.6666666666666" y="114.33333333333334"/>
      <point x="624.0" y="64.0"/>
    </contour>
    <contour>
      <point x="473.3333333333333" y="916.0" type="curve"/>
      <point x="331.3333333333333" y="1059.6666666666667"/>
      <point x="297.0" y="1078.6666666666667"/>
      <point x="297.0" y="1166.0" type="curve" smooth="yes"/>
      <point x="297.0" y="1259.3333333333333"/>
      <point x="372.0" y="1344.0"/>
      <point x="473.3333333333333" y="1344.0" type="curve" smooth="yes"/>
      <point x="570.3333333333334" y="1344.0"/>
      <point x="651.3333333333334" y="1265.6666666666667"/>
      <point x="651.3333333333334" y="1166.0" type="curve" smooth="yes"/>
      <point x="651.3333333333334" y="1080.3333333333333"/>
      <point x="621.6666666666666" y="1062.3333333333333"/>
    </contour>
  </outline>
</glyph>
<glyph name="quotesingle" format="2">
  <advance width="232.5"/>
  <unicode hex="0027"/>
  <outline>
    <contour>
      <point x="77.66666666666667" y="878.0" type="line"/>
      <point x="155.0" y="878.0" type="line"/>
      <point x="155.0" y="1400.0" type="line"/>
      <point x="77.66666666666667" y="1400.0" type="line"/>
    </contour>
  </outline>
</glyph>
<glyph name="parenleft" format="2">
  <advance width="587.25"/>
  <unicode hex="0028"/>
  <outline>
    <contour>
      <point x="397.3333333333333" y="-112.0" type="curve"/>
      <point x="487.33333333333337" y="-112.0" type="line"/>
      <point x="308.0" y="80.33333333333333"/>
      <point x="220.66666666666669" y="328.6666666666667"/>
      <point x="210.0" y="644.0" type="curve" smooth="yes"/>
      <point x="220.66666666666669" y="945.0"/>
      <point x="304.0" y="1206.6666666666667"/>
      <point x="487.33333333333337" y="1400.0" type="curve"/>
      <point x="397.3333333333333" y="1400.0" type="line"/>
      <point x="205.33333333333334" y="1240.3333333333333"/>
      <point x="120.0" y="924.6666666666666"/>
      <point x="120.0" y="644.0" type="curve" smooth="yes"/>
      <point x="120.0" y="359.3333333333333"/>
      <point x="197.66666666666666" y="70.0"/>
    </contour>
  </outline>
</glyph>
<glyph name="parenright" format="2">
  <advance width="587.25"/>
  <unicode hex="0029"/>
  <outline>
    <contour>
      <point x="100.0" y="-112.0" type="curve"/>
      <point x="190.0" y="-112.0" type="line"/>
      <point x="389.6666666666667" y="70.0"/>
      <point x="467.33333333333337" y="359.3333333333333"/>
      <point x="467.33333333333337" y="644.0" type="curve" smooth="yes"/>
      <point x="467.33333333333337" y="924.6666666666666"/>
      <point x="382.0" y="1240.3333333333333"/>
      <point x="190.0" y="1400.0" type="curve"/>
      <point x="100.0" y="1400.0" type="line"/>
      <point x="283.3333333333333" y="1206.6666666666667"/>
      <point x="366.6666666666667" y="945.0"/>
      <point x="377.3333333333333" y="644.0" type="curve" smooth="yes"/>
      <point x="366.6666666666667" y="328.6666666666667"/>
      <point x="279.3333333333333" y="80.33333333333333"/>
    </contour>
  </outline>
</glyph>
<glyph name="asterisk" format="2">
  <advance width="695.5"/>
  <unicode hex="002A"/>
  <outline>
    <contour>
      <point x="195.66666666666666" y="861.0" type="line"/>
      <point x="332.6666666666667" y="1049.3333333333333" type="line"/>
      <point x="467.6666666666667" y="861.0" type="line"/>
      <point x="531.6666666666666" y="907.3333333333334" type="line"/>
      <point x="394.6666666666667" y="1093.6666666666667" type="line"/>
      <point x="615.6666666666666" y="1165.6666666666667" type="line"/>
      <point x="592.0" y="1238.6666666666667" type="line"/>
      <point x="371.6666666666667" y="1168.3333333333333" type="line"/>
      <point x="371.6666666666667" y="1400.0" type="line"/>
      <point x="294.0" y="1400.0" type="line"/>
      <point x="294.0" y="1168.3333333333333" type="line"/>
      <point x="73.33333333333333" y="1238.6666666666667" type="line"/>
      <point x="50.0" y="1165.6666666666667" type="line"/>
      <point x="268.6666666666667" y="1093.6666666666667" type="line"/>
      <point x="133.66666666666666" y="907.3333333333334" type="line"/>
    </contour>
  </outline>
</glyph>
<glyph name="plus" format="2">
  <advance width="1160.0"/>
  <unicode hex="002B"/>
  <outline>
    <contour>
      <point x="535.0" y="100.0" type="line"/>
      <point x="625.0" y="100.0" type="line"/>
      <point x="625.0" y="555.0" type="line"/>
      <point x="1080.0" y="555.0" type="line"/>
      <point x="1080.0" y="645.0" type="line"/>
      <point x="625.0" y="645.0" type="line"/>
      <point x="625.0" y="1100.0" type="line"/>
      <point x="535.0" y="1100.0" type="line"/>
      <point x="535.0" y="645.0" type="line"/>
      <point x="80.0" y="645.0" type="line"/>
      <point x="80.0" y="555.0" type="line"/>
      <point x="535.0" y="555.0" type="line"/>
    </contour>
  </outline>
</glyph>
<glyph name="period" format="2">
  <advance width="316.25"/>
  <unicode hex="002E"/>
  <outline>
    <contour>
      <point x="137.33333333333334" y="-26.0" type="curve" smooth="yes"/>
      <point x="170.33333333333334" y="-26.0"/>
      <point x="196.33333333333334" y="-0.33333333333333215"/>
      <point x="196.33333333333334" y="33.0" type="curve" smooth="yes"/>
      <point x="196.33333333333334" y="64.33333333333334"/>
      <point x="170.33333333333334" y="90.33333333333334"/>
      <point x="137.33333333333334" y="90.33333333333334" type="curve" smooth="yes"/>
      <point x="105.66666666666667" y="90.33333333333334"/>
      <point x="80.0" y="64.33333333333334"/>
      <point x="80.0" y="33.0" type="curve" smooth="yes"/>
      <point x="80.0" y="-0.33333333333333215"/>
      <point x="105.66666666666667" y="-26.0"/>
    </contour>
  </outline>
</glyph>
<glyph name="slash" format="2">
  <advance width="654.25"/>
  <unicode hex="002F"/>
  <outline>
    <contour>
      <point x="574.3333333333334" y="1400.0" type="line"/>
      <point x="484.3333333333333" y="1400.0" type="line"/>
      <point x="80.0" y="-112.0" type="line"/>
      <point x="170.0" y="-112.0" type="line"/>
    </contour>
  </outline>
</glyph>
<glyph name="zero" format="2">
  <advance width="1183.0"/>
  <unicode hex="0030"/>
  <outline>
    <contour>
      <point x="592.6666666666666" y="-26.0" type="curve" smooth="yes"/>
      <point x="930.0" y="-26.0"/>
      <point x="1123.0" y="300.0"/>
      <point x="1123.0" y="700.0" type="curve" smooth="yes"/>
      <point x="1123.0" y="1101.6666666666667"/>
      <point x="930.0" y="1426.0"/>
      <point x="592.6666666666666" y="1426.0" type="curve" smooth="yes"/>
      <point x="253.33333333333334" y="1426.0"/>
      <point x="60.0" y="1101.6666666666667"/>
      <point x="60.0" y="700.0" type="curve" smooth="yes"/>
      <point x="60.0" y="300.0"/>
      <point x="253.33333333333334" y="-26.0"/>
    </contour>
    <contour>
      <point x="592.6666666666666" y="64.0" type="curve" smooth="yes"/>
      <point x="303.6666666666667" y="64.0"/>
      <point x="147.66666666666669" y="351.0"/>
      <point x="147.66666666666669" y="700.0" type="curve" smooth="yes"/>
      <point x="147.66666666666669" y="1040.6666666666667"/>
      <point x="294.6666666666667" y="1336.0"/>
      <point x="592.6666666666666" y="1336.0" type="curve" smooth="yes"/>
      <point x="875.6666666666666" y="1336.0"/>
      <point x="1035.6666666666667" y="1063.0"/>
      <point x="1035.6666666666667" y="700.0" type="curve" smooth="yes"/>
      <point x="1035.6666666666667" y="354.3333333333333"/>
      <point x="881.6666666666666" y="64.0"/>
    </contour>
  </outline>
</glyph>
<glyph name="one" format="2">
  <advance width="467.5"/>
  <unicode hex="0031"/>
  <outline>
    <contour>
      <point x="217.66666666666666" y="0.0" type="line"/>
      <point x="307.6666666666667" y="0.0" type="line"/>
      <point x="307.6666666666667" y="1400.0" type="line"/>
      <point x="107.66666666666667" y="1400.0" type="line"/>
      <point x="80.0" y="1310.0" type="line"/>
      <point x="217.66666666666666" y="1310.0" type="line"/>
    </contour>
  </outline>
</glyph>
<glyph name="two" format="2">
  <advance width="1063.5"/>
  <unicode hex="0032"/>
  <outline>
    <contour>
      <point x="80.0" y="0.0" type="line"/>
      <point x="943.6666666666666" y="0.0" type="line"/>
      <point x="943.6666666666666" y="90.0" type="line"/>
      <point x="234.66666666666669" y="90.0" type="line"/>
      <point x="509.6666666666667" y="344.6666666666667"/>
      <point x="915.6666666666666" y="772.3333333333334"/>
      <point x="915.6666666666666" y="1015.3333333333334" type="curve" smooth="yes"/>
      <point x="915.6666666666666" y="1241.6666666666667"/>
      <point x="732.6666666666666" y="1426.0"/>
      <point x="508.6666666666667" y="1426.0" type="curve" smooth="yes"/>
      <point x="283.3333333333333" y="1426.0"/>
      <point x="99.66666666666667" y="1242.3333333333333"/>
      <point x="99.66666666666667" y="1015.3333333333334" type="curve"/>
      <point x="189.66666666666669" y="1015.3333333333334" type="line"/>
      <point x="189.66666666666669" y="1190.6666666666667"/>
      <point x="333.0" y="1336.0"/>
      <point x="508.6666666666667" y="1336.0" type="curve" smooth="yes"/>
      <point x="684.0" y="1336.0"/>
      <point x="825.6666666666666" y="1190.6666666666667"/>
      <point x="825.6666666666666" y="1015.3333333333334" type="curve" smooth="yes"/>
      <point x="825.6666666666666" y="780.6666666666666"/>
      <point x="383.3333333333333" y="373.6666666666667"/>
      <point x="80.0" y="79.0" type="curve"/>
    </contour>
  </outline>
</glyph>
<glyph name="three" format="2">
  <advance width="963.5"/>
  <unicode hex="0033"/>
  <outline>
    <contour>
      <point x="481.6666666666667" y="-26.0" type="curve" smooth="yes"/>
      <point x="704.3333333333334" y="-26.0"/>
      <point x="903.6666666666666" y="155.66666666666666"/>
      <point x="903.6666666666666" y="378.3333333333333" type="curve" smooth="yes"/>
      <point x="903.6666666666666" y="547.3333333333334"/>
      <point x="812.6666666666666" y="681.3333333333334"/>
      <point x="640.6666666666666" y="738.6666666666666" type="curve"/>
      <point x="773.0" y="784.3333333333334"/>
      <point x="860.3333333333334" y="905.6666666666666"/>
      <point x="860.3333333333334" y="1057.3333333333333" type="curve" smooth="yes"/>
      <point x="860.3333333333334" y="1260.6666666666667"/>
      <point x="676.0" y="1426.3333333333333"/>
      <point x="473.6666666666667" y="1426.3333333333333" type="curve" smooth="yes"/>
      <point x="268.6666666666667" y="1426.3333333333333"/>
      <point x="82.66666666666667" y="1260.3333333333333"/>
      <point x="82.66666666666667" y="1057.3333333333333" type="curve"/>
      <point x="172.66666666666669" y="1057.3333333333333" type="line"/>
      <point x="172.66666666666669" y="1209.6666666666667"/>
      <point x="319.6666666666667" y="1336.3333333333333"/>
      <point x="474.0" y="1336.3333333333333" type="curve" smooth="yes"/>
      <point x="626.6666666666666" y="1336.3333333333333"/>
      <point x="770.3333333333334" y="1209.6666666666667"/>
      <point x="770.3333333333334" y="1057.3333333333333" type="curve" smooth="yes"/>
      <point x="770.3333333333334" y="873.3333333333334"/>
      <point x="626.0" y="776.0"/>
      <point x="411.6666666666667" y="776.0" type="curve"/>
      <point x="411.6666666666667" y="695.0" type="line"/>
      <point x="642.6666666666666" y="695.0"/>
      <point x="813.6666666666666" y="589.6666666666666"/>
      <point x="813.6666666666666" y="378.3333333333333" type="curve" smooth="yes"/>
      <point x="813.6666666666666" y="204.66666666666669"/>
      <point x="653.6666666666666" y="64.0"/>
      <point x="481.6666666666667" y="64.0" type="curve" smooth="yes"/>
      <point x="273.0" y="64.0"/>
      <point x="150.0" y="204.66666666666669"/>
      <point x="150.0" y="378.3333333333333" type="curve"/>
      <point x="60.0" y="378.3333333333333" type="line"/>
      <point x="60.0" y="155.66666666666666"/>
      <point x="224.66666666666666" y="-26.0"/>
    </contour>
  </outline>
</glyph>
<glyph name="four" format="2">
  <advance width="1059.25"/>
  <unicode hex="0034"/>
  <outline>
    <contour>
      <point x="687.6666666666666" y="0.0" type="line"/>
      <point x="777.6666666666666" y="0.0" type="line"/>
      <point x="777.6666666666666" y="418.6666666666667" type="line"/>
      <point x="939.3333333333334" y="418.6666666666667" type="line"/>
      <point x="939.3333333333334" y="508.6666666666667" type="line"/>
      <point x="777.6666666666666" y="508.6666666666667" type="line"/>
      <point x="777.6666666666666" y="1400.0" type="line"/>
      <point x="661.6666666666666" y="1400.0" type="line"/>
      <point x="80.0" y="512.0" type="line"/>
      <point x="80.0" y="418.6666666666667" type="line"/>
      <point x="687.6666666666666" y="418.6666666666667" type="line"/>
    </contour>
    <contour>
      <point x="189.66666666666669" y="512.0" type="line"/>
      <point x="684.3333333333334" y="1263.6666666666667" type="line"/>
      <point x="687.6666666666666" y="508.6666666666667" type="line"/>
    </contour>
  </outline>
</glyph>
<glyph name="five" format="2">
  <advance width="1086.25"/>
  <unicode hex="0035"/>
  <outline>
    <contour>
      <point x="518.3333333333334" y="-26.0" type="curve" smooth="yes"/>
      <point x="764.0" y="-26.0"/>
      <point x="966.3333333333334" y="175.0"/>
      <point x="966.3333333333334" y="422.0" type="curve" smooth="yes"/>
      <point x="966.3333333333334" y="688.3333333333334"/>
      <point x="769.6666666666666" y="869.0"/>
      <point x="484.0" y="870.6666666666666" type="curve"/>
      <point x="290.6666666666667" y="870.6666666666666" type="line"/>
      <point x="376.6666666666667" y="1310.0" type="line"/>
      <point x="943.6666666666666" y="1310.0" type="line"/>
      <point x="943.6666666666666" y="1400.0" type="line"/>
      <point x="304.0" y="1400.0" type="line"/>
      <point x="179.66666666666666" y="780.6666666666666" type="line"/>
      <point x="511.0" y="780.6666666666666" type="line" smooth="yes"/>
      <point x="719.6666666666666" y="780.6666666666666"/>
      <point x="876.3333333333334" y="619.0"/>
      <point x="876.3333333333334" y="422.0" type="curve" smooth="yes"/>
      <point x="876.3333333333334" y="225.0"/>
      <point x="715.0" y="64.0"/>
      <point x="518.3333333333334" y="64.0" type="curve" smooth="yes"/>
      <point x="319.6666666666667" y="64.0"/>
      <point x="160.0" y="225.0"/>
      <point x="160.0" y="422.0" type="curve"/>
      <point x="70.0" y="422.0" type="line"/>
      <point x="70.0" y="175.66666666666666"/>
      <point x="268.3333333333333" y="-26.0"/>
    </contour>
  </outline>
</glyph>
<glyph name="six" format="2">
  <advance width="1066.25"/>
  <unicode hex="0036"/>
  <outline>
    <contour>
      <point x="527.0" y="-26.0" type="curve" smooth="yes"/>
      <point x="791.0" y="-26.0"/>
      <point x="1006.3333333333334" y="189.66666666666666"/>
      <point x="1006.3333333333334" y="453.0" type="curve" smooth="yes"/>
      <point x="1006.3333333333334" y="808.6666666666666"/>
      <point x="627.3333333333334" y="1031.3333333333333"/>
      <point x="322.6666666666667" y="872.3333333333334" type="curve"/>
      <point x="626.6666666666666" y="1400.0" type="line"/>
      <point x="521.6666666666666" y="1400.0" type="line"/>
      <point x="123.0" y="706.6666666666666" type="line" smooth="yes"/>
      <point x="75.33333333333333" y="614.6666666666666"/>
      <point x="50.0" y="560.0"/>
      <point x="50.0" y="453.0" type="curve" smooth="yes"/>
      <point x="50.0" y="189.33333333333334"/>
      <point x="265.6666666666667" y="-26.0"/>
    </contour>
    <contour>
      <point x="527.0" y="64.0" type="curve" smooth="yes"/>
      <point x="320.0" y="64.0"/>
      <point x="140.0" y="233.66666666666669"/>
      <point x="140.0" y="454.6666666666667" type="curve" smooth="yes"/>
      <point x="140.0" y="660.0"/>
      <point x="307.6666666666667" y="840.3333333333334"/>
      <point x="529.0" y="840.3333333333334" type="curve" smooth="yes"/>
      <point x="742.6666666666666" y="840.3333333333334"/>
      <point x="916.3333333333334" y="667.6666666666666"/>
      <point x="916.3333333333334" y="454.6666666666667" type="curve" smooth="yes"/>
      <point x="916.3333333333334" y="249.66666666666669"/>
      <point x="753.3333333333334" y="64.0"/>
    </contour>
  </outline>
</glyph>
<glyph name="seven" format="2">
  <advance width="1054.75"/>
  <unicode hex="0037"/>
  <outline>
    <contour>
      <point x="155.33333333333334" y="0.0" type="line"/>
      <point x="258.0" y="0.0" type="line"/>
      <point x="1014.6666666666666" y="1310.0" type="line"/>
      <point x="1014.6666666666666" y="1400.0" type="line"/>
      <point x="40.0" y="1400.0" type="line"/>
      <point x="40.0" y="1310.0" type="line"/>
      <point x="910.0" y="1310.0" type="line"/>
    </contour>
  </outline>
</glyph>
<glyph name="eight" format="2">
  <advance width="1034.75"/>
  <unicode hex="0038"/>
  <outline>
    <contour>
      <point x="517.3333333333334" y="-26.0" type="curve" smooth="yes"/>
      <point x="758.6666666666666" y="-26.0"/>
      <point x="954.6666666666666" y="155.0"/>
      <point x="954.6666666666666" y="377.0" type="curve" smooth="yes"/>
      <point x="954.6666666666666" y="536.6666666666666"/>
      <point x="851.0" y="674.6666666666666"/>
      <point x="702.3333333333334" y="737.6666666666666" type="curve"/>
      <point x="827.3333333333334" y="796.0"/>
      <point x="917.6666666666666" y="917.6666666666666"/>
      <point x="917.6666666666666" y="1058.0" type="curve" smooth="yes"/>
      <point x="917.6666666666666" y="1260.6666666666667"/>
      <point x="737.0" y="1426.0"/>
      <point x="517.3333333333334" y="1426.0" type="curve" smooth="yes"/>
      <point x="297.6666666666667" y="1426.0"/>
      <point x="116.66666666666667" y="1260.6666666666667"/>
      <point x="116.66666666666667" y="1058.0" type="curve" smooth="yes"/>
      <point x="116.66666666666667" y="917.6666666666666"/>
      <point x="207.33333333333334" y="796.0"/>
      <point x="332.3333333333333" y="737.6666666666666" type="curve"/>
      <point x="185.66666666666666" y="674.6666666666666"/>
      <point x="80.0" y="536.6666666666666"/>
      <point x="80.0" y="377.0" type="curve" smooth="yes"/>
      <point x="80.0" y="154.66666666666666"/>
      <point x="276.0" y="-26.0"/>
    </contour>
    <contour>
      <point x="517.3333333333334" y="64.0" type="curve" smooth="yes"/>
      <point x="331.3333333333333" y="64.0"/>
      <point x="177.0" y="203.66666666666669"/>
      <point x="177.0" y="377.0" type="curve" smooth="yes"/>
      <point x="177.0" y="550.3333333333334"/>
      <point x="331.3333333333333" y="690.0"/>
      <point x="517.3333333333334" y="690.0" type="curve" smooth="yes"/>
      <point x="706.6666666666666" y="690.0"/>
      <point x="857.6666666666666" y="550.3333333333334"/>
      <point x="857.6666666666666" y="377.0" type="curve" smooth="yes"/>
      <point x="857.6666666666666" y="203.66666666666669"/>
      <point x="706.6666666666666" y="64.0"/>
    </contour>
    <contour>
      <point x="517.3333333333334" y="780.0" type="curve" smooth="yes"/>
      <point x="349.0" y="780.0"/>
      <point x="214.0" y="904.3333333333334"/>
      <point x="214.0" y="1058.0" type="curve" smooth="yes"/>
      <point x="214.0" y="1211.6666666666667"/>
      <point x="349.0" y="1336.0"/>
      <point x="517.3333333333334" y="1336.0" type="curve" smooth="yes"/>
      <point x="685.6666666666666" y="1336.0"/>
      <point x="820.6666666666666" y="1211.6666666666667"/>
      <point x="820.6666666666666" y="1058.0" type="curve" smooth="yes"/>
      <point x="820.6666666666666" y="904.3333333333334"/>
      <point x="685.6666666666666" y="780.0"/>
    </contour>
  </outline>
</glyph>
<glyph name="nine" format="2">
  <advance width="1032.5"/>
  <unicode hex="0039"/>
  <outline>
    <contour>
      <point x="382.0" y="0.0" type="line"/>
      <point x="485.0" y="0.0" type="line"/>
      <point x="901.3333333333334" y="726.6666666666666" type="line" smooth="yes"/>
      <point x="947.3333333333334" y="815.3333333333334"/>
      <point x="972.6666666666666" y="866.3333333333334"/>
      <point x="972.6666666666666" y="968.0" type="curve" smooth="yes"/>
      <point x="972.6666666666666" y="1219.6666666666667"/>
      <point x="765.6666666666666" y="1426.0"/>
      <point x="516.6666666666666" y="1426.0" type="curve" smooth="yes"/>
      <point x="264.6666666666667" y="1426.0"/>
      <point x="60.0" y="1219.3333333333333"/>
      <point x="60.0" y="968.0" type="curve" smooth="yes"/>
      <point x="60.0" y="629.6666666666666"/>
      <point x="419.6666666666667" y="417.6666666666667"/>
      <point x="710.6666666666666" y="568.0" type="curve"/>
    </contour>
    <contour>
      <point x="514.6666666666666" y="600.0" type="curve" smooth="yes"/>
      <point x="311.3333333333333" y="600.0"/>
      <point x="146.66666666666669" y="763.6666666666666"/>
      <point x="146.66666666666669" y="966.6666666666666" type="curve" smooth="yes"/>
      <point x="146.66666666666669" y="1162.6666666666667"/>
      <point x="300.6666666666667" y="1337.6666666666667"/>
      <point x="516.6666666666666" y="1337.6666666666667" type="curve" smooth="yes"/>
      <point x="713.0" y="1337.6666666666667"/>
      <point x="884.3333333333334" y="1176.6666666666667"/>
      <point x="884.3333333333334" y="966.6666666666666" type="curve" smooth="yes"/>
      <point x="884.3333333333334" y="771.6666666666666"/>
      <point x="725.6666666666666" y="600.0"/>
    </contour>
  </outline>
</glyph>
<glyph name="colon" format="2">
  <advance width="316.25"/>
  <unicode hex="003A"/>
  <outline>
    <contour>
      <point x="137.33333333333334" y="883.6666666666666" type="curve" smooth="yes"/>
      <point x="170.33333333333334" y="883.6666666666666"/>
      <point x="196.33333333333334" y="909.6666666666666"/>
      <point x="196.33333333333334" y="942.6666666666666" type="curve" smooth="yes"/>
      <point x="196.33333333333334" y="974.0"/>
      <point x="170.33333333333334" y="1000.0"/>
      <point x="137.33333333333334" y="1000.0" type="curve" smooth="yes"/>
      <point x="105.66666666666667" y="1000.0"/>
      <point x="80.0" y="974.0"/>
      <point x="80.0" y="942.6666666666666" type="curve" smooth="yes"/>
      <point x="80.0" y="909.6666666666666"/>
      <point x="105.66666666666667" y="883.6666666666666"/>
    </contour>
    <contour>
      <point x="137.33333333333334" y="-26.0" type="curve" smooth="yes"/>
      <point x="170.33333333333334" y="-26.0"/>
      <point x="196.33333333333334" y="-0.33333333333333215"/>
      <point x="196.33333333333334" y="33.0" type="curve" smooth="yes"/>
      <point x="196.33333333333334" y="64.33333333333334"/>
      <point x="170.33333333333334" y="90.33333333333334"/>
      <point x="137.33333333333334" y="90.33333333333334" type="curve" smooth="yes"/>
      <point x="105.66666666666667" y="90.33333333333334"/>
      <point x="80.0" y="64.33333333333334"/>
      <point x="80.0" y="33.0" type="curve" smooth="yes"/>
      <point x="80.0" y="-0.33333333333333215"/>
      <point x="105.66666666666667" y="-26.0"/>
    </contour>
  </outline>
</glyph>
<glyph name="semicolon" format="2">
  <advance width="362.5"/>
  <unicode hex="003B"/>
  <outline>
    <contour>
      <point x="80.0" y="-112.0" type="line"/>
      <point x="140.0" y="-112.0" type="line"/>
      <point x="232.0" y="226.0" type="line"/>
      <point x="142.0" y="226.0" type="line"/>
    </contour>
    <contour>
      <point x="185.33333333333334" y="883.6666666666666" type="curve" smooth="yes"/>
      <point x="216.66666666666669" y="883.6666666666666"/>
      <point x="242.66666666666669" y="909.6666666666666"/>
      <point x="242.66666666666669" y="941.0" type="curve" smooth="yes"/>
      <point x="242.66666666666669" y="974.0"/>
      <point x="216.66666666666669" y="1000.0"/>
      <point x="185.33333333333334" y="1000.0" type="curve" smooth="yes"/>
      <point x="152.0" y="1000.0"/>
      <point x="126.33333333333333" y="974.0"/>
      <point x="126.33333333333333" y="941.0" type="curve" smooth="yes"/>
      <point x="126.33333333333333" y="909.6666666666666"/>
      <point x="152.0" y="883.6666666666666"/>
    </contour>
  </outline>
</glyph>
<glyph name="less" format="2">
  <advance width="1160.0"/>
  <unicode hex="003C"/>
  <outline>
    <contour>
      <point x="1080.0" y="242.66666666666666" type="line"/>
      <point x="1080.0" y="335.6666666666667" type="line"/>
      <point x="154.0" y="600.0" type="line"/>
      <point x="1080.0" y="862.6666666666666" type="line"/>
      <point x="1080.0" y="957.6666666666666" type="line"/>
      <point x="80.0" y="671.6666666666666" type="line"/>
      <point x="80.0" y="526.6666666666666" type="line"/>
    </contour>
  </outline>
</glyph>
<glyph name="equal" format="2">
  <advance width="1160.0"/>
  <unicode hex="003D"/>
  <outline>
    <contour>
      <point x="80.0" y="359.3333333333333" type="line"/>
      <point x="1080.0" y="359.3333333333333" type="line"/>
      <point x="1080.0" y="449.3333333333333" type="line"/>
      <point x="80.0" y="449.3333333333333" type="line"/>
    </contour>
    <contour>
      <point x="80.0" y="750.6666666666666" type="line"/>
      <point x="1080.0" y="750.6666666666666" type="line"/>
      <point x="1080.0" y="840.6666666666666" type="line"/>
      <point x="80.0" y="840.6666666666666" type="line"/>
    </contour>
  </outline>
</glyph>
<glyph name="greater" format="2">
  <advance width="1160.0"/>
  <unicode hex="003E"/>
  <outline>
    <contour>
      <point x="80.0" y="244.0" type="line"/>
      <point x="1080.0" y="526.6666666666666" type="line"/>
      <point x="1080.0" y="671.6666666666666" type="line"/>
      <point x="80.0" y="956.0" type="line"/>
      <point x="80.0" y="861.0" type="line"/>
      <point x="1006.0" y="600.0" type="line"/>
      <point x="80.0" y="337.3333333333333" type="line"/>
    </contour>
  </outline>
</glyph>
<glyph name="question" format="2">
  <advance width="952.25"/>
  <unicode hex="003F"/>
  <outline>
    <contour>
      <point x="424.3333333333333" y="506.6666666666667" type="curve"/>
      <point x="514.3333333333334" y="506.6666666666667" type="line"/>
      <point x="514.3333333333334" y="596.3333333333334"/>
      <point x="561.3333333333334" y="675.3333333333334"/>
      <point x="640.3333333333334" y="717.6666666666666" type="curve" smooth="yes"/>
      <point x="759.3333333333334" y="782.0"/>
      <point x="832.3333333333334" y="909.3333333333334"/>
      <point x="832.3333333333334" y="1051.0" type="curve" smooth="yes"/>
      <point x="832.3333333333334" y="1259.0"/>
      <point x="663.6666666666666" y="1427.6666666666667"/>
      <point x="455.3333333333333" y="1427.6666666666667" type="curve" smooth="yes"/>
      <point x="248.66666666666666" y="1427.6666666666667"/>
      <point x="80.0" y="1259.0"/>
      <point x="80.0" y="1051.0" type="curve"/>
      <point x="170.0" y="1051.0" type="line"/>
      <point x="170.0" y="1210.6666666666667"/>
      <point x="297.6666666666667" y="1337.6666666666667"/>
      <point x="455.3333333333333" y="1337.6666666666667" type="curve" smooth="yes"/>
      <point x="613.0" y="1337.6666666666667"/>
      <point x="742.3333333333334" y="1210.6666666666667"/>
      <point x="742.3333333333334" y="1051.0" type="curve" smooth="yes"/>
      <point x="742.3333333333334" y="942.3333333333334"/>
      <point x="687.3333333333334" y="845.3333333333334"/>
      <point x="598.0" y="797.6666666666666" type="curve" smooth="yes"/>
      <point x="489.3333333333333" y="738.3333333333334"/>
      <point x="424.3333333333333" y="629.3333333333334"/>
    </contour>
    <contour>
      <point x="459.0" y="-26.0" type="curve" smooth="yes"/>
      <point x="492.0" y="-26.0"/>
      <point x="517.6666666666666" y="1.6666666666666679"/>
      <point x="517.6666666666666" y="33.333333333333336" type="curve" smooth="yes"/>
      <point x="517.6666666666666" y="64.66666666666667"/>
      <point x="492.0" y="90.33333333333334"/>
      <point x="459.0" y="90.33333333333334" type="curve" smooth="yes"/>
      <point x="427.6666666666667" y="90.33333333333334"/>
      <point x="401.6666666666667" y="64.66666666666667"/>
      <point x="401.6666666666667" y="33.333333333333336" type="curve" smooth="yes"/>
      <point x="401.6666666666667" y="1.6666666666666679"/>
      <point x="427.6666666666667" y="-26.0"/>
    </contour>
  </outline>
</glyph>
<glyph name="at" format="2">
  <advance width="1680.875"/>
  <unicode hex="0040"/>
  <outline>
    <contour>
      <point x="841.0" y="-154.66666666666669" type="curve"/>
      <point x="841.0" y="-64.66666666666666" type="line"/>
      <point x="471.0" y="-64.66666666666666"/>
      <point x="170.0" y="181.0"/>
      <point x="170.0" y="551.0" type="curve" smooth="yes"/>
      <point x="170.0" y="922.6666666666666"/>
      <point x="473.0" y="1221.0"/>
      <point x="841.0" y="1221.0" type="curve" smooth="yes"/>
      <point x="1210.0" y="1221.0"/>
      <point x="1511.0" y="921.0"/>
      <point x="1511.0" y="551.0" type="curve" smooth="yes"/>
      <point x="1511.0" y="385.6666666666667"/>
      <point x="1451.3333333333333" y="204.0"/>
      <point x="1318.6666666666667" y="204.0" type="curve" smooth="yes"/>
      <point x="1248.0" y="204.0"/>
      <point x="1175.0" y="260.0"/>
      <point x="1175.0" y="331.0" type="curve" smooth="yes"/>
      <point x="1175.0" y="921.6666666666666" type="line"/>
      <point x="1095.0" y="928.0" type="line"/>
      <point x="1095.0" y="784.6666666666666" type="line"/>
      <point x="1039.3333333333333" y="883.3333333333334"/>
      <point x="936.6666666666666" y="948.0"/>
      <point x="806.3333333333334" y="948.0" type="curve" smooth="yes"/>
      <point x="587.3333333333334" y="948.0"/>
      <point x="409.3333333333333" y="770.0"/>
      <point x="409.3333333333333" y="551.0" type="curve" smooth="yes"/>
      <point x="409.3333333333333" y="331.0"/>
      <point x="587.3333333333334" y="153.0"/>
      <point x="806.3333333333334" y="153.0" type="curve" smooth="yes"/>
      <point x="937.6666666666666" y="153.0"/>
      <point x="1036.6666666666667" y="218.33333333333334"/>
      <point x="1093.0" y="318.0" type="curve"/>
      <point x="1096.3333333333333" y="200.66666666666666"/>
      <point x="1209.0" y="114.0"/>
      <point x="1321.0" y="114.0" type="curve" smooth="yes"/>
      <point x="1498.0" y="114.0"/>
      <point x="1601.0" y="350.3333333333333"/>
      <point x="1601.0" y="551.0" type="curve" smooth="yes"/>
      <point x="1601.0" y="968.0"/>
      <point x="1265.0" y="1311.0"/>
      <point x="841.0" y="1311.0" type="curve" smooth="yes"/>
      <point x="420.6666666666667" y="1311.0"/>
      <point x="80.0" y="970.3333333333334"/>
      <point x="80.0" y="551.0" type="curve" smooth="yes"/>
      <point x="80.0" y="132.33333333333334"/>
      <point x="421.3333333333333" y="-154.66666666666669"/>
    </contour>
    <contour>
      <point x="809.6666666666666" y="232.66666666666669" type="curve" smooth="yes"/>
      <point x="638.0" y="232.66666666666669"/>
      <point x="492.33333333333337" y="371.6666666666667"/>
      <point x="492.33333333333337" y="551.0" type="curve" smooth="yes"/>
      <point x="492.33333333333337" y="727.0"/>
      <point x="632.6666666666666" y="868.0"/>
      <point x="809.6666666666666" y="868.0" type="curve" smooth="yes"/>
      <point x="999.3333333333334" y="868.0"/>
      <point x="1089.0" y="721.6666666666666"/>
      <point x="1089.0" y="566.6666666666666" type="curve" smooth="yes"/>
      <point x="1089.0" y="402.0"/>
      <point x="986.3333333333334" y="232.66666666666669"/>
    </contour>
  </outline>
</glyph>
<glyph name="A" format="2">
  <advance width="1302.25"/>
  <unicode hex="0041"/>
  <outline>
    <contour>
      <point x="589.6666666666666" y="1400.0" type="line"/>
      <point x="80.0" y="0.0" type="line"/>
      <point x="175.66666666666669" y="0.0" type="line"/>
      <point x="294.3333333333333" y="325.0" type="line"/>
      <point x="1008.0" y="325.0" type="line"/>
      <point x="1126.6666666666667" y="0.0" type="line"/>
      <point x="1222.3333333333333" y="0.0" type="line"/>
      <point x="712.6666666666666" y="1400.0" type="line"/>
    </contour>
    <contour>
      <point x="327.33333333333337" y="415.0" type="line"/>
      <point x="651.0" y="1304.3333333333333" type="line"/>
      <point x="975.0" y="415.0" type="line"/>
    </contour>
  </outline>
</glyph>
<glyph name="B" format="2">
  <advance width="1087.0"/>
  <unicode hex="0042"/>
  <outline>
    <contour>
      <point x="120.0" y="0.0" type="line"/>
      <point x="639.3333333333334" y="0.0" type="line" smooth="yes"/>
      <point x="841.6666666666666" y="0.0"/>
      <point x="1007.0" y="154.33333333333334"/>
      <point x="1007.0" y="399.6666666666667" type="curve" smooth="yes"/>
      <point x="1007.0" y="558.6666666666666"/>
      <point x="919.0" y="729.6666666666666"/>
      <point x="756.6666666666666" y="774.6666666666666" type="curve"/>
      <point x="836.3333333333334" y="791.0"/>
      <point x="930.6666666666666" y="913.6666666666666"/>
      <point x="930.6666666666666" y="1054.3333333333333" type="curve" smooth="yes"/>
      <point x="930.6666666666666" y="1277.6666666666667"/>
      <point x="771.6666666666666" y="1398.3333333333333"/>
      <point x="574.6666666666666" y="1398.3333333333333" type="curve" smooth="yes"/>
      <point x="120.0" y="1398.3333333333333" type="line"/>
    </contour>
    <contour>
      <point x="210.0" y="84.33333333333334" type="line"/>
      <point x="210.0" y="725.6666666666666" type="line"/>
      <point x="635.3333333333334" y="725.6666666666666" type="line" smooth="yes"/>
      <point x="793.6666666666666" y="725.6666666666666"/>
      <point x="921.3333333333334" y="572.6666666666666"/>
      <point x="921.3333333333334" y="407.3333333333333" type="curve" smooth="yes"/>
      <point x="921.3333333333334" y="222.0"/>
      <point x="793.6666666666666" y="84.33333333333334"/>
      <point x="635.3333333333334" y="84.33333333333334" type="curve" smooth="yes"/>
    </contour>
    <contour>
      <point x="210.0" y="809.3333333333334" type="line"/>
      <point x="210.0" y="1313.6666666666667" type="line"/>
      <point x="570.3333333333334" y="1313.6666666666667" type="line" smooth="yes"/>
      <point x="718.6666666666666" y="1313.6666666666667"/>
      <point x="840.6666666666666" y="1231.0"/>
      <point x="840.6666666666666" y="1054.6666666666667" type="curve" smooth="yes"/>
      <point x="840.6666666666666" y="895.6666666666666"/>
      <point x="718.6666666666666" y="809.3333333333334"/>
      <point x="570.3333333333334" y="809.3333333333334" type="curve" smooth="yes"/>
    </contour>
  </outline>
</glyph>
<glyph name="C" format="2">
  <advance width="1398.0"/>
  <unicode hex="0043"/>
  <outline>
    <contour>
      <point x="748.0" y="-26.0" type="curve"/>
      <point x="974.0" y="-26.0"/>
      <point x="1172.0" y="86.33333333333333"/>
      <point x="1298.0" y="262.0" type="curve"/>
      <point x="1219.0" y="304.6666666666667" type="line"/>
      <point x="1114.0" y="161.66666666666669"/>
      <point x="940.6666666666666" y="64.0"/>
      <point x="748.0" y="64.0" type="curve"/>
      <point x="418.6666666666667" y="64.0"/>
      <point x="150.0" y="348.6666666666667"/>
      <point x="150.0" y="700.0" type="curve"/>
      <point x="150.0" y="1042.6666666666667"/>
      <point x="413.3333333333333" y="1336.0"/>
      <point x="748.0" y="1336.0" type="curve"/>
      <point x="931.6666666666666" y="1336.0"/>
      <point x="1110.6666666666667" y="1242.0"/>
      <point x="1219.0" y="1093.6666666666667" type="curve"/>
      <point x="1298.0" y="1136.3333333333333" type="line"/>
      <point x="1172.0" y="1312.0"/>
      <point x="974.0" y="1426.0"/>
      <point x="748.0" y="1426.0" type="curve"/>
      <point x="368.0" y="1426.0"/>
      <point x="60.0" y="1100.3333333333333"/>
      <point x="60.0" y="700.0" type="curve"/>
      <point x="60.0" y="298.3333333333333"/>
      <point x="368.0" y="-26.0"/>
    </contour>
  </outline>
</glyph>
<glyph name="D" format="2">
  <advance width="1342.25"/>
  <unicode hex="0044"/>
  <outline>
    <contour>
      <point x="120.0" y="0.0" type="line"/>
      <point x="582.3333333333334" y="0.0" type="line" smooth="yes"/>
      <point x="970.0" y="0.0"/>
      <point x="1282.3333333333333" y="314.0"/>
      <point x="1282.3333333333333" y="700.0" type="curve" smooth="yes"/>
      <point x="1282.3333333333333" y="1086.0"/>
      <point x="970.0" y="1400.0"/>
      <point x="582.3333333333334" y="1400.0" type="curve" smooth="yes"/>
      <point x="120.0" y="1400.0" type="line"/>
    </contour>
    <contour>
      <point x="210.0" y="90.0" type="line"/>
      <point x="210.0" y="1310.0" type="line"/>
      <point x="582.3333333333334" y="1310.0" type="line" smooth="yes"/>
      <point x="919.3333333333334" y="1310.0"/>
      <point x="1192.3333333333333" y="1037.3333333333333"/>
      <point x="1192.3333333333333" y="700.0" type="curve" smooth="yes"/>
      <point x="1192.3333333333333" y="362.6666666666667"/>
      <point x="920.6666666666666" y="90.0"/>
      <point x="582.3333333333334" y="90.0" type="curve" smooth="yes"/>
    </contour>
  </outline>
</glyph>
<glyph name="E" format="2">
  <advance width="1059.5"/>
  <unicode hex="0045"/>
  <outline>
    <contour>
      <point x="120.0" y="0.0" type="line"/>
      <point x="959.6666666666666" y="0.0" type="line"/>
      <point x="959.6666666666666" y="90.0" type="line"/>
      <point x="210.0" y="90.0" type="line"/>
      <point x="210.0" y="705.0" type="line"/>
      <point x="841.0" y="705.0" type="line"/>
      <point x="841.0" y="795.0" type="line"/>
      <point x="210.0" y="795.0" type="line"/>
      <point x="210.0" y="1310.0" type="line"/>
      <point x="959.6666666666666" y="1310.0" type="line"/>
      <point x="959.6666666666666" y="1400.0" type="line"/>
      <point x="120.0" y="1400.0" type="line"/>
    </contour>
  </outline>
</glyph>
<glyph name="F" format="2">
  <advance width="954.5"/>
  <unicode hex="0046"/>
  <outline>
    <contour>
      <point x="120.0" y="0.0" type="line"/>
      <point x="210.0" y="0.0" type="line"/>
      <point x="210.0" y="705.0" type="line"/>
      <point x="838.6666666666666" y="705.0" type="line"/>
      <point x="838.6666666666666" y="795.0" type="line"/>
      <point x="210.0" y="795.0" type="line"/>
      <point x="210.0" y="1310.0" type="line"/>
      <point x="934.6666666666666" y="1310.0" type="line"/>
      <point x="934.6666666666666" y="1400.0" type="line"/>
      <point x="120.0" y="1400.0" type="line"/>
    </contour>
  </outline>
</glyph>
<glyph name="G" format="2">
  <advance width="1496.125"/>
  <unicode hex="0047"/>
  <outline>
    <contour>
      <point x="749.6666666666666" y="-26.0" type="curve" smooth="yes"/>
      <point x="1114.3333333333333" y="-26.0"/>
      <point x="1417.6666666666667" y="278.3333333333333"/>
      <point x="1436.0" y="654.3333333333334" type="curve"/>
      <point x="895.6666666666666" y="654.3333333333334" type="line"/>
      <point x="895.6666666666666" y="569.3333333333334" type="line"/>
      <point x="1332.3333333333333" y="569.3333333333334" type="line"/>
      <point x="1281.6666666666667" y="289.0"/>
      <point x="1040.3333333333333" y="64.0"/>
      <point x="750.3333333333334" y="64.0" type="curve" smooth="yes"/>
      <point x="418.6666666666667" y="64.0"/>
      <point x="150.0" y="351.6666666666667"/>
      <point x="150.0" y="699.6666666666666" type="curve" smooth="yes"/>
      <point x="150.0" y="1044.6666666666667"/>
      <point x="417.0" y="1336.0"/>
      <point x="750.0" y="1336.0" type="curve" smooth="yes"/>
      <point x="928.6666666666666" y="1336.0"/>
      <point x="1103.6666666666667" y="1248.6666666666667"/>
      <point x="1219.0" y="1093.6666666666667" type="curve"/>
      <point x="1299.6666666666667" y="1137.6666666666667" type="line"/>
      <point x="1170.6666666666667" y="1315.3333333333333"/>
      <point x="970.6666666666666" y="1425.6666666666667"/>
      <point x="750.6666666666666" y="1425.6666666666667" type="curve" smooth="yes"/>
      <point x="371.6666666666667" y="1425.6666666666667"/>
      <point x="60.0" y="1103.6666666666667"/>
      <point x="60.0" y="700.3333333333334" type="curve" smooth="yes"/>
      <point x="60.0" y="300.6666666666667"/>
      <point x="366.6666666666667" y="-26.0"/>
    </contour>
  </outline>
</glyph>
<glyph name="H" format="2">
  <advance width="1229.25"/>
  <unicode hex="0048"/>
  <outline>
    <contour>
      <point x="1019.3333333333334" y="1400.0" type="line"/>
      <point x="1019.3333333333334" y="795.0" type="line"/>
      <point x="210.0" y="795.0" type="line"/>
      <point x="210.0" y="1400.0" type="line"/>
      <point x="120.0" y="1400.0" type="line"/>
      <point x="120.0" y="0.0" type="line"/>
      <point x="210.0" y="0.0" type="line"/>
      <point x="210.0" y="705.0" type="line"/>
      <point x="1019.3333333333334" y="705.0" type="line"/>
      <point x="1019.3333333333334" y="0.0" type="line"/>
      <point x="1109.3333333333333" y="0.0" type="line"/>
      <point x="1109.3333333333333" y="1400.0" type="line"/>
    </contour>
  </outline>
</glyph>
<glyph name="I" format="2">
  <advance width="390.0"/>
  <unicode hex="0049"/>
  <outline>
    <contour>
      <point x="150.0" y="0.0" type="line"/>
      <point x="240.0" y="0.0" type="line"/>
      <point x="240.0" y="1400.0" type="line"/>
      <point x="150.0" y="1400.0" type="line"/>
    </contour>
  </outline>
</glyph>
<glyph name="J" format="2">
  <advance width="762.5"/>
  <unicode hex="004A"/>
  <outline>
    <contour>
      <point x="273.6666666666667" y="-26.0" type="curve" smooth="yes"/>
      <point x="477.6666666666667" y="-26.0"/>
      <point x="642.6666666666666" y="156.33333333333334"/>
      <point x="642.6666666666666" y="358.6666666666667" type="curve" smooth="yes"/>
      <point x="642.6666666666666" y="1400.0" type="line"/>
      <point x="552.6666666666666" y="1400.0" type="line"/>
      <point x="552.6666666666666" y="358.6666666666667" type="line" smooth="yes"/>
      <point x="552.6666666666666" y="205.0"/>
      <point x="427.3333333333333" y="64.0"/>
      <point x="273.6666666666667" y="64.0" type="curve" smooth="yes"/>
      <point x="207.66666666666666" y="64.0"/>
      <point x="145.66666666666666" y="87.66666666666667"/>
      <point x="97.33333333333334" y="128.66666666666669" type="curve"/>
      <point x="40.0" y="59.666666666666664" type="line"/>
      <point x="104.66666666666667" y="3.3333333333333335"/>
      <point x="188.33333333333334" y="-26.0"/>
    </contour>
  </outline>
</glyph>
<glyph name="K" format="2">
  <advance width="1014.75"/>
  <unicode hex="004B"/>
  <outline>
    <contour>
      <point x="959.6666666666666" y="0.0" type="line"/>
      <point x="412.6666666666667" y="738.3333333333334" type="line"/>
      <point x="968.6666666666666" y="1400.0" type="line"/>
      <point x="851.3333333333334" y="1400.0" type="line"/>
      <point x="210.0" y="635.3333333333334" type="line"/>
      <point x="210.0" y="1400.0" type="line"/>
      <point x="120.0" y="1400.0" type="line"/>
      <point x="120.0" y="0.0" type="line"/>
      <point x="210.0" y="0.0" type="line"/>
      <point x="210.0" y="494.6666666666667" type="line"/>
      <point x="353.3333333333333" y="667.0" type="line"/>
      <point x="844.3333333333334" y="0.0" type="line"/>
    </contour>
  </outline>
</glyph>
<glyph name="L" format="2">
  <advance width="982.5"/>
  <unicode hex="004C"/>
  <outline>
    <contour>
      <point x="120.0" y="0.0" type="line"/>
      <point x="882.6666666666666" y="0.0" type="line"/>
      <point x="882.6666666666666" y="90.0" type="line"/>
      <point x="210.0" y="90.0" type="line"/>
      <point x="210.0" y="1400.0" type="line"/>
      <point x="120.0" y="1400.0" type="line"/>
    </contour>
  </outline>
</glyph>
<glyph name="M" format="2">
  <advance width="1721.0"/>
  <unicode hex="004D"/>
  <outline>
    <contour>
      <point x="120.0" y="0.0" type="line"/>
      <point x="210.66666666666669" y="0.0" type="line"/>
      <point x="437.3333333333333" y="1169.0" type="line"/>
      <point x="833.6666666666666" y="120.66666666666666" type="line"/>
      <point x="885.6666666666666" y="120.66666666666666" type="line"/>
      <point x="1282.0" y="1169.0" type="line"/>
      <point x="1508.6666666666667" y="0.0" type="line"/>
      <point x="1601.0" y="0.0" type="line"/>
      <point x="1329.0" y="1400.0" type="line"/>
      <point x="1274.3333333333333" y="1400.0" type="line"/>
      <point x="860.6666666666666" y="306.33333333333337" type="line"/>
      <point x="445.0" y="1400.0" type="line"/>
      <point x="390.3333333333333" y="1400.0" type="line"/>
    </contour>
  </outline>
</glyph>
<glyph name="N" format="2">
  <advance width="1290.25"/>
  <unicode hex="004E"/>
  <outline>
    <contour>
      <point x="146.33333333333334" y="0.0" type="line"/>
      <point x="236.33333333333334" y="0.0" type="line"/>
      <point x="236.33333333333334" y="1237.6666666666667" type="line"/>
      <point x="1047.6666666666667" y="0.0" type="line"/>
      <point x="1144.0" y="0.0" type="line"/>
      <point x="1144.0" y="1400.0" type="line"/>
      <point x="1054.0" y="1400.0" type="line"/>
      <point x="1054.0" y="162.33333333333334" type="line"/>
      <point x="244.66666666666669" y="1400.0" type="line"/>
      <point x="146.33333333333334" y="1400.0" type="line"/>
    </contour>
  </outline>
</glyph>
<glyph name="O" format="2">
  <advance width="1540.0"/>
  <unicode hex="004F"/>
  <outline>
    <contour>
      <point x="770.0" y="-26.0" type="curve" smooth="yes"/>
      <point x="1150.0" y="-26.0"/>
      <point x="1460.0" y="300.0"/>
      <point x="1460.0" y="700.0" type="curve" smooth="yes"/>
      <point x="1460.0" y="1100.0"/>
      <point x="1150.0" y="1426.0"/>
      <point x="770.0" y="1426.0" type="curve" smooth="yes"/>
      <point x="390.0" y="1426.0"/>
      <point x="80.0" y="1100.0"/>
      <point x="80.0" y="700.0" type="curve" smooth="yes"/>
      <point x="80.0" y="300.0"/>
      <point x="390.0" y="-26.0"/>
    </contour>
    <contour>
      <point x="770.0" y="64.0" type="curve" smooth="yes"/>
      <point x="438.6666666666667" y="64.0"/>
      <point x="170.0" y="350.6666666666667"/>
      <point x="170.0" y="700.0" type="curve" smooth="yes"/>
      <point x="170.0" y="1044.3333333333333"/>
      <point x="435.3333333333333" y="1336.0"/>
      <point x="770.0" y="1336.0" type="curve" smooth="yes"/>
      <point x="1101.3333333333333" y="1336.0"/>
      <point x="1370.0" y="1047.6666666666667"/>
      <point x="1370.0" y="700.0" type="curve" smooth="yes"/>
      <point x="1370.0" y="355.6666666666667"/>
      <point x="1104.6666666666667" y="64.0"/>
    </contour>
  </outline>
</glyph>
<glyph name="P" format="2">
  <advance width="1017.5"/>
  <unicode hex="0050"/>
  <outline>
    <contour>
      <point x="120.0" y="0.0" type="line"/>
      <point x="210.0" y="0.0" type="line"/>
      <point x="210.0" y="593.0" type="line"/>
      <point x="543.0" y="593.0" type="line" smooth="yes"/>
      <point x="758.0" y="593.0"/>
      <point x="937.6666666666666" y="765.6666666666666"/>
      <point x="937.6666666666666" y="996.6666666666666" type="curve" smooth="yes"/>
      <point x="937.6666666666666" y="1225.0"/>
      <point x="764.3333333333334" y="1400.0"/>
      <point x="543.0" y="1400.0" type="curve" smooth="yes"/>
      <point x="120.0" y="1400.0" type="line"/>
    </contour>
    <contour>
      <point x="210.0" y="683.0" type="line"/>
      <point x="210.0" y="1315.6666666666667" type="line"/>
      <point x="538.6666666666666" y="1315.6666666666667" type="line" smooth="yes"/>
      <point x="708.0" y="1315.6666666666667"/>
      <point x="847.6666666666666" y="1181.0"/>
      <point x="847.6666666666666" y="999.3333333333334" type="curve" smooth="yes"/>
      <point x="847.6666666666666" y="817.6666666666666"/>
      <point x="708.0" y="683.0"/>
      <point x="538.6666666666666" y="683.0" type="curve" smooth="yes"/>
    </contour>
  </outline>
</glyph>
<glyph name="Q" format="2">
  <advance width="1543.75"/>
  <unicode hex="0051"/>
  <outline>
    <contour>
      <point x="1397.0" y="-15.333333333333334" type="line"/>
      <point x="1460.3333333333333" y="48.0" type="line"/>
      <point x="1285.3333333333333" y="221.33333333333334" type="line"/>
      <point x="1393.6666666666667" y="349.3333333333333"/>
      <point x="1458.3333333333333" y="516.6666666666666"/>
      <point x="1458.3333333333333" y="701.0" type="curve" smooth="yes"/>
      <point x="1458.3333333333333" y="1101.0"/>
      <point x="1150.0" y="1427.0"/>
      <point x="770.0" y="1427.0" type="curve" smooth="yes"/>
      <point x="388.3333333333333" y="1427.0"/>
      <point x="80.0" y="1101.0"/>
      <point x="80.0" y="701.0" type="curve" smooth="yes"/>
      <point x="80.0" y="300.6666666666667"/>
      <point x="388.3333333333333" y="-25.0"/>
      <point x="770.0" y="-25.0" type="curve" smooth="yes"/>
      <point x="943.0" y="-25.0"/>
      <point x="1102.6666666666667" y="43.333333333333336"/>
      <point x="1224.3333333333333" y="157.33333333333334" type="curve"/>
    </contour>
    <contour>
      <point x="770.0" y="65.0" type="curve" smooth="yes"/>
      <point x="440.6666666666667" y="65.0"/>
      <point x="170.0" y="351.3333333333333"/>
      <point x="170.0" y="701.0" type="curve" smooth="yes"/>
      <point x="170.0" y="1043.6666666666667"/>
      <point x="435.3333333333333" y="1337.0"/>
      <point x="770.0" y="1337.0" type="curve" smooth="yes"/>
      <point x="1097.6666666666667" y="1337.0"/>
      <point x="1368.3333333333333" y="1050.6666666666667"/>
      <point x="1368.3333333333333" y="701.0" type="curve" smooth="yes"/>
      <point x="1368.3333333333333" y="550.0"/>
      <point x="1316.0" y="402.6666666666667"/>
      <point x="1220.6666666666667" y="287.6666666666667" type="curve"/>
      <point x="976.6666666666666" y="531.6666666666666" type="line"/>
      <point x="913.6666666666666" y="466.6666666666667" type="line"/>
      <point x="1158.6666666666667" y="221.66666666666666" type="line"/>
      <point x="1056.3333333333333" y="122.66666666666667"/>
      <point x="911.6666666666666" y="65.0"/>
    </contour>
  </outline>
</glyph>
<glyph name="R" format="2">
  <advance width="1094.5"/>
  <unicode hex="0052"/>
  <outline>
    <contour>
      <point x="146.33333333333334" y="0.0" type="line"/>
      <point x="236.33333333333334" y="0.0" type="line"/>
      <point x="236.33333333333334" y="593.0" type="line"/>
      <point x="539.6666666666666" y="593.0" type="line"/>
      <point x="883.6666666666666" y="0.0" type="line"/>
      <point x="988.3333333333334" y="0.0" type="line"/>
      <point x="642.3333333333334" y="598.3333333333334" type="line"/>
      <point x="834.3333333333334" y="621.3333333333334"/>
      <point x="986.3333333333334" y="783.3333333333334"/>
      <point x="986.3333333333334" y="996.6666666666666" type="curve" smooth="yes"/>
      <point x="986.3333333333334" y="1225.3333333333333"/>
      <point x="813.3333333333334" y="1400.0"/>
      <point x="592.0" y="1400.0" type="curve" smooth="yes"/>
      <point x="146.33333333333334" y="1400.0" type="line"/>
    </contour>
    <contour>
      <point x="236.33333333333334" y="683.0" type="line"/>
      <point x="236.33333333333334" y="1315.6666666666667" type="line"/>
      <point x="587.6666666666666" y="1315.6666666666667" type="line" smooth="yes"/>
      <point x="756.6666666666666" y="1315.6666666666667"/>
      <point x="896.3333333333334" y="1181.0"/>
      <point x="896.3333333333334" y="999.3333333333334" type="curve" smooth="yes"/>
      <point x="896.3333333333334" y="817.6666666666666"/>
      <point x="756.6666666666666" y="683.0"/>
      <point x="587.6666666666666" y="683.0" type="curve" smooth="yes"/>
    </contour>
  </outline>
</glyph>
<glyph name="S" format="2">
  <advance width="1206.25"/>
  <unicode hex="0053"/>
  <outline>
    <contour>
      <point x="602.3333333333334" y="-26.0" type="curve" smooth="yes"/>
      <point x="865.6666666666666" y="-26.0"/>
      <point x="1097.6666666666667" y="123.66666666666667"/>
      <point x="1097.6666666666667" y="357.6666666666667" type="curve" smooth="yes"/>
      <point x="1097.6666666666667" y="587.6666666666666"/>
      <point x="864.0" y="697.6666666666666"/>
      <point x="602.3333333333334" y="745.0" type="curve" smooth="yes"/>
      <point x="371.3333333333333" y="787.6666666666666"/>
      <point x="198.66666666666669" y="832.6666666666666"/>
      <point x="198.66666666666669" y="1035.3333333333333" type="curve" smooth="yes"/>
      <point x="198.66666666666669" y="1211.3333333333333"/>
      <point x="388.3333333333333" y="1329.0"/>
      <point x="602.3333333333334" y="1328.6666666666667" type="curve" smooth="yes"/>
      <point x="777.6666666666666" y="1328.6666666666667"/>
      <point x="968.6666666666666" y="1249.6666666666667"/>
      <point x="1020.3333333333334" y="1104.3333333333333" type="curve"/>
      <point x="1106.3333333333333" y="1134.6666666666667" type="line"/>
      <point x="1036.3333333333333" y="1318.6666666666667"/>
      <point x="813.6666666666666" y="1419.0"/>
      <point x="602.3333333333334" y="1419.0" type="curve" smooth="yes"/>
      <point x="341.3333333333333" y="1419.0"/>
      <point x="108.66666666666667" y="1269.3333333333333"/>
      <point x="108.66666666666667" y="1035.3333333333333" type="curve" smooth="yes"/>
      <point x="108.66666666666667" y="780.6666666666666"/>
      <point x="321.0" y="702.6666666666666"/>
      <point x="602.3333333333334" y="651.6666666666666" type="curve" smooth="yes"/>
      <point x="805.3333333333334" y="614.6666666666666"/>
      <point x="1007.6666666666666" y="539.6666666666666"/>
      <point x="1007.6666666666666" y="357.6666666666667" type="curve" smooth="yes"/>
      <point x="1007.6666666666666" y="179.66666666666669"/>
      <point x="815.0" y="64.0"/>
      <point x="602.3333333333334" y="64.0" type="curve" smooth="yes"/>
      <point x="426.6666666666667" y="64.0"/>
      <point x="235.66666666666669" y="143.33333333333334"/>
      <point x="184.33333333333334" y="288.6666666666667" type="curve"/>
      <point x="100.0" y="256.6666666666667" type="line"/>
      <point x="161.66666666666666" y="79.66666666666667"/>
      <point x="382.0" y="-26.0"/>
    </contour>
  </outline>
</glyph>
<glyph name="T" format="2">
  <advance width="1258.25"/>
  <unicode hex="0054"/>
  <outline>
    <contour>
      <point x="1178.3333333333333" y="1400.0" type="line"/>
      <point x="80.0" y="1400.0" type="line"/>
      <point x="80.0" y="1310.0" type="line"/>
      <point x="583.3333333333334" y="1310.0" type="line"/>
      <point x="583.3333333333334" y="0.0" type="line"/>
      <point x="673.3333333333334" y="0.0" type="line"/>
      <point x="673.3333333333334" y="1310.0" type="line"/>
      <point x="1178.3333333333333" y="1310.0" type="line"/>
    </contour>
  </outline>
</glyph>
<glyph name="U" format="2">
  <advance width="1309.75"/>
  <unicode hex="0055"/>
  <outline>
    <contour>
      <point x="655.0" y="-26.0" type="curve" smooth="yes"/>
      <point x="991.0" y="-26.0"/>
      <point x="1189.6666666666667" y="246.0"/>
      <point x="1189.6666666666667" y="584.0" type="curve" smooth="yes"/>
      <point x="1189.6666666666667" y="1400.0" type="line"/>
      <point x="1099.6666666666667" y="1400.0" type="line"/>
      <point x="1099.6666666666667" y="584.0" type="line" smooth="yes"/>
      <point x="1099.6666666666667" y="303.6666666666667"/>
      <point x="946.0" y="64.0"/>
      <point x="655.0" y="64.0" type="curve" smooth="yes"/>
      <point x="367.6666666666667" y="64.0"/>
      <point x="210.0" y="300.3333333333333"/>
      <point x="210.0" y="584.0" type="curve" smooth="yes"/>
      <point x="210.0" y="1400.0" type="line"/>
      <point x="120.0" y="1400.0" type="line"/>
      <point x="120.0" y="584.0" type="line" smooth="yes"/>
      <point x="120.0" y="246.0"/>
      <point x="319.0" y="-26.0"/>
    </contour>
  </outline>
</glyph>
<glyph name="V" format="2">
  <advance width="1158.75"/>
  <unicode hex="0056"/>
  <outline>
    <contour>
      <point x="528.0" y="0.0" type="line"/>
      <point x="629.0" y="0.0" type="line"/>
      <point x="1138.6666666666667" y="1400.0" type="line"/>
      <point x="1043.0" y="1400.0" type="line"/>
      <point x="578.6666666666666" y="123.66666666666667" type="line"/>
      <point x="115.66666666666667" y="1400.0" type="line"/>
      <point x="20.0" y="1400.0" type="line"/>
    </contour>
  </outline>
</glyph>
<glyph name="W" format="2">
  <advance width="1743.0"/>
  <unicode hex="0057"/>
  <outline>
    <contour>
      <point x="458.0" y="0.0" type="line"/>
      <point x="568.6666666666666" y="0.0" type="line"/>
      <point x="871.6666666666666" y="1184.6666666666667" type="line"/>
      <point x="1174.6666666666667" y="0.0" type="line"/>
      <point x="1287.0" y="0.0" type="line"/>
      <point x="1643.0" y="1400.0" type="line"/>
      <point x="1550.0" y="1400.0" type="line"/>
      <point x="1230.6666666666667" y="144.33333333333334" type="line"/>
      <point x="909.6666666666666" y="1400.0" type="line"/>
      <point x="833.3333333333334" y="1400.0" type="line"/>
      <point x="514.0" y="144.33333333333334" type="line"/>
      <point x="193.0" y="1400.0" type="line"/>
      <point x="100.0" y="1400.0" type="line"/>
    </contour>
  </outline>
</glyph>
<glyph name="X" format="2">
  <advance width="1257.0"/>
  <unicode hex="0058"/>
  <outline>
    <contour>
      <point x="60.0" y="0.0" type="line"/>
      <point x="173.0" y="0.0" type="line"/>
      <point x="628.6666666666666" y="626.6666666666666" type="line"/>
      <point x="1085.6666666666667" y="0.0" type="line"/>
      <point x="1197.0" y="0.0" type="line"/>
      <point x="685.0" y="704.0" type="line"/>
      <point x="1193.0" y="1402.0" type="line"/>
      <point x="1082.0" y="1402.0" type="line"/>
      <point x="628.6666666666666" y="779.6666666666666" type="line"/>
      <point x="175.0" y="1402.0" type="line"/>
      <point x="64.0" y="1402.0" type="line"/>
      <point x="573.6666666666666" y="704.0" type="line"/>
    </contour>
  </outline>
</glyph>
<glyph name="Y" format="2">
  <advance width="1143.5"/>
  <unicode hex="0059"/>
  <outline>
    <contour>
      <point x="978.0" y="1400.0" type="line"/>
      <point x="571.6666666666666" y="733.6666666666666" type="line"/>
      <point x="165.66666666666669" y="1400.0" type="line"/>
      <point x="60.0" y="1400.0" type="line"/>
      <point x="526.6666666666666" y="635.3333333333334" type="line"/>
      <point x="526.6666666666666" y="0.0" type="line"/>
      <point x="616.6666666666666" y="0.0" type="line"/>
      <point x="616.6666666666666" y="635.3333333333334" type="line"/>
      <point x="1083.6666666666667" y="1400.0" type="line"/>
    </contour>
  </outline>
</glyph>
<glyph name="Z" format="2">
  <advance width="1372.0"/>
  <unicode hex="005A"/>
  <outline>
    <contour>
      <point x="120.0" y="0.0" type="line"/>
      <point x="1252.0" y="0.0" type="line"/>
      <point x="1252.0" y="90.0" type="line"/>
      <point x="239.0" y="90.0" type="line"/>
      <point x="1252.0" y="1310.0" type="line"/>
      <point x="1252.0" y="1400.0" type="line"/>
      <point x="120.0" y="1400.0" type="line"/>
      <point x="120.0" y="1310.0" type="line"/>
      <point x="1133.0" y="1310.0" type="line"/>
      <point x="120.0" y="90.0" type="line"/>
    </contour>
  </outline>
</glyph>
<glyph name="bracketleft" format="2">
  <advance width="489.5"/>
  <unicode hex="005B"/>
  <outline>
    <contour>
      <point x="389.6666666666667" y="-22.0" type="line"/>
      <point x="210.0" y="-22.0" type="line"/>
      <point x="210.0" y="1310.0" type="line"/>
      <point x="389.6666666666667" y="1310.0" type="line"/>
      <point x="389.6666666666667" y="1400.0" type="line"/>
      <point x="120.0" y="1400.0" type="line"/>
      <point x="120.0" y="-112.0" type="line"/>
      <point x="389.6666666666667" y="-112.0" type="line"/>
    </contour>
  </outline>
</glyph>
<glyph name="backslash" format="2">
  <advance width="655.75"/>
  <unicode hex="005C"/>
  <outline>
    <contour>
      <point x="485.6666666666667" y="-112.0" type="line"/>
      <point x="575.6666666666666" y="-112.0" type="line"/>
      <point x="170.0" y="1400.0" type="line"/>
      <point x="80.0" y="1400.0" type="line"/>
    </contour>
  </outline>
</glyph>
<glyph name="bracketright" format="2">
  <advance width="489.75"/>
  <unicode hex="005D"/>
  <outline>
    <contour>
      <point x="100.0" y="-112.0" type="line"/>
      <point x="369.6666666666667" y="-112.0" type="line"/>
      <point x="369.6666666666667" y="1400.0" type="line"/>
      <point x="100.0" y="1400.0" type="line"/>
      <point x="100.0" y="1310.0" type="line"/>
      <point x="279.6666666666667" y="1310.0" type="line"/>
      <point x="279.6666666666667" y="-22.0" type="line"/>
      <point x="100.0" y="-22.0" type="line"/>
    </contour>
  </outline>
</glyph>
<glyph name="asciicircum" format="2">
  <advance width="702.0"/>
  <unicode hex="005E"/>
  <outline>
    <contour>
      <point x="80.0" y="1000.0" type="line"/>
      <point x="174.33333333333334" y="1000.0" type="line"/>
      <point x="351.0" y="1482.6666666666667" type="line"/>
      <point x="526.0" y="1000.0" type="line"/>
      <point x="622.0" y="1000.0" type="line"/>
      <point x="386.0" y="1650.0" type="line"/>
      <point x="316.0" y="1650.0" type="line"/>
    </contour>
  </outline>
</glyph>
<glyph name="grave" format="2">
  <advance width="970.0"/>
  <unicode hex="0060"/>
  <outline>
    <contour>
      <point x="320.0" y="1426.0" type="line"/>
      <point x="452.6666666666667" y="1138.0" type="line"/>
      <point x="490.0" y="1138.0" type="line"/>
      <point x="410.0" y="1426.0" type="line"/>
    </contour>
  </outline>
</glyph>
<glyph name="a" format="2">
  <advance width="1194.75"/>
  <unicode hex="0061"/>
  <outline>
    <contour>
      <point x="984.6666666666666" y="1000.0" type="line"/>
      <point x="986.6666666666666" y="785.0" type="line"/>
      <point x="914.3333333333334" y="930.3333333333334"/>
      <point x="778.3333333333334" y="1028.0"/>
      <point x="594.3333333333334" y="1028.0" type="curve"/>
      <point x="305.0" y="1028.0"/>
      <point x="70.0" y="792.6666666666666"/>
      <point x="70.33333333333333" y="501.6666666666667" type="curve"/>
      <point x="70.0" y="210.66666666666666"/>
      <point x="306.6666666666667" y="-26.0"/>
      <point x="597.6666666666666" y="-26.0" type="curve"/>
      <point x="780.0" y="-26.0"/>
      <point x="913.6666666666666" y="70.66666666666667"/>
      <point x="983.0" y="216.0" type="curve"/>
      <point x="984.6666666666666" y="0.0" type="line"/>
      <point x="1074.6666666666667" y="0.0" type="line"/>
      <point x="1074.6666666666667" y="1000.0" type="line"/>
    </contour>
    <contour>
      <point x="599.0" y="62.66666666666667" type="curve"/>
      <point x="365.6666666666667" y="62.66666666666667"/>
      <point x="163.33333333333334" y="253.66666666666666"/>
      <point x="160.66666666666669" y="498.3333333333333" type="curve"/>
      <point x="158.66666666666669" y="741.6666666666666"/>
      <point x="352.3333333333333" y="939.3333333333334"/>
      <point x="594.0" y="939.3333333333334" type="curve"/>
      <point x="831.0" y="939.3333333333334"/>
      <point x="976.0" y="746.6666666666666"/>
      <point x="978.3333333333334" y="501.6666666666667" type="curve"/>
      <point x="980.3333333333334" y="260.6666666666667"/>
      <point x="841.0" y="62.66666666666667"/>
    </contour>
  </outline>
</glyph>
<glyph name="b" format="2">
  <advance width="1184.75"/>
  <unicode hex="0062"/>
  <outline>
    <contour>
      <point x="598.6666666666666" y="1028.0" type="curve"/>
      <point x="415.6666666666667" y="1028.0"/>
      <point x="280.6666666666667" y="930.6666666666666"/>
      <point x="210.0" y="785.6666666666666" type="curve"/>
      <point x="210.0" y="1500.0" type="line"/>
      <point x="120.0" y="1500.0" type="line"/>
      <point x="120.0" y="0.0" type="line"/>
      <point x="210.0" y="0.0" type="line"/>
      <point x="210.0" y="216.66666666666666" type="line"/>
      <point x="280.6666666666667" y="71.33333333333333"/>
      <point x="415.6666666666667" y="-26.0"/>
      <point x="598.6666666666666" y="-26.0" type="curve"/>
      <point x="888.6666666666666" y="-26.0"/>
      <point x="1124.6666666666667" y="210.0"/>
      <point x="1124.6666666666667" y="500.3333333333333" type="curve"/>
      <point x="1124.6666666666667" y="792.0"/>
      <point x="888.6666666666666" y="1028.0"/>
    </contour>
    <contour>
      <point x="598.0" y="62.66666666666667" type="curve"/>
      <point x="360.6666666666667" y="62.66666666666667"/>
      <point x="216.66666666666669" y="256.3333333333333"/>
      <point x="216.66666666666669" y="500.3333333333333" type="curve"/>
      <point x="216.66666666666669" y="740.6666666666666"/>
      <point x="357.0" y="939.6666666666666"/>
      <point x="598.0" y="939.6666666666666" type="curve"/>
      <point x="832.3333333333334" y="939.6666666666666"/>
      <point x="1033.6666666666667" y="747.6666666666666"/>
      <point x="1033.6666666666667" y="500.3333333333333" type="curve"/>
      <point x="1033.6666666666667" y="259.6666666666667"/>
      <point x="839.3333333333334" y="62.66666666666667"/>
    </contour>
  </outline>
</glyph>
<glyph name="c" format="2">
  <advance width="1018.25"/>
  <unicode hex="0063"/>
  <outline>
    <contour>
      <point x="879.0" y="226.66666666666666" type="line"/>
      <point x="806.3333333333334" y="131.33333333333334"/>
      <point x="688.6666666666666" y="64.0"/>
      <point x="560.0" y="64.0" type="curve"/>
      <point x="334.0" y="64.0"/>
      <point x="150.0" y="259.6666666666667"/>
      <point x="150.0" y="500.0" type="curve"/>
      <point x="150.0" y="737.3333333333334"/>
      <point x="328.6666666666667" y="938.0"/>
      <point x="560.0" y="938.0" type="curve"/>
      <point x="678.0" y="938.0"/>
      <point x="799.3333333333334" y="879.6666666666666"/>
      <point x="879.0" y="775.3333333333334" type="curve"/>
      <point x="958.3333333333334" y="818.0" type="line"/>
      <point x="868.0" y="946.0"/>
      <point x="722.3333333333334" y="1028.0"/>
      <point x="560.0" y="1028.0" type="curve"/>
      <point x="284.0" y="1028.0"/>
      <point x="60.0" y="792.0"/>
      <point x="60.0" y="500.0" type="curve"/>
      <point x="60.0" y="210.0"/>
      <point x="284.0" y="-26.0"/>
      <point x="560.0" y="-26.0" type="curve"/>
      <point x="722.3333333333334" y="-26.0"/>
      <point x="868.0" y="56.0"/>
      <point x="958.3333333333334" y="183.66666666666666" type="curve"/>
    </contour>
  </outline>
</glyph>
<glyph name="d" format="2">
  <advance width="1208.5"/>
  <unicode hex="0064"/>
  <outline>
    <contour>
      <point x="974.6666666666666" y="1500.0" type="line"/>
      <point x="974.6666666666666" y="785.6666666666666" type="line"/>
      <point x="904.0" y="930.6666666666666"/>
      <point x="769.3333333333334" y="1027.6666666666667"/>
      <point x="586.0" y="1027.6666666666667" type="curve"/>
      <point x="296.0" y="1027.6666666666667"/>
      <point x="60.0" y="791.6666666666666"/>
      <point x="60.0" y="500.0" type="curve"/>
      <point x="60.0" y="210.0"/>
      <point x="296.0" y="-26.0"/>
      <point x="586.0" y="-26.0" type="curve"/>
      <point x="769.3333333333334" y="-26.0"/>
      <point x="904.0" y="71.0"/>
      <point x="974.6666666666666" y="216.33333333333331" type="curve"/>
      <point x="974.6666666666666" y="0.0" type="line"/>
      <point x="1064.6666666666667" y="0.0" type="line"/>
      <point x="1064.6666666666667" y="1500.0" type="line"/>
    </contour>
    <contour>
      <point x="586.6666666666666" y="62.66666666666667" type="curve"/>
      <point x="352.6666666666667" y="62.66666666666667"/>
      <point x="151.0" y="254.33333333333334"/>
      <point x="151.0" y="500.0" type="curve"/>
      <point x="151.0" y="742.3333333333334"/>
      <point x="347.3333333333333" y="939.3333333333334"/>
      <point x="586.6666666666666" y="939.3333333333334" type="curve"/>
      <point x="824.3333333333334" y="939.3333333333334"/>
      <point x="968.0" y="745.6666666666666"/>
      <point x="968.0" y="500.0" type="curve"/>
      <point x="968.0" y="259.6666666666667"/>
      <point x="827.6666666666666" y="62.66666666666667"/>
    </contour>
  </outline>
</glyph>
<glyph name="e" format="2">
  <advance width="1118.25"/>
  <unicode hex="0065"/>
  <outline>
    <contour>
      <point x="560.0" y="-26.0" type="curve" smooth="yes"/>
      <point x="760.0" y="-26.0"/>
      <point x="932.0" y="98.0"/>
      <point x="1012.0" y="276.0" type="curve"/>
      <point x="921.3333333333334" y="297.0" type="line"/>
      <point x="846.6666666666666" y="151.66666666666669"/>
      <point x="716.0" y="64.0"/>
      <point x="560.0" y="64.0" type="curve" smooth="yes"/>
      <point x="347.0" y="64.33333333333334"/>
      <point x="174.0" y="233.66666666666666"/>
      <point x="153.0" y="461.3333333333333" type="curve"/>
      <point x="1057.0" y="461.3333333333333" type="line"/>
      <point x="1059.3333333333333" y="793.3333333333334"/>
      <point x="850.0" y="1028.0"/>
      <point x="560.0" y="1028.0" type="curve" smooth="yes"/>
      <point x="284.0" y="1028.0"/>
      <point x="60.0" y="792.0"/>
      <point x="60.0" y="500.0" type="curve" smooth="yes"/>
      <point x="60.0" y="210.0"/>
      <point x="284.0" y="-26.0"/>
    </contour>
    <contour>
      <point x="151.66666666666669" y="541.3333333333334" type="line"/>
      <point x="169.33333333333334" y="764.0"/>
      <point x="341.0" y="943.0"/>
      <point x="560.0" y="943.0" type="curve" smooth="yes"/>
      <point x="777.3333333333334" y="943.0"/>
      <point x="956.0" y="757.0"/>
      <point x="966.6666666666666" y="541.3333333333334" type="curve"/>
    </contour>
  </outline>
</glyph>
<glyph name="f" format="2">
  <advance width="637.75"/>
  <unicode hex="0066"/>
  <outline>
    <contour>
      <point x="290.0" y="1285.3333333333333" type="line"/>
      <point x="290.0" y="1367.0"/>
      <point x="357.3333333333333" y="1434.0"/>
      <point x="439.0" y="1434.0" type="curve"/>
      <point x="479.6666666666667" y="1434.0"/>
      <point x="518.6666666666666" y="1417.0"/>
      <point x="545.6666666666666" y="1388.3333333333333" type="curve"/>
      <point x="609.6666666666666" y="1451.6666666666667" type="line"/>
      <point x="564.0" y="1498.3333333333333"/>
      <point x="503.0" y="1524.0"/>
      <point x="439.0" y="1524.0" type="curve"/>
      <point x="306.6666666666667" y="1524.0"/>
      <point x="200.0" y="1417.3333333333333"/>
      <point x="200.0" y="1285.3333333333333" type="curve"/>
      <point x="200.0" y="1000.0" type="line"/>
      <point x="50.0" y="1000.0" type="line"/>
      <point x="50.0" y="910.0" type="line"/>
      <point x="200.0" y="910.0" type="line"/>
      <point x="200.0" y="0.0" type="line"/>
      <point x="290.0" y="0.0" type="line"/>
      <point x="290.0" y="910.0" type="line"/>
      <point x="604.0" y="910.0" type="line"/>
      <point x="604.0" y="1000.0" type="line"/>
      <point x="290.0" y="1000.0" type="line"/>
    </contour>
  </outline>
</glyph>
<glyph name="g" format="2">
  <advance width="1150.75"/>
  <unicode hex="0067"/>
  <outline>
    <contour>
      <point x="940.6666666666666" y="1000.0" type="line"/>
      <point x="940.6666666666666" y="787.6666666666666" type="line"/>
      <point x="868.6666666666666" y="931.0"/>
      <point x="735.6666666666666" y="1027.6666666666667"/>
      <point x="563.3333333333334" y="1027.6666666666667" type="curve" smooth="yes"/>
      <point x="285.6666666666667" y="1027.6666666666667"/>
      <point x="60.0" y="791.6666666666666"/>
      <point x="60.0" y="500.0" type="curve" smooth="yes"/>
      <point x="60.0" y="210.0"/>
      <point x="285.6666666666667" y="-26.0"/>
      <point x="563.3333333333334" y="-26.0" type="curve" smooth="yes"/>
      <point x="735.6666666666666" y="-26.0"/>
      <point x="868.6666666666666" y="70.66666666666667"/>
      <point x="940.6666666666666" y="214.0" type="curve"/>
      <point x="940.6666666666666" y="-45.0" type="line" smooth="yes"/>
      <point x="940.6666666666666" y="-236.33333333333334"/>
      <point x="747.6666666666666" y="-409.6666666666667"/>
      <point x="550.3333333333334" y="-409.6666666666667" type="curve" smooth="yes"/>
      <point x="382.6666666666667" y="-409.6666666666667"/>
      <point x="205.66666666666669" y="-272.0"/>
      <point x="170.66666666666669" y="-103.33333333333333" type="curve"/>
      <point x="87.66666666666667" y="-141.66666666666666" type="line"/>
      <point x="138.66666666666666" y="-335.0"/>
      <point x="341.6666666666667" y="-500.0"/>
      <point x="550.3333333333334" y="-500.0" type="curve" smooth="yes"/>
      <point x="794.6666666666666" y="-500.0"/>
      <point x="1030.6666666666667" y="-286.0"/>
      <point x="1030.6666666666667" y="-45.0" type="curve" smooth="yes"/>
      <point x="1030.6666666666667" y="1000.0" type="line"/>
    </contour>
    <contour>
      <point x="563.6666666666666" y="62.66666666666667" type="curve" smooth="yes"/>
      <point x="338.6666666666667" y="62.66666666666667"/>
      <point x="151.0" y="256.0"/>
      <point x="151.0" y="500.0" type="curve" smooth="yes"/>
      <point x="151.0" y="742.3333333333334"/>
      <point x="333.3333333333333" y="939.3333333333334"/>
      <point x="563.6666666666666" y="939.3333333333334" type="curve" smooth="yes"/>
      <point x="792.6666666666666" y="939.3333333333334"/>
      <point x="936.6666666666666" y="738.6666666666666"/>
      <point x="936.6666666666666" y="500.0" type="curve" smooth="yes"/>
      <point x="936.6666666666666" y="266.6666666666667"/>
      <point x="796.3333333333334" y="62.66666666666667"/>
    </contour>
  </outline>
</glyph>
<glyph name="h" format="2">
  <advance width="1055.5"/>
  <unicode hex="0068"/>
  <outline>
    <contour>
      <point x="975.6666666666666" y="547.6666666666666" type="line"/>
      <point x="971.6666666666666" y="804.3333333333334"/>
      <point x="795.6666666666666" y="1027.6666666666667"/>
      <point x="549.6666666666666" y="1027.6666666666667" type="curve"/>
      <point x="407.6666666666667" y="1027.6666666666667"/>
      <point x="286.6666666666667" y="951.6666666666666"/>
      <point x="210.0" y="813.6666666666666" type="curve"/>
      <point x="210.0" y="1500.0" type="line"/>
      <point x="120.0" y="1500.0" type="line"/>
      <point x="120.0" y="0.0" type="line"/>
      <point x="210.33333333333334" y="0.0" type="line"/>
      <point x="210.33333333333334" y="543.6666666666666" type="line"/>
      <point x="210.33333333333334" y="761.6666666666666"/>
      <point x="357.6666666666667" y="939.3333333333334"/>
      <point x="545.6666666666666" y="939.3333333333334" type="curve"/>
      <point x="732.6666666666666" y="939.3333333333334"/>
      <point x="885.6666666666666" y="761.6666666666666"/>
      <point x="885.6666666666666" y="543.6666666666666" type="curve"/>
      <point x="885.6666666666666" y="0.0" type="line"/>
      <point x="975.6666666666666" y="0.0" type="line"/>
    </contour>
  </outline>
</glyph>
<glyph name="i" format="2">
  <advance width="356.5"/>
  <unicode hex="0069"/>
  <outline>
    <contour>
      <point x="125.66666666666667" y="1000.0" type="line"/>
      <point x="125.66666666666667" y="0.0" type="line"/>
      <point x="215.66666666666669" y="0.0" type="line"/>
      <point x="215.66666666666669" y="1000.0" type="line"/>
    </contour>
    <contour>
      <point x="177.33333333333334" y="1187.6666666666667" type="curve"/>
      <point x="208.66666666666669" y="1187.6666666666667"/>
      <point x="236.33333333333334" y="1216.6666666666667"/>
      <point x="236.33333333333334" y="1244.6666666666667" type="curve"/>
      <point x="236.33333333333334" y="1276.0"/>
      <point x="208.66666666666669" y="1303.6666666666667"/>
      <point x="177.33333333333334" y="1303.6666666666667" type="curve"/>
      <point x="146.0" y="1303.6666666666667"/>
      <point x="120.0" y="1276.0"/>
      <point x="120.0" y="1244.6666666666667" type="curve"/>
      <point x="120.0" y="1216.6666666666667"/>
      <point x="146.0" y="1187.6666666666667"/>
    </contour>
  </outline>
</glyph>
<glyph name="j" format="2">
  <advance width="463.25"/>
  <unicode hex="006A"/>
  <outline>
    <contour>
      <point x="-80.0" y="-500.0" type="line"/>
      <point x="138.33333333333334" y="-500.0"/>
      <point x="299.3333333333333" y="-337.0"/>
      <point x="299.3333333333333" y="-133.0" type="curve"/>
      <point x="299.3333333333333" y="1000.0" type="line"/>
      <point x="209.33333333333331" y="1000.0" type="line"/>
      <point x="209.33333333333331" y="-133.0" type="line"/>
      <point x="209.33333333333331" y="-290.3333333333333"/>
      <point x="85.66666666666666" y="-410.0"/>
      <point x="-80.0" y="-410.0" type="curve"/>
    </contour>
    <contour>
      <point x="254.33333333333334" y="1187.6666666666667" type="curve"/>
      <point x="285.6666666666667" y="1187.6666666666667"/>
      <point x="313.3333333333333" y="1213.6666666666667"/>
      <point x="313.3333333333333" y="1244.6666666666667" type="curve"/>
      <point x="313.3333333333333" y="1276.3333333333333"/>
      <point x="285.6666666666667" y="1303.6666666666667"/>
      <point x="254.33333333333334" y="1303.6666666666667" type="curve"/>
      <point x="222.66666666666666" y="1303.6666666666667"/>
      <point x="197.0" y="1276.3333333333333"/>
      <point x="197.0" y="1244.6666666666667" type="curve"/>
      <point x="197.0" y="1213.6666666666667"/>
      <point x="222.66666666666666" y="1187.6666666666667"/>
    </contour>
  </outline>
</glyph>
<glyph name="k" format="2">
  <advance width="965.75"/>
  <unicode hex="006B"/>
  <outline>
    <contour>
      <point x="872.6666666666666" y="0.0" type="line"/>
      <point x="525.6666666666666" y="600.3333333333334" type="line"/>
      <point x="862.6666666666666" y="1000.0" type="line"/>
      <point x="745.6666666666666" y="1000.0" type="line"/>
      <point x="236.33333333333334" y="393.33333333333337" type="line"/>
      <point x="236.33333333333334" y="1500.0" type="line"/>
      <point x="146.33333333333334" y="1500.0" type="line"/>
      <point x="146.33333333333334" y="0.0" type="line"/>
      <point x="236.33333333333334" y="0.0" type="line"/>
      <point x="236.33333333333334" y="252.66666666666666" type="line"/>
      <point x="465.0" y="526.0" type="line"/>
      <point x="770.0" y="0.0" type="line"/>
    </contour>
  </outline>
</glyph>
<glyph name="l" format="2">
  <advance width="382.5"/>
  <unicode hex="006C"/>
  <outline>
    <contour>
      <point x="146.33333333333334" y="1.6666666666666665" type="line"/>
      <point x="236.33333333333334" y="1.6666666666666665" type="line"/>
      <point x="236.33333333333334" y="1500.0" type="line"/>
      <point x="146.33333333333334" y="1500.0" type="line"/>
    </contour>
  </outline>
</glyph>
<glyph name="m" format="2">
  <advance width="1698.75"/>
  <unicode hex="006D"/>
  <outline>
    <contour>
      <point x="97.66666666666667" y="0.0" type="line"/>
      <point x="187.66666666666669" y="0.0" type="line"/>
      <point x="187.66666666666669" y="530.3333333333334" type="line" smooth="yes"/>
      <point x="187.66666666666669" y="743.3333333333334"/>
      <point x="309.0" y="935.0"/>
      <point x="487.3333333333333" y="935.0" type="curve" smooth="yes"/>
      <point x="681.0" y="935.0"/>
      <point x="804.3333333333334" y="761.0"/>
      <point x="804.3333333333334" y="547.6666666666666" type="curve" smooth="yes"/>
      <point x="804.3333333333334" y="0.0" type="line"/>
      <point x="894.3333333333334" y="0.0" type="line"/>
      <point x="894.3333333333334" y="547.6666666666666" type="line" smooth="yes"/>
      <point x="894.3333333333334" y="761.0"/>
      <point x="1017.6666666666666" y="935.0"/>
      <point x="1211.6666666666667" y="935.0" type="curve" smooth="yes"/>
      <point x="1405.3333333333333" y="935.0"/>
      <point x="1511.3333333333333" y="761.0"/>
      <point x="1511.3333333333333" y="547.6666666666666" type="curve" smooth="yes"/>
      <point x="1511.3333333333333" y="0.0" type="line"/>
      <point x="1601.3333333333333" y="0.0" type="line"/>
      <point x="1601.3333333333333" y="547.6666666666666" type="line" smooth="yes"/>
      <point x="1601.3333333333333" y="804.3333333333334"/>
      <point x="1461.0" y="1025.0"/>
      <point x="1211.6666666666667" y="1025.0" type="curve" smooth="yes"/>
      <point x="1035.6666666666667" y="1025.0"/>
      <point x="914.6666666666666" y="925.0"/>
      <point x="849.3333333333334" y="760.6666666666666" type="curve"/>
      <point x="784.3333333333334" y="921.3333333333334"/>
      <point x="668.6666666666666" y="1025.0"/>
      <point x="487.3333333333333" y="1025.0" type="curve" smooth="yes"/>
      <point x="339.6666666666667" y="1025.0"/>
      <point x="260.6666666666667" y="941.3333333333334"/>
      <point x="187.66666666666669" y="812.0" type="curve"/>
      <point x="187.66666666666669" y="1000.0" type="line"/>
      <point x="97.66666666666667" y="1000.0" type="line"/>
    </contour>
  </outline>
</glyph>
<glyph name="n" format="2">
  <advance width="1060.25"/>
  <unicode hex="006E"/>
  <outline>
    <contour>
      <point x="960.3333333333334" y="548.0" type="line"/>
      <point x="956.6666666666666" y="804.6666666666666"/>
      <point x="780.6666666666666" y="1028.0"/>
      <point x="534.6666666666666" y="1028.0" type="curve"/>
      <point x="391.6666666666667" y="1028.0"/>
      <point x="269.6666666666667" y="946.6666666666666"/>
      <point x="190.0" y="810.0" type="curve"/>
      <point x="190.0" y="1000.0" type="line"/>
      <point x="100.0" y="1000.0" type="line"/>
      <point x="100.0" y="0.0" type="line"/>
      <point x="190.0" y="0.0" type="line"/>
      <point x="190.0" y="544.0" type="line"/>
      <point x="190.0" y="761.6666666666666"/>
      <point x="340.3333333333333" y="939.6666666666666"/>
      <point x="528.0" y="939.6666666666666" type="curve"/>
      <point x="717.6666666666666" y="939.6666666666666"/>
      <point x="870.3333333333334" y="761.6666666666666"/>
      <point x="870.3333333333334" y="544.0" type="curve"/>
      <point x="870.3333333333334" y="0.0" type="line"/>
      <point x="960.3333333333334" y="0.0" type="line"/>
    </contour>
  </outline>
</glyph>
<glyph name="o" format="2">
  <advance width="1120.0"/>
  <unicode hex="006F"/>
  <outline>
    <contour>
      <point x="560.0" y="-26.0" type="curve" smooth="yes"/>
      <point x="836.0" y="-26.0"/>
      <point x="1060.0" y="210.0"/>
      <point x="1060.0" y="500.0" type="curve" smooth="yes"/>
      <point x="1060.0" y="792.0"/>
      <point x="836.0" y="1028.0"/>
      <point x="560.0" y="1028.0" type="curve" smooth="yes"/>
      <point x="284.0" y="1028.0"/>
      <point x="60.0" y="792.0"/>
      <point x="60.0" y="500.0" type="curve" smooth="yes"/>
      <point x="60.0" y="210.0"/>
      <point x="284.0" y="-26.0"/>
    </contour>
    <contour>
      <point x="560.0" y="64.0" type="curve" smooth="yes"/>
      <point x="336.6666666666667" y="64.0"/>
      <point x="150.0" y="256.6666666666667"/>
      <point x="150.0" y="500.0" type="curve" smooth="yes"/>
      <point x="150.0" y="735.6666666666666"/>
      <point x="327.3333333333333" y="938.0"/>
      <point x="560.0" y="938.0" type="curve" smooth="yes"/>
      <point x="790.6666666666666" y="938.0"/>
      <point x="970.0" y="736.3333333333334"/>
      <point x="970.0" y="500.0" type="curve" smooth="yes"/>
      <point x="970.0" y="266.0"/>
      <point x="791.3333333333334" y="64.0"/>
    </contour>
  </outline>
</glyph>
<glyph name="p" format="2">
  <advance width="1204.5"/>
  <unicode hex="0070"/>
  <outline>
    <contour>
      <point x="210.0" y="-500.0" type="line"/>
      <point x="210.0" y="214.66666666666666" type="line"/>
      <point x="280.6666666666667" y="69.33333333333333"/>
      <point x="415.3333333333333" y="-28.0"/>
      <point x="598.6666666666666" y="-28.0" type="curve"/>
      <point x="888.6666666666666" y="-28.0"/>
      <point x="1124.6666666666667" y="208.0"/>
      <point x="1124.6666666666667" y="500.0" type="curve"/>
      <point x="1124.6666666666667" y="790.0"/>
      <point x="888.6666666666666" y="1026.0"/>
      <point x="598.6666666666666" y="1026.0" type="curve"/>
      <point x="415.3333333333333" y="1026.0"/>
      <point x="280.6666666666667" y="928.6666666666666"/>
      <point x="210.0" y="783.6666666666666" type="curve"/>
      <point x="210.0" y="1000.0" type="line"/>
      <point x="120.0" y="1000.0" type="line"/>
      <point x="120.0" y="-500.0" type="line"/>
    </contour>
    <contour>
      <point x="598.0" y="937.6666666666666" type="curve"/>
      <point x="839.3333333333334" y="937.6666666666666"/>
      <point x="1033.6666666666667" y="740.3333333333334"/>
      <point x="1033.6666666666667" y="500.0" type="curve"/>
      <point x="1033.6666666666667" y="252.66666666666669"/>
      <point x="832.3333333333334" y="60.66666666666667"/>
      <point x="598.0" y="60.66666666666667" type="curve"/>
      <point x="357.0" y="60.66666666666667"/>
      <point x="216.66666666666669" y="259.6666666666667"/>
      <point x="216.66666666666669" y="500.0" type="curve"/>
      <point x="216.66666666666669" y="743.6666666666666"/>
      <point x="360.6666666666667" y="937.6666666666666"/>
    </contour>
  </outline>
</glyph>
<glyph name="q" format="2">
  <advance width="1204.5"/>
  <unicode hex="0071"/>
  <outline>
    <contour>
      <point x="606.0" y="-28.0" type="curve"/>
      <point x="789.3333333333334" y="-28.0"/>
      <point x="923.6666666666666" y="69.33333333333333"/>
      <point x="994.6666666666666" y="214.66666666666666" type="curve"/>
      <point x="994.6666666666666" y="-500.0" type="line"/>
      <point x="1084.6666666666667" y="-500.0" type="line"/>
      <point x="1084.6666666666667" y="1000.0" type="line"/>
      <point x="994.6666666666666" y="1000.0" type="line"/>
      <point x="994.6666666666666" y="783.6666666666666" type="line"/>
      <point x="923.6666666666666" y="928.6666666666666"/>
      <point x="789.3333333333334" y="1026.0"/>
      <point x="606.0" y="1026.0" type="curve"/>
      <point x="316.0" y="1026.0"/>
      <point x="80.0" y="790.0"/>
      <point x="80.0" y="500.0" type="curve"/>
      <point x="80.0" y="208.0"/>
      <point x="316.0" y="-28.0"/>
    </contour>
    <contour>
      <point x="606.6666666666666" y="937.6666666666666" type="curve"/>
      <point x="844.3333333333334" y="937.6666666666666"/>
      <point x="987.6666666666666" y="743.6666666666666"/>
      <point x="987.6666666666666" y="500.0" type="curve"/>
      <point x="987.6666666666666" y="259.6666666666667"/>
      <point x="847.6666666666666" y="60.66666666666667"/>
      <point x="606.6666666666666" y="60.66666666666667" type="curve"/>
      <point x="372.3333333333333" y="60.66666666666667"/>
      <point x="171.0" y="252.66666666666669"/>
      <point x="171.0" y="500.0" type="curve"/>
      <point x="171.0" y="740.3333333333334"/>
      <point x="365.3333333333333" y="937.6666666666666"/>
    </contour>
  </outline>
</glyph>
<glyph name="r" format="2">
  <advance width="700.75"/>
  <unicode hex="0072"/>
  <outline>
    <contour>
      <point x="656.0" y="917.6666666666666" type="curve"/>
      <point x="670.6666666666666" y="1010.6666666666666" type="line"/>
      <point x="636.0" y="1022.6666666666666"/>
      <point x="597.3333333333334" y="1027.6666666666667"/>
      <point x="556.6666666666666" y="1027.6666666666667" type="curve" smooth="yes"/>
      <point x="413.6666666666667" y="1027.6666666666667"/>
      <point x="289.6666666666667" y="946.6666666666666"/>
      <point x="210.0" y="810.0" type="curve"/>
      <point x="210.0" y="999.6666666666666" type="line"/>
      <point x="120.0" y="999.6666666666666" type="line"/>
      <point x="120.0" y="0.0" type="line"/>
      <point x="210.33333333333334" y="0.0" type="line"/>
      <point x="210.33333333333334" y="543.6666666666666" type="line" smooth="yes"/>
      <point x="210.33333333333334" y="761.6666666666666"/>
      <point x="360.3333333333333" y="939.3333333333334"/>
      <point x="549.6666666666666" y="939.3333333333334" type="curve" smooth="yes"/>
      <point x="588.0" y="939.3333333333334"/>
      <point x="623.6666666666666" y="931.6666666666666"/>
    </contour>
  </outline>
</glyph>
<glyph name="s" format="2">
  <advance width="874.75"/>
  <unicode hex="0073"/>
  <outline>
    <contour>
      <point x="446.0" y="-19.666666666666668" type="curve" smooth="yes"/>
      <point x="635.3333333333334" y="-22.333333333333336"/>
      <point x="811.3333333333334" y="89.66666666666667"/>
      <point x="811.3333333333334" y="263.6666666666667" type="curve" smooth="yes"/>
      <point x="812.0" y="430.3333333333333"/>
      <point x="643.0" y="490.6666666666667"/>
      <point x="457.0" y="550.0" type="curve" smooth="yes"/>
      <point x="285.3333333333333" y="604.3333333333334"/>
      <point x="176.0" y="622.0"/>
      <point x="176.0" y="750.0" type="curve" smooth="yes"/>
      <point x="176.0" y="875.0"/>
      <point x="306.6666666666667" y="950.6666666666666"/>
      <point x="453.6666666666667" y="949.6666666666666" type="curve" smooth="yes"/>
      <point x="570.6666666666666" y="949.0"/>
      <point x="700.0" y="890.3333333333334"/>
      <point x="739.6666666666666" y="793.6666666666666" type="curve"/>
      <point x="814.6666666666666" y="837.6666666666666" type="line"/>
      <point x="762.0" y="954.0"/>
      <point x="615.3333333333334" y="1034.0"/>
      <point x="450.6666666666667" y="1034.0" type="curve" smooth="yes"/>
      <point x="261.3333333333333" y="1034.0"/>
      <point x="88.66666666666667" y="923.6666666666666"/>
      <point x="88.66666666666667" y="749.0" type="curve" smooth="yes"/>
      <point x="88.66666666666667" y="580.6666666666666"/>
      <point x="224.66666666666666" y="531.3333333333334"/>
      <point x="448.0" y="464.6666666666667" type="curve" smooth="yes"/>
      <point x="583.6666666666666" y="423.6666666666667"/>
      <point x="724.3333333333334" y="389.0"/>
      <point x="724.3333333333334" y="263.0" type="curve" smooth="yes"/>
      <point x="724.3333333333334" y="143.0"/>
      <point x="593.3333333333334" y="64.33333333333334"/>
      <point x="450.3333333333333" y="64.33333333333334" type="curve" smooth="yes"/>
      <point x="330.3333333333333" y="64.33333333333334"/>
      <point x="176.33333333333334" y="133.33333333333334"/>
      <point x="140.66666666666669" y="230.66666666666666" type="curve"/>
      <point x="60.0" y="196.0" type="line"/>
      <point x="104.66666666666667" y="74.66666666666667"/>
      <point x="276.6666666666667" y="-18.0"/>
    </contour>
  </outline>
</glyph>
<glyph name="t" format="2">
  <advance width="677.5"/>
  <unicode hex="0074"/>
  <outline>
    <contour>
      <point x="619.3333333333334" y="910.0" type="line"/>
      <point x="619.3333333333334" y="1000.0" type="line"/>
      <point x="358.3333333333333" y="1000.0" type="line"/>
      <point x="356.6666666666667" y="1314.0" type="line"/>
      <point x="266.6666666666667" y="1314.0" type="line"/>
      <point x="268.3333333333333" y="1000.0" type="line"/>
      <point x="71.66666666666667" y="1000.0" type="line"/>
      <point x="71.66666666666667" y="910.0" type="line"/>
      <point x="268.3333333333333" y="910.0" type="line"/>
      <point x="266.6666666666667" y="0.0" type="line"/>
      <point x="356.6666666666667" y="0.0" type="line"/>
      <point x="358.3333333333333" y="910.0" type="line"/>
    </contour>
  </outline>
</glyph>
<glyph name="u" format="2">
  <advance width="1100.25"/>
  <unicode hex="0075"/>
  <outline>
    <contour>
      <point x="120.0" y="454.0" type="line"/>
      <point x="123.66666666666667" y="197.33333333333334"/>
      <point x="299.6666666666667" y="-26.333333333333332"/>
      <point x="545.6666666666666" y="-26.333333333333332" type="curve"/>
      <point x="688.6666666666666" y="-26.333333333333332"/>
      <point x="810.6666666666666" y="55.33333333333333"/>
      <point x="890.3333333333334" y="191.66666666666666" type="curve"/>
      <point x="890.3333333333334" y="0.0" type="line"/>
      <point x="980.3333333333334" y="0.0" type="line"/>
      <point x="980.3333333333334" y="1000.0" type="line"/>
      <point x="890.3333333333334" y="1000.0" type="line"/>
      <point x="890.3333333333334" y="458.0" type="line"/>
      <point x="890.3333333333334" y="240.33333333333334"/>
      <point x="740.0" y="62.66666666666667"/>
      <point x="552.3333333333334" y="62.66666666666667" type="curve"/>
      <point x="362.6666666666667" y="62.66666666666667"/>
      <point x="210.0" y="240.33333333333334"/>
      <point x="210.0" y="458.0" type="curve"/>
      <point x="210.0" y="1000.0" type="line"/>
      <point x="120.0" y="1000.0" type="line"/>
    </contour>
  </outline>
</glyph>
<glyph name="v" format="2">
  <advance width="963.0"/>
  <unicode hex="0076"/>
  <outline>
    <contour>
      <point x="537.3333333333334" y="0.0" type="line"/>
      <point x="903.0" y="1003.6666666666666" type="line"/>
      <point x="807.0" y="1003.6666666666666" type="line"/>
      <point x="481.6666666666667" y="107.66666666666667" type="line"/>
      <point x="156.0" y="1003.6666666666666" type="line"/>
      <point x="60.0" y="1003.6666666666666" type="line"/>
      <point x="425.6666666666667" y="0.0" type="line"/>
    </contour>
  </outline>
</glyph>
<glyph name="w" format="2">
  <advance width="1587.0"/>
  <unicode hex="0077"/>
  <outline>
    <contour>
      <point x="492.0" y="0.0" type="line"/>
      <point x="791.6666666666666" y="892.6666666666666" type="line"/>
      <point x="1093.3333333333333" y="0.0" type="line"/>
      <point x="1191.3333333333333" y="0.0" type="line"/>
      <point x="1527.0" y="1001.6666666666666" type="line"/>
      <point x="1437.6666666666667" y="1001.6666666666666" type="line"/>
      <point x="1141.3333333333333" y="117.66666666666667" type="line"/>
      <point x="845.0" y="1001.6666666666666" type="line"/>
      <point x="742.0" y="1001.6666666666666" type="line"/>
      <point x="445.6666666666667" y="117.66666666666667" type="line"/>
      <point x="147.66666666666669" y="1001.6666666666666" type="line"/>
      <point x="60.0" y="1001.6666666666666" type="line"/>
      <point x="395.6666666666667" y="0.0" type="line"/>
    </contour>
  </outline>
</glyph>
<glyph name="x" format="2">
  <advance width="1003.0"/>
  <unicode hex="0078"/>
  <outline>
    <contour>
      <point x="80.0" y="0.0" type="line"/>
      <point x="191.0" y="0.0" type="line"/>
      <point x="502.3333333333333" y="426.6666666666667" type="line"/>
      <point x="812.0" y="0.0" type="line"/>
      <point x="923.0" y="0.0" type="line"/>
      <point x="557.0" y="502.0" type="line"/>
      <point x="922.6666666666666" y="1003.6666666666666" type="line"/>
      <point x="811.6666666666666" y="1003.6666666666666" type="line"/>
      <point x="502.3333333333333" y="579.6666666666666" type="line"/>
      <point x="191.66666666666669" y="1003.6666666666666" type="line"/>
      <point x="80.66666666666667" y="1003.6666666666666" type="line"/>
      <point x="446.0" y="502.0" type="line"/>
    </contour>
  </outline>
</glyph>
<glyph name="y" format="2">
  <advance width="978.5"/>
  <unicode hex="0079"/>
  <outline>
    <contour>
      <point x="804.3333333333334" y="1000.0" type="line"/>
      <point x="483.3333333333333" y="124.66666666666667" type="line"/>
      <point x="178.66666666666669" y="1000.0" type="line"/>
      <point x="80.0" y="1000.0" type="line"/>
      <point x="438.3333333333333" y="1.6666666666666665" type="line"/>
      <point x="256.6666666666667" y="-500.0" type="line"/>
      <point x="352.33333333333337" y="-500.0" type="line"/>
      <point x="898.6666666666666" y="1000.0" type="line"/>
    </contour>
  </outline>
</glyph>
<glyph name="z" format="2">
  <advance width="1059.0"/>
  <unicode hex="007A"/>
  <outline>
    <contour>
      <point x="956.6666666666666" y="910.0" type="line"/>
      <point x="956.6666666666666" y="1000.0" type="line"/>
      <point x="102.66666666666667" y="1000.0" type="line"/>
      <point x="102.66666666666667" y="910.0" type="line"/>
      <point x="832.3333333333334" y="910.0" type="line"/>
      <point x="102.66666666666667" y="90.0" type="line"/>
      <point x="102.66666666666667" y="0.0" type="line"/>
      <point x="956.6666666666666" y="0.0" type="line"/>
      <point x="956.6666666666666" y="90.0" type="line"/>
      <point x="226.66666666666669" y="90.0" type="line"/>
    </contour>
  </outline>
</glyph>
<glyph name="braceleft" format="2">
  <advance width="795.0"/>
  <unicode hex="007B"/>
  <outline>
    <contour>
      <point x="637.3333333333334" y="-113.66666666666667" type="curve" smooth="yes"/>
      <point x="695.0" y="-113.66666666666667" type="line"/>
      <point x="695.0" y="-23.666666666666664" type="line"/>
      <point x="637.3333333333334" y="-23.666666666666664" type="line" smooth="yes"/>
      <point x="493.6666666666667" y="-23.666666666666664"/>
      <point x="377.3333333333333" y="92.66666666666667"/>
      <point x="377.3333333333333" y="236.33333333333334" type="curve" smooth="yes"/>
      <point x="377.3333333333333" y="485.3333333333333" type="line" smooth="yes"/>
      <point x="373.3333333333333" y="568.6666666666666"/>
      <point x="346.0" y="575.3333333333334"/>
      <point x="244.66666666666669" y="642.3333333333334" type="curve" smooth="yes"/>
      <point x="342.6666666666667" y="706.6666666666666"/>
      <point x="373.3333333333333" y="718.0"/>
      <point x="377.3333333333333" y="801.0" type="curve" smooth="yes"/>
      <point x="377.3333333333333" y="1050.0" type="line" smooth="yes"/>
      <point x="377.3333333333333" y="1193.6666666666667"/>
      <point x="495.6666666666667" y="1310.0"/>
      <point x="637.3333333333334" y="1310.0" type="curve" smooth="yes"/>
      <point x="695.0" y="1310.0" type="line"/>
      <point x="695.0" y="1400.0" type="line"/>
      <point x="637.3333333333334" y="1400.0" type="line" smooth="yes"/>
      <point x="443.3333333333333" y="1400.0"/>
      <point x="287.3333333333333" y="1242.0"/>
      <point x="287.3333333333333" y="1050.0" type="curve" smooth="yes"/>
      <point x="287.3333333333333" y="804.0" type="line" smooth="yes"/>
      <point x="282.0" y="709.6666666666666"/>
      <point x="120.0" y="732.3333333333334"/>
      <point x="120.0" y="642.3333333333334" type="curve" smooth="yes"/>
      <point x="120.0" y="558.3333333333334"/>
      <point x="282.0" y="577.6666666666666"/>
      <point x="287.3333333333333" y="482.0" type="curve" smooth="yes"/>
      <point x="287.3333333333333" y="236.33333333333334" type="line" smooth="yes"/>
      <point x="287.3333333333333" y="44.0"/>
      <point x="443.3333333333333" y="-113.66666666666667"/>
    </contour>
  </outline>
</glyph>
<glyph name="braceright" format="2">
  <advance width="795.0"/>
  <unicode hex="007D"/>
  <outline>
    <contour>
      <point x="100.0" y="-113.66666666666667" type="line"/>
      <point x="157.66666666666666" y="-113.66666666666667" type="line" smooth="yes"/>
      <point x="351.6666666666667" y="-113.66666666666667"/>
      <point x="507.6666666666667" y="44.0"/>
      <point x="507.6666666666667" y="236.33333333333334" type="curve" smooth="yes"/>
      <point x="507.6666666666667" y="482.0" type="line" smooth="yes"/>
      <point x="513.0" y="577.6666666666666"/>
      <point x="675.0" y="558.3333333333334"/>
      <point x="675.0" y="642.3333333333334" type="curve" smooth="yes"/>
      <point x="675.0" y="732.3333333333334"/>
      <point x="513.0" y="709.6666666666666"/>
      <point x="507.6666666666667" y="804.0" type="curve" smooth="yes"/>
      <point x="507.6666666666667" y="1050.0" type="line" smooth="yes"/>
      <point x="507.6666666666667" y="1242.0"/>
      <point x="351.6666666666667" y="1400.0"/>
      <point x="157.66666666666666" y="1400.0" type="curve" smooth="yes"/>
      <point x="100.0" y="1400.0" type="line"/>
      <point x="100.0" y="1310.0" type="line"/>
      <point x="157.66666666666666" y="1310.0" type="line" smooth="yes"/>
      <point x="299.6666666666667" y="1310.0"/>
      <point x="417.6666666666667" y="1193.6666666666667"/>
      <point x="417.6666666666667" y="1050.0" type="curve" smooth="yes"/>
      <point x="417.6666666666667" y="801.0" type="line"/>
      <point x="421.6666666666667" y="718.0"/>
      <point x="452.6666666666667" y="706.6666666666666"/>
      <point x="550.6666666666666" y="642.3333333333334" type="curve" smooth="yes"/>
      <point x="449.0" y="575.3333333333334"/>
      <point x="421.6666666666667" y="568.6666666666666"/>
      <point x="417.6666666666667" y="485.3333333333333" type="curve"/>
      <point x="417.6666666666667" y="236.33333333333334" type="line" smooth="yes"/>
      <point x="417.6666666666667" y="92.66666666666667"/>
      <point x="301.3333333333333" y="-23.666666666666664"/>
      <point x="157.66666666666666" y="-23.666666666666664" type="curve" smooth="yes"/>
      <point x="100.0" y="-23.666666666666664" type="line"/>
    </contour>
  </outline>
</glyph>
<glyph name="asciitilde" format="2">
  <advance width="1184.5"/>
  <unicode hex="007E"/>
  <outline>
    <contour>
      <point x="865.6666666666666" y="435.6666666666667" type="curve" smooth="yes"/>
      <point x="1017.3333333333334" y="435.6666666666667"/>
      <point x="1138.6666666666667" y="577.0"/>
      <point x="1095.3333333333333" y="732.0" type="curve"/>
      <point x="1008.0" y="717.0" type="line"/>
      <point x="1034.0" y="618.0"/>
      <point x="959.0" y="524.0"/>
      <point x="856.6666666666666" y="524.0" type="curve" smooth="yes"/>
      <point x="706.0" y="524.0"/>
      <point x="479.3333333333333" y="764.3333333333334"/>
      <point x="322.3333333333333" y="764.3333333333334" type="curve" smooth="yes"/>
      <point x="163.66666666666666" y="764.3333333333334"/>
      <point x="48.333333333333336" y="610.0"/>
      <point x="88.0" y="466.0" type="curve"/>
      <point x="175.66666666666669" y="477.0" type="line"/>
      <point x="151.0" y="580.3333333333334"/>
      <point x="224.0" y="677.0"/>
      <point x="324.6666666666667" y="675.0" type="curve" smooth="yes"/>
      <point x="457.6666666666667" y="677.0"/>
      <point x="700.0" y="435.6666666666667"/>
    </contour>
  </outline>
</glyph>
<glyph name="exclamdown" format="2">
  <advance width="281.0"/>
  <unicode hex="00A1"/>
  <outline>
    <contour>
      <point x="137.0" y="1026.0" type="curve"/>
      <point x="105.66666666666667" y="1026.0"/>
      <point x="80.0" y="1000.3333333333334"/>
      <point x="80.0" y="966.6666666666666" type="curve"/>
      <point x="80.0" y="935.6666666666666"/>
      <point x="105.66666666666667" y="909.6666666666666"/>
      <point x="137.0" y="909.6666666666666" type="curve"/>
      <point x="170.33333333333334" y="909.6666666666666"/>
      <point x="196.0" y="935.6666666666666"/>
      <point x="196.0" y="966.6666666666666" type="curve"/>
      <point x="196.0" y="1000.3333333333334"/>
      <point x="170.33333333333334" y="1026.0"/>
    </contour>
    <contour>
      <point x="179.0" y="580.0" type="line"/>
      <point x="95.33333333333333" y="580.0" type="line"/>
      <point x="95.33333333333333" y="-400.0" type="line"/>
      <point x="179.0" y="-400.0" type="line"/>
    </contour>
  </outline>
</glyph>
<glyph name="cent" format="2">
  <advance width="1092.0"/>
  <unicode hex="00A2"/>
  <outline>
    <contour>
      <point x="539.6666666666666" y="0.0" type="line"/>
      <point x="617.3333333333334" y="0.0" type="line"/>
      <point x="617.3333333333334" y="201.0" type="line"/>
      <point x="783.6666666666666" y="211.66666666666666"/>
      <point x="929.6666666666666" y="304.6666666666667"/>
      <point x="1012.0" y="440.0" type="curve"/>
      <point x="934.0" y="485.0" type="line"/>
      <point x="861.0" y="366.0"/>
      <point x="721.6666666666666" y="288.0"/>
      <point x="582.0" y="288.0" type="curve" smooth="yes"/>
      <point x="360.0" y="288.0"/>
      <point x="170.0" y="469.3333333333333"/>
      <point x="170.0" y="702.0" type="curve" smooth="yes"/>
      <point x="170.0" y="929.3333333333334"/>
      <point x="356.6666666666667" y="1114.0"/>
      <point x="582.0" y="1114.0" type="curve" smooth="yes"/>
      <point x="721.6666666666666" y="1114.0"/>
      <point x="861.0" y="1036.0"/>
      <point x="934.0" y="917.0" type="curve"/>
      <point x="1012.0" y="962.0" type="line"/>
      <point x="929.6666666666666" y="1097.6666666666667"/>
      <point x="783.6666666666666" y="1190.6666666666667"/>
      <point x="617.3333333333334" y="1201.0" type="curve"/>
      <point x="617.3333333333334" y="1400.0" type="line"/>
      <point x="539.6666666666666" y="1400.0" type="line"/>
      <point x="539.6666666666666" y="1201.0" type="line"/>
      <point x="282.0" y="1179.6666666666667"/>
      <point x="80.0" y="965.0"/>
      <point x="80.0" y="702.0" type="curve" smooth="yes"/>
      <point x="80.0" y="438.6666666666667"/>
      <point x="282.0" y="222.66666666666666"/>
      <point x="539.6666666666666" y="201.0" type="curve"/>
    </contour>
  </outline>
</glyph>
<glyph name="sterling" format="2">
  <advance width="1144.0"/>
  <unicode hex="00A3"/>
  <outline>
    <contour>
      <point x="104.0" y="0.0" type="line"/>
      <point x="1060.6666666666667" y="0.0" type="line"/>
      <point x="1060.6666666666667" y="90.0" type="line"/>
      <point x="338.33333333333337" y="90.0" type="line"/>
      <point x="415.6666666666667" y="123.0"/>
      <point x="497.0" y="211.33333333333334"/>
      <point x="497.0" y="309.6666666666667" type="curve" smooth="yes"/>
      <point x="497.0" y="671.6666666666666"/>
      <point x="170.0" y="570.6666666666666"/>
      <point x="170.0" y="935.0" type="curve" smooth="yes"/>
      <point x="170.0" y="1155.3333333333333"/>
      <point x="350.6666666666667" y="1336.0"/>
      <point x="571.0" y="1336.0" type="curve" smooth="yes"/>
      <point x="793.3333333333334" y="1336.0"/>
      <point x="974.0" y="1155.3333333333333"/>
      <point x="974.0" y="935.0" type="curve"/>
      <point x="1064.0" y="935.0" type="line"/>
      <point x="1064.0" y="1205.6666666666667"/>
      <point x="843.6666666666666" y="1426.0"/>
      <point x="571.0" y="1426.0" type="curve" smooth="yes"/>
      <point x="300.6666666666667" y="1426.0"/>
      <point x="80.0" y="1205.6666666666667"/>
      <point x="80.0" y="935.0" type="curve" smooth="yes"/>
      <point x="80.0" y="570.3333333333334"/>
      <point x="398.0" y="625.6666666666666"/>
      <point x="405.3333333333333" y="321.6666666666667" type="curve" smooth="yes"/>
      <point x="413.6666666666667" y="182.0"/>
      <point x="266.6666666666667" y="90.0"/>
      <point x="104.0" y="90.0" type="curve"/>
    </contour>
    <contour>
      <point x="104.0" y="451.0" type="line"/>
      <point x="845.6666666666666" y="451.0" type="line"/>
      <point x="845.6666666666666" y="528.6666666666666" type="line"/>
      <point x="104.0" y="528.6666666666666" type="line"/>
    </contour>
  </outline>
</glyph>
<glyph name="currency" format="2">
  <advance width="962.5"/>
  <unicode hex="00A4"/>
  <outline>
    <contour>
      <point x="134.66666666666666" y="298.0" type="line"/>
      <point x="255.66666666666666" y="421.0" type="line"/>
      <point x="388.6666666666667" y="311.6666666666667"/>
      <point x="574.3333333333334" y="310.0"/>
      <point x="707.3333333333334" y="419.0" type="curve"/>
      <point x="828.3333333333334" y="298.0" type="line"/>
      <point x="882.6666666666666" y="352.3333333333333" type="line"/>
      <point x="763.3333333333334" y="473.3333333333333" type="line"/>
      <point x="868.6666666666666" y="604.0"/>
      <point x="868.6666666666666" y="794.0"/>
      <point x="761.3333333333334" y="925.0" type="curve"/>
      <point x="882.6666666666666" y="1048.0" type="line"/>
      <point x="828.3333333333334" y="1102.0" type="line"/>
      <point x="705.0" y="979.0" type="line"/>
      <point x="578.0" y="1082.3333333333333"/>
      <point x="386.3333333333333" y="1080.6666666666667"/>
      <point x="259.6666666666667" y="977.0" type="curve"/>
      <point x="134.66666666666666" y="1102.0" type="line"/>
      <point x="80.0" y="1048.0" type="line"/>
      <point x="203.66666666666666" y="922.6666666666666" type="line"/>
      <point x="98.0" y="792.0"/>
      <point x="98.0" y="606.0"/>
      <point x="201.66666666666666" y="475.6666666666667" type="curve"/>
      <point x="80.0" y="352.3333333333333" type="line"/>
    </contour>
    <contour>
      <point x="482.6666666666667" y="415.6666666666667" type="curve" smooth="yes"/>
      <point x="333.3333333333333" y="415.3333333333333"/>
      <point x="201.66666666666669" y="538.3333333333334"/>
      <point x="201.66666666666669" y="698.0" type="curve" smooth="yes"/>
      <point x="201.66666666666669" y="853.3333333333334"/>
      <point x="325.6666666666667" y="979.0"/>
      <point x="482.6666666666667" y="978.6666666666666" type="curve" smooth="yes"/>
      <point x="639.6666666666666" y="978.3333333333334"/>
      <point x="764.6666666666666" y="855.3333333333334"/>
      <point x="764.6666666666666" y="698.0" type="curve" smooth="yes"/>
      <point x="764.6666666666666" y="541.6666666666666"/>
      <point x="637.0" y="416.0"/>
    </contour>
  </outline>
</glyph>
<glyph name="yen" format="2">
  <advance width="1178.5"/>
  <unicode hex="00A5"/>
  <outline>
    <contour>
      <point x="544.3333333333334" y="0.0" type="line"/>
      <point x="634.3333333333334" y="0.0" type="line"/>
      <point x="634.3333333333334" y="214.0" type="line"/>
      <point x="953.3333333333334" y="214.0" type="line"/>
      <point x="953.3333333333334" y="291.6666666666667" type="line"/>
      <point x="634.3333333333334" y="291.6666666666667" type="line"/>
      <point x="634.3333333333334" y="480.0" type="line"/>
      <point x="953.3333333333334" y="480.0" type="line"/>
      <point x="953.3333333333334" y="557.6666666666666" type="line"/>
      <point x="634.3333333333334" y="557.6666666666666" type="line"/>
      <point x="634.3333333333334" y="635.3333333333334" type="line"/>
      <point x="1101.0" y="1400.0" type="line"/>
      <point x="995.6666666666666" y="1400.0" type="line"/>
      <point x="589.3333333333334" y="733.6666666666666" type="line"/>
      <point x="183.0" y="1400.0" type="line"/>
      <point x="77.66666666666667" y="1400.0" type="line"/>
      <point x="544.3333333333334" y="635.3333333333334" type="line"/>
      <point x="544.3333333333334" y="557.6666666666666" type="line"/>
      <point x="225.33333333333334" y="557.6666666666666" type="line"/>
      <point x="225.33333333333334" y="480.0" type="line"/>
      <point x="544.3333333333334" y="480.0" type="line"/>
      <point x="544.3333333333334" y="291.6666666666667" type="line"/>
      <point x="225.33333333333334" y="291.6666666666667" type="line"/>
      <point x="225.33333333333334" y="214.0" type="line"/>
      <point x="544.3333333333334" y="214.0" type="line"/>
    </contour>
  </outline>
</glyph>
<glyph name="brokenbar" format="2">
  <advance width="330.0"/>
  <unicode hex="00A6"/>
  <outline>
    <contour>
      <point x="120.0" y="448.0" type="line"/>
      <point x="120.0" y="-302.0" type="line"/>
      <point x="210.0" y="-302.0" type="line"/>
      <point x="210.0" y="448.0" type="line"/>
    </contour>
    <contour>
      <point x="120.0" y="1400.0" type="line"/>
      <point x="120.0" y="650.0" type="line"/>
      <point x="210.0" y="650.0" type="line"/>
      <point x="210.0" y="1400.0" type="line"/>
    </contour>
  </outline>
</glyph>
<glyph name="section" format="2">
  <advance width="1063.5"/>
  <unicode hex="00A7"/>
  <outline>
    <contour>
      <point x="545.6666666666666" y="-415.6666666666667" type="curve" smooth="yes"/>
      <point x="734.6666666666666" y="-415.6666666666667"/>
      <point x="907.6666666666666" y="-305.0"/>
      <point x="907.6666666666666" y="-130.66666666666666" type="curve" smooth="yes"/>
      <point x="907.6666666666666" y="7.666666666666668"/>
      <point x="822.0" y="87.0"/>
      <point x="641.6666666666666" y="116.0" type="curve"/>
      <point x="815.6666666666666" y="159.66666666666666"/>
      <point x="943.6666666666666" y="320.3333333333333"/>
      <point x="943.6666666666666" y="498.3333333333333" type="curve" smooth="yes"/>
      <point x="943.6666666666666" y="749.6666666666666"/>
      <point x="780.6666666666666" y="874.3333333333334"/>
      <point x="523.6666666666666" y="931.6666666666666" type="curve" smooth="yes"/>
      <point x="348.0" y="971.3333333333334"/>
      <point x="243.66666666666669" y="1003.6666666666666"/>
      <point x="243.66666666666669" y="1131.6666666666667" type="curve" smooth="yes"/>
      <point x="243.66666666666669" y="1256.6666666666667"/>
      <point x="374.3333333333333" y="1332.0"/>
      <point x="521.3333333333334" y="1331.3333333333333" type="curve" smooth="yes"/>
      <point x="638.0" y="1330.6666666666667"/>
      <point x="767.6666666666666" y="1271.6666666666667"/>
      <point x="807.3333333333334" y="1175.3333333333333" type="curve"/>
      <point x="882.3333333333334" y="1219.0" type="line"/>
      <point x="829.6666666666666" y="1335.6666666666667"/>
      <point x="682.6666666666666" y="1415.6666666666667"/>
      <point x="518.0" y="1415.6666666666667" type="curve" smooth="yes"/>
      <point x="328.6666666666667" y="1415.6666666666667"/>
      <point x="156.0" y="1305.0"/>
      <point x="156.0" y="1130.6666666666667" type="curve" smooth="yes"/>
      <point x="156.0" y="990.6666666666666"/>
      <point x="239.66666666666666" y="911.3333333333334"/>
      <point x="421.6666666666667" y="882.6666666666666" type="curve"/>
      <point x="244.33333333333334" y="837.0"/>
      <point x="120.0" y="676.3333333333334"/>
      <point x="120.0" y="498.3333333333333" type="curve" smooth="yes"/>
      <point x="120.0" y="256.6666666666667"/>
      <point x="287.3333333333333" y="122.0"/>
      <point x="539.0" y="68.66666666666667" type="curve" smooth="yes"/>
      <point x="712.6666666666666" y="31.333333333333332"/>
      <point x="820.0" y="-3.333333333333332"/>
      <point x="820.0" y="-131.66666666666666" type="curve" smooth="yes"/>
      <point x="820.0" y="-256.6666666666667"/>
      <point x="689.3333333333334" y="-332.0"/>
      <point x="542.3333333333334" y="-331.3333333333333" type="curve" smooth="yes"/>
      <point x="425.6666666666667" y="-330.66666666666663"/>
      <point x="296.0" y="-271.6666666666667"/>
      <point x="256.3333333333333" y="-175.33333333333331" type="curve"/>
      <point x="181.33333333333334" y="-219.0" type="line"/>
      <point x="234.0" y="-335.6666666666667"/>
      <point x="380.6666666666667" y="-415.6666666666667"/>
    </contour>
    <contour>
      <point x="533.6666666666666" y="174.33333333333334" type="curve" smooth="yes"/>
      <point x="366.6666666666667" y="174.33333333333334"/>
      <point x="205.33333333333334" y="314.6666666666667"/>
      <point x="205.33333333333334" y="498.3333333333333" type="curve" smooth="yes"/>
      <point x="205.33333333333334" y="683.0"/>
      <point x="351.6666666666667" y="825.6666666666666"/>
      <point x="529.0" y="825.6666666666666" type="curve" smooth="yes"/>
      <point x="693.3333333333334" y="825.6666666666666"/>
      <point x="858.3333333333334" y="701.6666666666666"/>
      <point x="858.3333333333334" y="493.0" type="curve" smooth="yes"/>
      <point x="858.3333333333334" y="319.6666666666667"/>
      <point x="712.3333333333334" y="174.33333333333334"/>
    </contour>
  </outline>
</glyph>
<glyph name="copyright" format="2">
  <advance width="1753.75"/>
  <unicode hex="00A9"/>
  <outline>
    <contour>
      <point x="876.6666666666666" y="-167.66666666666669" type="curve" smooth="yes"/>
      <point x="1317.0" y="-167.66666666666669"/>
      <point x="1673.6666666666667" y="189.0"/>
      <point x="1673.6666666666667" y="629.3333333333334" type="curve" smooth="yes"/>
      <point x="1673.6666666666667" y="1069.6666666666667"/>
      <point x="1317.0" y="1426.0"/>
      <point x="876.6666666666666" y="1426.0" type="curve" smooth="yes"/>
      <point x="436.6666666666667" y="1426.0"/>
      <point x="80.0" y="1069.6666666666667"/>
      <point x="80.0" y="629.3333333333334" type="curve" smooth="yes"/>
      <point x="80.0" y="189.0"/>
      <point x="436.6666666666667" y="-167.66666666666669"/>
    </contour>
    <contour>
      <point x="876.6666666666666" y="-77.66666666666667" type="curve" smooth="yes"/>
      <point x="493.3333333333333" y="-77.66666666666667"/>
      <point x="170.0" y="231.66666666666666"/>
      <point x="170.0" y="629.3333333333334" type="curve" smooth="yes"/>
      <point x="170.0" y="1016.3333333333334"/>
      <point x="486.0" y="1332.6666666666667"/>
      <point x="876.6666666666666" y="1336.0" type="curve" smooth="yes"/>
      <point x="1261.6666666666667" y="1339.6666666666667"/>
      <point x="1583.6666666666667" y="1022.0"/>
      <point x="1583.6666666666667" y="629.3333333333334" type="curve" smooth="yes"/>
      <point x="1583.6666666666667" y="245.66666666666666"/>
      <point x="1272.6666666666667" y="-77.66666666666667"/>
    </contour>
    <component base="c" xOffset="327.3333333333333" yOffset="129.33333333333334"/>
  </outline>
</glyph>
<glyph name="logicalnot" format="2">
  <advance width="948.5"/>
  <unicode hex="00AC"/>
  <outline>
    <contour>
      <point x="778.6666666666666" y="327.6666666666667" type="line"/>
      <point x="868.6666666666666" y="327.6666666666667" type="line"/>
      <point x="868.6666666666666" y="872.6666666666666" type="line"/>
      <point x="80.0" y="872.6666666666666" type="line"/>
      <point x="80.0" y="782.6666666666666" type="line"/>
      <point x="778.6666666666666" y="782.6666666666666" type="line"/>
    </contour>
  </outline>
</glyph>
<glyph name="registered" format="2">
  <advance width="933.25"/>
  <unicode hex="00AE"/>
  <outline>
    <contour>
      <point x="466.6666666666667" y="493.6666666666667" type="curve" smooth="yes"/>
      <point x="692.0" y="495.3333333333333"/>
      <point x="873.3333333333334" y="680.6666666666666"/>
      <point x="873.3333333333334" y="900.3333333333334" type="curve" smooth="yes"/>
      <point x="873.3333333333334" y="1115.0"/>
      <point x="696.6666666666666" y="1306.6666666666667"/>
      <point x="466.6666666666667" y="1306.6666666666667" type="curve" smooth="yes"/>
      <point x="240.66666666666666" y="1306.6666666666667"/>
      <point x="60.0" y="1121.0"/>
      <point x="60.0" y="900.3333333333334" type="curve" smooth="yes"/>
      <point x="60.0" y="681.0"/>
      <point x="238.66666666666666" y="495.3333333333333"/>
    </contour>
    <contour>
      <point x="466.6666666666667" y="572.3333333333334" type="curve" smooth="yes"/>
      <point x="286.6666666666667" y="572.3333333333334"/>
      <point x="138.66666666666669" y="720.0"/>
      <point x="138.66666666666669" y="900.3333333333334" type="curve" smooth="yes"/>
      <point x="138.66666666666669" y="1080.3333333333333"/>
      <point x="286.6666666666667" y="1228.0"/>
      <point x="466.6666666666667" y="1228.0" type="curve" smooth="yes"/>
      <point x="646.6666666666666" y="1228.0"/>
      <point x="794.6666666666666" y="1080.3333333333333"/>
      <point x="794.6666666666666" y="900.3333333333334" type="curve" smooth="yes"/>
      <point x="794.6666666666666" y="720.0"/>
      <point x="646.6666666666666" y="572.3333333333334"/>
    </contour>
    <contour>
      <point x="352.0" y="712.0" type="line"/>
      <point x="418.3333333333333" y="712.0" type="line"/>
      <point x="418.3333333333333" y="873.3333333333334" type="line"/>
      <point x="448.6666666666667" y="873.3333333333334" type="line"/>
      <point x="542.3333333333334" y="712.0" type="line"/>
      <point x="619.3333333333334" y="712.0" type="line"/>
      <point x="522.6666666666666" y="877.6666666666666" type="line"/>
      <point x="569.6666666666666" y="889.3333333333334"/>
      <point x="602.6666666666666" y="933.6666666666666"/>
      <point x="602.6666666666666" y="985.6666666666666" type="curve" smooth="yes"/>
      <point x="602.6666666666666" y="1049.6666666666667"/>
      <point x="554.6666666666666" y="1099.6666666666667"/>
      <point x="494.6666666666667" y="1099.6666666666667" type="curve" smooth="yes"/>
      <point x="352.0" y="1099.6666666666667" type="line"/>
    </contour>
    <contour>
      <point x="418.3333333333333" y="939.6666666666666" type="line"/>
      <point x="418.3333333333333" y="1033.3333333333333" type="line"/>
      <point x="494.6666666666667" y="1033.3333333333333" type="line" smooth="yes"/>
      <point x="517.3333333333334" y="1033.3333333333333"/>
      <point x="536.3333333333334" y="1012.3333333333334"/>
      <point x="536.3333333333334" y="985.6666666666666" type="curve" smooth="yes"/>
      <point x="536.3333333333334" y="960.6666666666666"/>
      <point x="517.3333333333334" y="939.6666666666666"/>
      <point x="494.6666666666667" y="939.6666666666666" type="curve" smooth="yes"/>
    </contour>
  </outline>
</glyph>
<glyph name="degree" format="2">
  <advance width="604.25"/>
  <unicode hex="00B0"/>
  <outline>
    <contour>
      <point x="302.3333333333333" y="858.0" type="curve" smooth="yes"/>
      <point x="424.0" y="858.0"/>
      <point x="524.3333333333334" y="956.3333333333334"/>
      <point x="524.3333333333334" y="1080.0" type="curve" smooth="yes"/>
      <point x="524.3333333333334" y="1201.3333333333333"/>
      <point x="426.0" y="1302.0"/>
      <point x="302.3333333333333" y="1302.0" type="curve" smooth="yes"/>
      <point x="179.33333333333334" y="1302.0"/>
      <point x="80.0" y="1202.0"/>
      <point x="80.0" y="1080.0" type="curve" smooth="yes"/>
      <point x="80.0" y="958.6666666666666"/>
      <point x="178.66666666666666" y="858.0"/>
    </contour>
    <contour>
      <point x="302.3333333333333" y="948.0" type="curve" smooth="yes"/>
      <point x="228.33333333333334" y="948.0"/>
      <point x="170.0" y="1006.0"/>
      <point x="170.0" y="1080.0" type="curve" smooth="yes"/>
      <point x="170.0" y="1154.0"/>
      <point x="228.33333333333334" y="1212.0"/>
      <point x="302.3333333333333" y="1212.0" type="curve" smooth="yes"/>
      <point x="376.0" y="1212.0"/>
      <point x="434.3333333333333" y="1154.0"/>
      <point x="434.3333333333333" y="1080.0" type="curve" smooth="yes"/>
      <point x="434.3333333333333" y="1006.0"/>
      <point x="376.0" y="948.0"/>
    </contour>
  </outline>
</glyph>
<glyph name="plusminus" format="2">
  <advance width="1160.0"/>
  <unicode hex="00B1"/>
  <outline>
    <contour>
      <point x="535.0" y="312.6666666666667" type="line"/>
      <point x="625.0" y="312.6666666666667" type="line"/>
      <point x="625.0" y="767.6666666666666" type="line"/>
      <point x="1080.0" y="767.6666666666666" type="line"/>
      <point x="1080.0" y="857.6666666666666" type="line"/>
      <point x="625.0" y="857.6666666666666" type="line"/>
      <point x="625.0" y="1312.6666666666667" type="line"/>
      <point x="535.0" y="1312.6666666666667" type="line"/>
      <point x="535.0" y="857.6666666666666" type="line"/>
      <point x="80.0" y="857.6666666666666" type="line"/>
      <point x="80.0" y="767.6666666666666" type="line"/>
      <point x="535.0" y="767.6666666666666" type="line"/>
    </contour>
    <contour>
      <point x="80.0" y="1.6666666666666665" type="line"/>
      <point x="1080.0" y="1.6666666666666665" type="line"/>
      <point x="1080.0" y="91.66666666666667" type="line"/>
      <point x="80.0" y="91.66666666666667" type="line"/>
    </contour>
  </outline>
</glyph>
<glyph name="twosuperior" format="2">
  <advance width="677.125"/>
  <unicode hex="00B2"/>
  <outline>
    <contour>
      <point x="96.0" y="818.0" type="line"/>
      <point x="531.6666666666666" y="818.0" type="line"/>
      <point x="531.6666666666666" y="902.0" type="line"/>
      <point x="241.0" y="902.0" type="line"/>
      <point x="359.6666666666667" y="985.0"/>
      <point x="533.0" y="1142.6666666666667"/>
      <point x="533.0" y="1260.3333333333333" type="curve"/>
      <point x="533.0" y="1380.6666666666667"/>
      <point x="435.6666666666667" y="1468.0"/>
      <point x="315.6666666666667" y="1468.0" type="curve"/>
      <point x="193.66666666666666" y="1468.0"/>
      <point x="96.0" y="1380.6666666666667"/>
      <point x="96.0" y="1260.3333333333333" type="curve"/>
      <point x="180.0" y="1260.3333333333333" type="line"/>
      <point x="180.0" y="1335.0"/>
      <point x="241.0" y="1385.6666666666667"/>
      <point x="315.6666666666667" y="1385.6666666666667" type="curve"/>
      <point x="390.0" y="1385.6666666666667"/>
      <point x="449.0" y="1335.0"/>
      <point x="449.0" y="1260.3333333333333" type="curve"/>
      <point x="440.0" y="1142.6666666666667"/>
      <point x="196.0" y="967.6666666666666"/>
      <point x="96.0" y="901.0" type="curve"/>
    </contour>
  </outline>
</glyph>
<glyph name="threesuperior" format="2">
  <advance width="546.0"/>
  <unicode hex="00B3"/>
  <outline>
    <contour>
      <point x="274.0" y="798.0" type="curve" smooth="yes"/>
      <point x="383.6666666666667" y="798.0"/>
      <point x="474.0" y="876.6666666666666"/>
      <point x="474.0" y="989.0" type="curve" smooth="yes"/>
      <point x="474.0" y="1066.0"/>
      <point x="444.6666666666667" y="1107.0"/>
      <point x="387.6666666666667" y="1151.0" type="curve"/>
      <point x="424.0" y="1172.0"/>
      <point x="455.3333333333333" y="1232.3333333333333"/>
      <point x="455.3333333333333" y="1292.0" type="curve" smooth="yes"/>
      <point x="455.3333333333333" y="1394.6666666666667"/>
      <point x="372.0" y="1466.3333333333333"/>
      <point x="269.0" y="1466.3333333333333" type="curve" smooth="yes"/>
      <point x="167.0" y="1466.3333333333333"/>
      <point x="83.66666666666667" y="1394.6666666666667"/>
      <point x="83.66666666666667" y="1292.0" type="curve"/>
      <point x="167.66666666666666" y="1292.0" type="line"/>
      <point x="167.66666666666666" y="1347.3333333333333"/>
      <point x="214.0" y="1383.6666666666667"/>
      <point x="269.0" y="1383.6666666666667" type="curve" smooth="yes"/>
      <point x="324.3333333333333" y="1383.6666666666667"/>
      <point x="371.3333333333333" y="1347.3333333333333"/>
      <point x="371.3333333333333" y="1292.0" type="curve" smooth="yes"/>
      <point x="371.3333333333333" y="1225.3333333333333"/>
      <point x="322.6666666666667" y="1186.6666666666667"/>
      <point x="233.66666666666666" y="1186.6666666666667" type="curve"/>
      <point x="233.66666666666666" y="1110.6666666666667" type="line"/>
      <point x="333.0" y="1110.6666666666667"/>
      <point x="390.0" y="1063.0"/>
      <point x="390.0" y="989.0" type="curve" smooth="yes"/>
      <point x="390.0" y="923.6666666666666"/>
      <point x="339.0" y="880.6666666666666"/>
      <point x="274.0" y="880.6666666666666" type="curve" smooth="yes"/>
      <point x="207.0" y="880.6666666666666"/>
      <point x="156.0" y="923.6666666666666"/>
      <point x="156.0" y="989.0" type="curve"/>
      <point x="72.0" y="989.0" type="line"/>
      <point x="72.0" y="876.6666666666666"/>
      <point x="162.66666666666666" y="798.0"/>
    </contour>
  </outline>
</glyph>
<glyph name="paragraph" format="2">
  <advance width="760.0"/>
  <unicode hex="00B6"/>
  <outline>
    <contour>
      <point x="420.0" y="-302.0" type="line"/>
      <point x="510.0" y="-302.0" type="line"/>
      <point x="510.0" y="1400.0" type="line"/>
      <point x="420.0" y="1400.0" type="line" smooth="yes"/>
      <point x="232.0" y="1400.0"/>
      <point x="80.0" y="1246.3333333333333"/>
      <point x="80.0" y="1058.3333333333333" type="curve" smooth="yes"/>
      <point x="80.0" y="870.0"/>
      <point x="232.0" y="718.0"/>
      <point x="420.0" y="718.0" type="curve"/>
    </contour>
    <contour>
      <point x="590.0" y="-302.0" type="line"/>
      <point x="680.0" y="-302.0" type="line"/>
      <point x="680.0" y="1400.0" type="line"/>
      <point x="590.0" y="1400.0" type="line"/>
    </contour>
  </outline>
</glyph>
<glyph name="periodcentered" format="2">
  <advance width="276.25"/>
  <unicode hex="00B7"/>
  <outline>
    <contour>
      <point x="137.33333333333334" y="542.0" type="curve" smooth="yes"/>
      <point x="170.33333333333334" y="542.0"/>
      <point x="196.33333333333334" y="567.6666666666666"/>
      <point x="196.33333333333334" y="601.0" type="curve" smooth="yes"/>
      <point x="196.33333333333334" y="632.0"/>
      <point x="170.33333333333334" y="658.0"/>
      <point x="137.33333333333334" y="658.0" type="curve" smooth="yes"/>
      <point x="105.66666666666667" y="658.0"/>
      <point x="80.0" y="632.0"/>
      <point x="80.0" y="601.0" type="curve" smooth="yes"/>
      <point x="80.0" y="567.6666666666666"/>
      <point x="105.66666666666667" y="542.0"/>
    </contour>
  </outline>
</glyph>
<glyph name="onesuperior" format="2">
  <advance width="409.125"/>
  <unicode hex="00B9"/>
  <outline>
    <contour>
      <point x="181.0" y="818.0" type="line"/>
      <point x="265.0" y="818.0" type="line"/>
      <point x="265.0" y="1449.0" type="line"/>
      <point x="107.66666666666667" y="1449.0" type="line"/>
      <point x="96.0" y="1365.0" type="line"/>
      <point x="181.0" y="1365.0" type="line"/>
    </contour>
  </outline>
</glyph>
<glyph name="questiondown" format="2">
  <advance width="919.0"/>
  <unicode hex="00BF"/>
  <outline>
    <contour>
      <point x="457.0" y="-427.6666666666667" type="curve" smooth="yes"/>
      <point x="665.3333333333334" y="-427.6666666666667"/>
      <point x="834.0" y="-259.0"/>
      <point x="834.0" y="-51.0" type="curve"/>
      <point x="744.0" y="-51.0" type="line"/>
      <point x="744.0" y="-208.66666666666666"/>
      <point x="614.6666666666666" y="-337.6666666666667"/>
      <point x="457.0" y="-337.6666666666667" type="curve" smooth="yes"/>
      <point x="299.3333333333333" y="-337.6666666666667"/>
      <point x="170.0" y="-208.66666666666666"/>
      <point x="170.0" y="-51.0" type="curve" smooth="yes"/>
      <point x="170.0" y="57.66666666666667"/>
      <point x="225.0" y="154.66666666666666"/>
      <point x="314.3333333333333" y="204.0" type="curve" smooth="yes"/>
      <point x="423.0" y="264.3333333333333"/>
      <point x="488.0" y="374.3333333333333"/>
      <point x="488.0" y="495.0" type="curve"/>
      <point x="398.0" y="495.0" type="line"/>
      <point x="398.0" y="404.6666666666667"/>
      <point x="350.0" y="324.6666666666667"/>
      <point x="272.0" y="282.6666666666667" type="curve" smooth="yes"/>
      <point x="153.0" y="219.66666666666669"/>
      <point x="80.0" y="90.66666666666667"/>
      <point x="80.0" y="-51.0" type="curve" smooth="yes"/>
      <point x="80.0" y="-259.0"/>
      <point x="248.66666666666666" y="-427.6666666666667"/>
    </contour>
    <contour>
      <point x="453.3333333333333" y="909.6666666666666" type="curve" smooth="yes"/>
      <point x="484.6666666666667" y="909.6666666666666"/>
      <point x="510.6666666666667" y="935.6666666666666"/>
      <point x="510.6666666666667" y="966.6666666666666" type="curve" smooth="yes"/>
      <point x="510.6666666666667" y="1000.3333333333334"/>
      <point x="484.6666666666667" y="1026.0"/>
      <point x="453.3333333333333" y="1026.0" type="curve" smooth="yes"/>
      <point x="420.3333333333333" y="1026.0"/>
      <point x="394.6666666666667" y="1000.3333333333334"/>
      <point x="394.6666666666667" y="966.6666666666666" type="curve" smooth="yes"/>
      <point x="394.6666666666667" y="935.6666666666666"/>
      <point x="420.3333333333333" y="909.6666666666666"/>
    </contour>
  </outline>
</glyph>
<glyph name="AE" format="2">
  <advance width="1591.0"/>
  <unicode hex="00C6"/>
  <outline>
    <contour>
      <point x="80.0" y="0.0" type="line"/>
      <point x="175.66666666666669" y="0.0" type="line"/>
      <point x="294.3333333333333" y="325.0" type="line"/>
      <point x="791.6666666666666" y="325.0" type="line"/>
      <point x="791.6666666666666" y="0.0" type="line"/>
      <point x="1491.0" y="0.0" type="line"/>
      <point x="1491.0" y="90.0" type="line"/>
      <point x="881.6666666666666" y="90.0" type="line"/>
      <point x="881.6666666666666" y="655.0" type="line"/>
      <point x="1395.0" y="655.0" type="line"/>
      <point x="1395.0" y="745.0" type="line"/>
      <point x="881.6666666666666" y="745.0" type="line"/>
      <point x="881.6666666666666" y="1310.0" type="line"/>
      <point x="1491.0" y="1310.0" type="line"/>
      <point x="1491.0" y="1400.0" type="line"/>
      <point x="589.6666666666666" y="1400.0" type="line"/>
    </contour>
    <contour>
      <point x="327.33333333333337" y="415.0" type="line"/>
      <point x="654.6666666666666" y="1310.0" type="line"/>
      <point x="791.6666666666666" y="1310.0" type="line"/>
      <point x="791.6666666666666" y="415.0" type="line"/>
    </contour>
  </outline>
</glyph>
<glyph name="Eth" format="2">
  <advance width="1453.25"/>
  <unicode hex="00D0"/>
  <outline>
    <contour>
      <point x="229.66666666666666" y="0.0" type="line"/>
      <point x="693.3333333333334" y="0.0" type="line" smooth="yes"/>
      <point x="1079.3333333333333" y="0.0"/>
      <point x="1393.3333333333333" y="314.0"/>
      <point x="1393.3333333333333" y="700.0" type="curve" smooth="yes"/>
      <point x="1393.3333333333333" y="1086.0"/>
      <point x="1079.3333333333333" y="1400.0"/>
      <point x="693.3333333333334" y="1400.0" type="curve" smooth="yes"/>
      <point x="229.66666666666666" y="1400.0" type="line"/>
      <point x="229.66666666666666" y="795.0" type="line"/>
      <point x="100.0" y="795.0" type="line"/>
      <point x="100.0" y="705.0" type="line"/>
      <point x="229.66666666666666" y="705.0" type="line"/>
    </contour>
    <contour>
      <point x="319.6666666666667" y="90.0" type="line"/>
      <point x="319.6666666666667" y="705.0" type="line"/>
      <point x="697.6666666666666" y="705.0" type="line"/>
      <point x="697.6666666666666" y="795.0" type="line"/>
      <point x="319.6666666666667" y="795.0" type="line"/>
      <point x="319.6666666666667" y="1310.0" type="line"/>
      <point x="693.3333333333334" y="1310.0" type="line" smooth="yes"/>
      <point x="1021.6666666666666" y="1310.0"/>
      <point x="1303.3333333333333" y="1042.6666666666667"/>
      <point x="1303.3333333333333" y="700.0" type="curve" smooth="yes"/>
      <point x="1303.3333333333333" y="369.6666666666667"/>
      <point x="1035.6666666666667" y="90.0"/>
      <point x="693.3333333333334" y="90.0" type="curve" smooth="yes"/>
    </contour>
  </outline>
</glyph>
<glyph name="multiply" format="2">
  <advance width="931.0"/>
  <unicode hex="00D7"/>
  <outline>
    <contour>
      <point x="143.33333333333334" y="215.33333333333334" type="line"/>
      <point x="464.6666666666667" y="536.6666666666666" type="line"/>
      <point x="786.0" y="215.33333333333334" type="line"/>
      <point x="851.0" y="278.6666666666667" type="line"/>
      <point x="527.6666666666666" y="600.0" type="line"/>
      <point x="851.0" y="921.6666666666666" type="line"/>
      <point x="786.0" y="984.6666666666666" type="line"/>
      <point x="464.6666666666667" y="663.3333333333334" type="line"/>
      <point x="143.33333333333334" y="984.6666666666666" type="line"/>
      <point x="80.0" y="921.6666666666666" type="line"/>
      <point x="401.3333333333333" y="600.0" type="line"/>
      <point x="80.0" y="278.6666666666667" type="line"/>
    </contour>
  </outline>
</glyph>
<glyph name="Oslash" format="2">
  <advance width="1540.0"/>
  <unicode hex="00D8"/>
  <outline>
    <contour>
      <point x="379.0" y="-69.66666666666667" type="line"/>
      <point x="451.6666666666667" y="57.666666666666664" type="line"/>
      <point x="548.0" y="5.666666666666666"/>
      <point x="655.3333333333334" y="-26.0"/>
      <point x="770.0" y="-26.0" type="curve" smooth="yes"/>
      <point x="1150.0" y="-26.0"/>
      <point x="1460.0" y="300.0"/>
      <point x="1460.0" y="700.0" type="curve" smooth="yes"/>
      <point x="1460.0" y="946.3333333333334"/>
      <point x="1343.0" y="1163.6666666666667"/>
      <point x="1165.6666666666667" y="1294.3333333333333" type="curve"/>
      <point x="1241.0" y="1424.6666666666667" type="line"/>
      <point x="1163.0" y="1469.6666666666667" type="line"/>
      <point x="1090.3333333333333" y="1342.6666666666667" type="line"/>
      <point x="994.0" y="1396.3333333333333"/>
      <point x="886.6666666666666" y="1426.0"/>
      <point x="770.0" y="1426.0" type="curve" smooth="yes"/>
      <point x="390.0" y="1426.0"/>
      <point x="80.0" y="1100.0"/>
      <point x="80.0" y="700.0" type="curve" smooth="yes"/>
      <point x="80.0" y="455.6666666666667"/>
      <point x="199.0" y="238.0"/>
      <point x="376.3333333333333" y="106.0" type="curve"/>
      <point x="301.0" y="-24.666666666666664" type="line"/>
    </contour>
    <contour>
      <point x="422.6666666666667" y="187.66666666666669" type="line"/>
      <point x="269.6666666666667" y="301.6666666666667"/>
      <point x="170.0" y="489.0"/>
      <point x="170.0" y="700.0" type="curve" smooth="yes"/>
      <point x="170.0" y="1044.3333333333333"/>
      <point x="435.3333333333333" y="1336.0"/>
      <point x="770.0" y="1336.0" type="curve" smooth="yes"/>
      <point x="869.3333333333334" y="1336.0"/>
      <point x="963.3333333333334" y="1309.6666666666667"/>
      <point x="1044.6666666666667" y="1263.6666666666667" type="curve"/>
    </contour>
    <contour>
      <point x="770.0" y="64.0" type="curve" smooth="yes"/>
      <point x="672.6666666666666" y="64.0"/>
      <point x="578.6666666666666" y="90.66666666666667"/>
      <point x="497.3333333333333" y="136.66666666666669" type="curve"/>
      <point x="1119.6666666666667" y="1214.0" type="line"/>
      <point x="1270.6666666666667" y="1098.6666666666667"/>
      <point x="1370.0" y="911.0"/>
      <point x="1370.0" y="700.0" type="curve" smooth="yes"/>
      <point x="1370.0" y="355.6666666666667"/>
      <point x="1104.6666666666667" y="64.0"/>
    </contour>
  </outline>
</glyph>
<glyph name="Thorn" format="2">
  <advance width="1017.5"/>
  <unicode hex="00DE"/>
  <outline>
    <contour>
      <point x="120.0" y="0.0" type="line"/>
      <point x="210.0" y="0.0" type="line"/>
      <point x="210.0" y="296.6666666666667" type="line"/>
      <point x="543.0" y="296.6666666666667" type="line" smooth="yes"/>
      <point x="758.0" y="296.6666666666667"/>
      <point x="937.6666666666666" y="469.3333333333333"/>
      <point x="937.6666666666666" y="700.0" type="curve" smooth="yes"/>
      <point x="937.6666666666666" y="928.6666666666666"/>
      <point x="764.3333333333334" y="1103.6666666666667"/>
      <point x="543.0" y="1103.6666666666667" type="curve" smooth="yes"/>
      <point x="210.0" y="1103.6666666666667" type="line"/>
      <point x="210.0" y="1400.0" type="line"/>
      <point x="120.0" y="1400.0" type="line"/>
    </contour>
    <contour>
      <point x="210.0" y="386.6666666666667" type="line"/>
      <point x="210.0" y="1019.0" type="line"/>
      <point x="538.6666666666666" y="1019.0" type="line" smooth="yes"/>
      <point x="708.0" y="1019.0"/>
      <point x="847.6666666666666" y="884.6666666666666"/>
      <point x="847.6666666666666" y="702.6666666666666" type="curve" smooth="yes"/>
      <point x="847.6666666666666" y="521.0"/>
      <point x="708.0" y="386.6666666666667"/>
      <point x="538.6666666666666" y="386.6666666666667" type="curve" smooth="yes"/>
    </contour>
  </outline>
</glyph>
<glyph name="germandbls" format="2">
  <advance width="1032.0"/>
  <unicode hex="00DF"/>
  <outline>
    <contour>
      <point x="120.0" y="0.0" type="line"/>
      <point x="210.0" y="0.0" type="line"/>
      <point x="210.0" y="988.6666666666666" type="line" smooth="yes"/>
      <point x="210.0" y="1168.3333333333333"/>
      <point x="355.6666666666667" y="1313.6666666666667"/>
      <point x="535.3333333333334" y="1313.6666666666667" type="curve" smooth="yes"/>
      <point x="683.6666666666666" y="1313.6666666666667"/>
      <point x="805.6666666666666" y="1184.6666666666667"/>
      <point x="805.6666666666666" y="1025.6666666666667" type="curve" smooth="yes"/>
      <point x="805.6666666666666" y="866.6666666666666"/>
      <point x="683.6666666666666" y="739.0"/>
      <point x="535.3333333333334" y="737.3333333333334" type="curve" smooth="yes"/>
      <point x="507.6666666666667" y="736.6666666666666" type="line"/>
      <point x="507.6666666666667" y="654.0" type="line"/>
      <point x="600.3333333333334" y="653.6666666666666" type="line" smooth="yes"/>
      <point x="758.6666666666666" y="652.6666666666666"/>
      <point x="886.3333333333334" y="526.6666666666666"/>
      <point x="886.3333333333334" y="369.6666666666667" type="curve" smooth="yes"/>
      <point x="886.3333333333334" y="213.0"/>
      <point x="758.6666666666666" y="84.33333333333334"/>
      <point x="600.3333333333334" y="84.33333333333334" type="curve" smooth="yes"/>
      <point x="507.6666666666667" y="84.33333333333334" type="line"/>
      <point x="530.3333333333334" y="0.0" type="line"/>
      <point x="604.3333333333334" y="0.0" type="line" smooth="yes"/>
      <point x="806.6666666666666" y="0.0"/>
      <point x="972.0" y="163.0"/>
      <point x="972.0" y="367.0" type="curve" smooth="yes"/>
      <point x="972.0" y="526.0"/>
      <point x="875.3333333333334" y="669.6666666666666"/>
      <point x="721.6666666666666" y="711.3333333333334" type="curve"/>
      <point x="827.6666666666666" y="771.6666666666666"/>
      <point x="895.6666666666666" y="893.6666666666666"/>
      <point x="895.6666666666666" y="1025.6666666666667" type="curve" smooth="yes"/>
      <point x="895.6666666666666" y="1231.6666666666667"/>
      <point x="736.6666666666666" y="1398.3333333333333"/>
      <point x="539.6666666666666" y="1398.3333333333333" type="curve" smooth="yes"/>
      <point x="307.0" y="1398.3333333333333"/>
      <point x="120.0" y="1209.3333333333333"/>
      <point x="120.0" y="978.6666666666666" type="curve" smooth="yes"/>
    </contour>
  </outline>
</glyph>
<glyph name="ae" format="2">
  <advance width="1895.875"/>
  <unicode hex="00E6"/>
  <outline>
    <contour>
      <point x="465.6666666666667" y="-3.333333333333334" type="curve" smooth="yes"/>
      <point x="579.3333333333334" y="-3.333333333333334" type="line" smooth="yes"/>
      <point x="743.0" y="-3.333333333333334"/>
      <point x="875.6666666666666" y="108.66666666666666"/>
      <point x="907.3333333333334" y="261.3333333333333" type="curve"/>
      <point x="991.6666666666666" y="104.33333333333333"/>
      <point x="1151.3333333333333" y="-3.333333333333334"/>
      <point x="1336.6666666666667" y="-3.333333333333334" type="curve" smooth="yes"/>
      <point x="1536.6666666666667" y="-3.333333333333334"/>
      <point x="1708.6666666666667" y="120.66666666666667"/>
      <point x="1788.6666666666667" y="298.6666666666667" type="curve"/>
      <point x="1698.0" y="320.0" type="line"/>
      <point x="1623.6666666666667" y="174.33333333333334"/>
      <point x="1492.6666666666667" y="86.66666666666667"/>
      <point x="1336.6666666666667" y="86.66666666666667" type="curve" smooth="yes"/>
      <point x="1123.6666666666667" y="87.0"/>
      <point x="950.6666666666666" y="256.6666666666667"/>
      <point x="929.6666666666666" y="484.3333333333333" type="curve"/>
      <point x="1833.6666666666667" y="484.3333333333333" type="line"/>
      <point x="1836.0" y="816.6666666666666"/>
      <point x="1626.6666666666667" y="1050.6666666666667"/>
      <point x="1336.6666666666667" y="1050.6666666666667" type="curve" smooth="yes"/>
      <point x="1141.0" y="1050.6666666666667"/>
      <point x="971.3333333333334" y="929.6666666666666"/>
      <point x="893.6666666666666" y="755.3333333333334" type="curve"/>
      <point x="856.6666666666666" y="923.6666666666666"/>
      <point x="770.0" y="1050.6666666666667"/>
      <point x="532.6666666666666" y="1050.6666666666667" type="curve" smooth="yes"/>
      <point x="392.6666666666667" y="1050.6666666666667"/>
      <point x="231.66666666666666" y="1012.6666666666666"/>
      <point x="154.66666666666666" y="881.6666666666666" type="curve"/>
      <point x="232.66666666666669" y="836.6666666666666" type="line"/>
      <point x="290.6666666666667" y="933.0"/>
      <point x="419.6666666666667" y="964.3333333333334"/>
      <point x="532.6666666666666" y="964.3333333333334" type="curve" smooth="yes"/>
      <point x="805.6666666666666" y="964.3333333333334"/>
      <point x="819.6666666666666" y="785.0"/>
      <point x="835.6666666666666" y="564.3333333333334" type="curve"/>
      <point x="417.6666666666667" y="564.3333333333334" type="line" smooth="yes"/>
      <point x="240.0" y="564.3333333333334"/>
      <point x="80.0" y="514.3333333333334"/>
      <point x="71.33333333333333" y="321.3333333333333" type="curve" smooth="yes"/>
      <point x="74.66666666666667" y="95.33333333333333"/>
      <point x="272.6666666666667" y="-3.333333333333334"/>
    </contour>
    <contour>
      <point x="522.0" y="71.66666666666667" type="curve" smooth="yes"/>
      <point x="327.6666666666667" y="71.66666666666667"/>
      <point x="163.66666666666669" y="124.66666666666667"/>
      <point x="160.0" y="317.0" type="curve" smooth="yes"/>
      <point x="165.33333333333334" y="449.6666666666667"/>
      <point x="274.0" y="484.3333333333333"/>
      <point x="439.0" y="484.3333333333333" type="curve" smooth="yes"/>
      <point x="836.0" y="484.3333333333333" type="line"/>
      <point x="836.0" y="379.0" type="line" smooth="yes"/>
      <point x="836.0" y="319.6666666666667"/>
      <point x="833.6666666666666" y="71.66666666666667"/>
    </contour>
    <contour>
      <point x="928.3333333333334" y="564.3333333333334" type="line"/>
      <point x="945.6666666666666" y="786.6666666666666"/>
      <point x="1117.6666666666667" y="965.6666666666666"/>
      <point x="1336.6666666666667" y="965.6666666666666" type="curve" smooth="yes"/>
      <point x="1554.0" y="965.6666666666666"/>
      <point x="1732.6666666666667" y="779.6666666666666"/>
      <point x="1743.3333333333333" y="564.3333333333334" type="curve"/>
    </contour>
  </outline>
</glyph>
<glyph name="iacute" format="2">
  <advance width="336.6666666666667"/>
  <unicode hex="00ED"/>
  <outline>
    <contour>
      <point x="120.0" y="1000.0" type="line"/>
      <point x="120.0" y="0.0" type="line"/>
      <point x="210.0" y="0.0" type="line"/>
      <point x="210.0" y="1000.0" type="line"/>
    </contour>
    <component base="acutecomb" xOffset="-333.6666666666667"/>
  </outline>
</glyph>
<glyph name="icircumflex" format="2">
  <advance width="315.0"/>
  <unicode hex="00EE"/>
  <outline>
    <contour>
      <point x="111.33333333333333" y="1000.0" type="line"/>
      <point x="111.33333333333333" y="0.0" type="line"/>
      <point x="201.33333333333334" y="0.0" type="line"/>
      <point x="201.33333333333334" y="1000.0" type="line"/>
    </contour>
    <component base="circumflexcomb" xOffset="-380.0"/>
  </outline>
</glyph>
<glyph name="idieresis" format="2">
  <advance width="516.0"/>
  <unicode hex="00EF"/>
  <outline>
    <contour>
      <point x="211.66666666666666" y="1000.0" type="line"/>
      <point x="211.66666666666666" y="0.0" type="line"/>
      <point x="301.6666666666667" y="0.0" type="line"/>
      <point x="301.6666666666667" y="1000.0" type="line"/>
    </contour>
    <component base="dieresiscomb" xOffset="-340.0"/>
  </outline>
</glyph>
<glyph name="eth" format="2">
  <advance width="1124.25"/>
  <unicode hex="00F0"/>
  <outline>
    <contour>
      <point x="429.6666666666667" y="1063.6666666666667" type="line"/>
      <point x="867.3333333333334" y="1493.6666666666667" type="line"/>
      <point x="813.0" y="1548.3333333333333" type="line"/>
      <point x="373.3333333333333" y="1119.6666666666667" type="line"/>
    </contour>
    <component base="partialdiff"/>
  </outline>
</glyph>
<glyph name="divide" format="2">
  <advance width="1160.0"/>
  <unicode hex="00F7"/>
  <outline>
    <contour>
      <point x="80.0" y="555.0" type="line"/>
      <point x="1080.0" y="555.0" type="line"/>
      <point x="1080.0" y="645.0" type="line"/>
      <point x="80.0" y="645.0" type="line"/>
    </contour>
    <contour>
      <point x="580.0" y="1052.3333333333333" type="curve"/>
      <point x="527.6666666666666" y="1052.3333333333333"/>
      <point x="491.3333333333333" y="1007.0"/>
      <point x="491.3333333333333" y="961.6666666666666" type="curve"/>
      <point x="491.3333333333333" y="913.0"/>
      <point x="527.6666666666666" y="873.0"/>
      <point x="580.0" y="873.0" type="curve"/>
      <point x="627.0" y="873.0"/>
      <point x="667.0" y="913.0"/>
      <point x="667.0" y="961.6666666666666" type="curve"/>
      <point x="667.0" y="1007.0"/>
      <point x="627.0" y="1052.3333333333333"/>
    </contour>
    <contour>
      <point x="580.0" y="325.3333333333333" type="curve"/>
      <point x="527.6666666666666" y="325.3333333333333"/>
      <point x="491.3333333333333" y="281.6666666666667"/>
      <point x="491.3333333333333" y="234.66666666666666" type="curve"/>
      <point x="491.3333333333333" y="186.0"/>
      <point x="527.6666666666666" y="147.66666666666666"/>
      <point x="580.0" y="147.66666666666666" type="curve"/>
      <point x="627.0" y="147.66666666666666"/>
      <point x="670.6666666666666" y="186.0"/>
      <point x="670.6666666666666" y="234.66666666666666" type="curve"/>
      <point x="670.6666666666666" y="281.6666666666667"/>
      <point x="627.0" y="325.3333333333333"/>
    </contour>
  </outline>
</glyph>
<glyph name="oslash" format="2">
  <advance width="1120.0"/>
  <unicode hex="00F8"/>
  <outline>
    <contour>
      <point x="291.6666666666667" y="-45.66666666666667" type="line"/>
      <point x="336.3333333333333" y="31.333333333333332" type="line"/>
      <point x="403.6666666666667" y="-4.0"/>
      <point x="479.6666666666667" y="-26.0"/>
      <point x="560.0" y="-26.0" type="curve" smooth="yes"/>
      <point x="836.0" y="-26.0"/>
      <point x="1060.0" y="210.0"/>
      <point x="1060.0" y="500.0" type="curve" smooth="yes"/>
      <point x="1060.0" y="677.6666666666666"/>
      <point x="979.6666666666666" y="832.3333333333334"/>
      <point x="854.6666666666666" y="928.3333333333334" type="curve"/>
      <point x="901.6666666666666" y="1008.3333333333334" type="line"/>
      <point x="830.0" y="1049.6666666666667" type="line"/>
      <point x="783.6666666666666" y="972.6666666666666" type="line"/>
      <point x="718.3333333333334" y="1007.6666666666666"/>
      <point x="641.6666666666666" y="1028.0"/>
      <point x="560.0" y="1028.0" type="curve" smooth="yes"/>
      <point x="284.0" y="1028.0"/>
      <point x="60.0" y="792.0"/>
      <point x="60.0" y="500.0" type="curve" smooth="yes"/>
      <point x="60.0" y="326.3333333333333"/>
      <point x="142.33333333333334" y="171.66666666666666"/>
      <point x="267.3333333333333" y="75.66666666666667" type="curve"/>
      <point x="220.33333333333334" y="-4.333333333333332" type="line"/>
    </contour>
    <contour>
      <point x="312.0" y="154.33333333333334" type="line"/>
      <point x="212.66666666666669" y="231.66666666666669"/>
      <point x="147.0" y="356.6666666666667"/>
      <point x="147.0" y="497.6666666666667" type="curve" smooth="yes"/>
      <point x="147.0" y="819.3333333333334"/>
      <point x="468.3333333333333" y="1040.3333333333333"/>
      <point x="740.6666666666666" y="897.3333333333334" type="curve"/>
    </contour>
    <contour>
      <point x="379.6666666666667" y="106.66666666666667" type="curve"/>
      <point x="809.6666666666666" y="849.6666666666666" type="line"/>
      <point x="909.0" y="770.3333333333334"/>
      <point x="973.0" y="643.6666666666666"/>
      <point x="973.0" y="502.3333333333333" type="curve" smooth="yes"/>
      <point x="973.0" y="187.66666666666669"/>
      <point x="662.6666666666666" y="-40.0"/>
    </contour>
  </outline>
</glyph>
<glyph name="thorn" format="2">
  <advance width="1204.5"/>
  <unicode hex="00FE"/>
  <outline>
    <contour>
      <point x="120.0" y="-500.0" type="line"/>
      <point x="210.0" y="-500.0" type="line"/>
      <point x="210.0" y="214.66666666666666" type="line"/>
      <point x="280.6666666666667" y="69.33333333333333"/>
      <point x="415.3333333333333" y="-28.0"/>
      <point x="598.6666666666666" y="-28.0" type="curve" smooth="yes"/>
      <point x="888.6666666666666" y="-28.0"/>
      <point x="1124.6666666666667" y="208.0"/>
      <point x="1124.6666666666667" y="500.0" type="curve" smooth="yes"/>
      <point x="1124.6666666666667" y="790.0"/>
      <point x="888.6666666666666" y="1026.0"/>
      <point x="598.6666666666666" y="1026.0" type="curve" smooth="yes"/>
      <point x="415.3333333333333" y="1026.0"/>
      <point x="280.6666666666667" y="928.6666666666666"/>
      <point x="210.0" y="783.6666666666666" type="curve"/>
      <point x="210.0" y="1400.0" type="line"/>
      <point x="120.0" y="1400.0" type="line"/>
    </contour>
    <contour>
      <point x="598.0" y="60.66666666666667" type="curve" smooth="yes"/>
      <point x="357.0" y="60.66666666666667"/>
      <point x="216.66666666666669" y="259.6666666666667"/>
      <point x="216.66666666666669" y="500.0" type="curve" smooth="yes"/>
      <point x="216.66666666666669" y="743.6666666666666"/>
      <point x="360.6666666666667" y="937.6666666666666"/>
      <point x="598.0" y="937.6666666666666" type="curve" smooth="yes"/>
      <point x="839.3333333333334" y="937.6666666666666"/>
      <point x="1033.6666666666667" y="740.3333333333334"/>
      <point x="1033.6666666666667" y="500.0" type="curve" smooth="yes"/>
      <point x="1033.6666666666667" y="252.66666666666669"/>
      <point x="832.3333333333334" y="60.66666666666667"/>
    </contour>
  </outline>
</glyph>
<glyph name="OE" format="2">
  <advance width="2192.25"/>
  <unicode hex="0152"/>
  <outline>
    <contour>
      <point x="770.0" y="-26.0" type="curve" smooth="yes"/>
      <point x="1033.3333333333333" y="-26.0"/>
      <point x="1262.0" y="135.66666666666666"/>
      <point x="1370.6666666666667" y="366.66666666666663" type="curve"/>
      <point x="1370.6666666666667" y="0.0" type="line"/>
      <point x="2092.3333333333335" y="0.0" type="line"/>
      <point x="2092.3333333333335" y="90.0" type="line"/>
      <point x="1460.6666666666667" y="90.0" type="line"/>
      <point x="1460.6666666666667" y="655.0" type="line"/>
      <point x="1996.3333333333333" y="655.0" type="line"/>
      <point x="1996.3333333333333" y="745.0" type="line"/>
      <point x="1460.6666666666667" y="745.0" type="line"/>
      <point x="1460.6666666666667" y="1310.0" type="line"/>
      <point x="2092.3333333333335" y="1310.0" type="line"/>
      <point x="2092.3333333333335" y="1400.0" type="line"/>
      <point x="1370.6666666666667" y="1400.0" type="line"/>
      <point x="1370.6666666666667" y="1033.6666666666667" type="line"/>
      <point x="1262.0" y="1264.3333333333333"/>
      <point x="1033.3333333333333" y="1426.0"/>
      <point x="770.0" y="1426.0" type="curve" smooth="yes"/>
      <point x="390.0" y="1426.0"/>
      <point x="80.0" y="1100.0"/>
      <point x="80.0" y="700.0" type="curve" smooth="yes"/>
      <point x="80.0" y="300.0"/>
      <point x="390.0" y="-26.0"/>
    </contour>
    <contour>
      <point x="770.0" y="64.0" type="curve" smooth="yes"/>
      <point x="438.6666666666667" y="64.0"/>
      <point x="170.0" y="350.6666666666667"/>
      <point x="170.0" y="700.0" type="curve" smooth="yes"/>
      <point x="170.0" y="1044.3333333333333"/>
      <point x="435.3333333333333" y="1336.0"/>
      <point x="770.0" y="1336.0" type="curve" smooth="yes"/>
      <point x="1101.3333333333333" y="1336.0"/>
      <point x="1370.0" y="1047.6666666666667"/>
      <point x="1370.0" y="700.0" type="curve" smooth="yes"/>
      <point x="1370.0" y="355.6666666666667"/>
      <point x="1104.6666666666667" y="64.0"/>
    </contour>
  </outline>
</glyph>
<glyph name="oe" format="2">
  <advance width="2028.3333333333333"/>
  <unicode hex="0153"/>
  <outline>
    <contour>
      <point x="560.0" y="-26.0" type="curve" smooth="yes"/>
      <point x="766.0" y="-26.0"/>
      <point x="942.6666666666666" y="107.33333333333333"/>
      <point x="1015.0" y="295.6666666666667" type="curve"/>
      <point x="1087.6666666666667" y="107.33333333333333"/>
      <point x="1264.0" y="-26.0"/>
      <point x="1470.0" y="-26.0" type="curve" smooth="yes"/>
      <point x="1670.0" y="-26.0"/>
      <point x="1842.0" y="98.0"/>
      <point x="1922.0" y="276.0" type="curve"/>
      <point x="1831.3333333333333" y="297.3333333333333" type="line"/>
      <point x="1756.6666666666667" y="151.66666666666669"/>
      <point x="1626.0" y="64.0"/>
      <point x="1470.0" y="64.0" type="curve" smooth="yes"/>
      <point x="1257.0" y="64.33333333333334"/>
      <point x="1084.0" y="233.66666666666666"/>
      <point x="1063.0" y="461.6666666666667" type="curve"/>
      <point x="1967.0" y="461.6666666666667" type="line"/>
      <point x="1969.3333333333333" y="793.6666666666666"/>
      <point x="1760.0" y="1028.0"/>
      <point x="1470.0" y="1028.0" type="curve" smooth="yes"/>
      <point x="1264.0" y="1028.0"/>
      <point x="1087.6666666666667" y="894.6666666666666"/>
      <point x="1015.0" y="704.6666666666666" type="curve"/>
      <point x="942.6666666666666" y="894.6666666666666"/>
      <point x="766.0" y="1028.0"/>
      <point x="560.0" y="1028.0" type="curve" smooth="yes"/>
      <point x="284.0" y="1028.0"/>
      <point x="60.0" y="792.0"/>
      <point x="60.0" y="500.0" type="curve" smooth="yes"/>
      <point x="60.0" y="210.0"/>
      <point x="284.0" y="-26.0"/>
    </contour>
    <contour>
      <point x="560.0" y="64.0" type="curve" smooth="yes"/>
      <point x="336.6666666666667" y="64.0"/>
      <point x="150.0" y="256.6666666666667"/>
      <point x="150.0" y="500.0" type="curve" smooth="yes"/>
      <point x="150.0" y="735.6666666666666"/>
      <point x="327.3333333333333" y="938.0"/>
      <point x="560.0" y="938.0" type="curve" smooth="yes"/>
      <point x="790.6666666666666" y="938.0"/>
      <point x="970.0" y="736.3333333333334"/>
      <point x="970.0" y="500.0" type="curve" smooth="yes"/>
      <point x="970.0" y="266.0"/>
      <point x="791.3333333333334" y="64.0"/>
    </contour>
    <contour>
      <point x="1061.6666666666667" y="541.6666666666666" type="line"/>
      <point x="1079.0" y="764.0"/>
      <point x="1251.0" y="943.0"/>
      <point x="1470.0" y="943.0" type="curve" smooth="yes"/>
      <point x="1687.3333333333333" y="943.0"/>
      <point x="1866.0" y="757.0"/>
      <point x="1876.6666666666667" y="541.6666666666666" type="curve"/>
    </contour>
  </outline>
</glyph>
<glyph name="caron" format="2">
  <advance width="514.5"/>
  <unicode hex="02C7"/>
  <outline>
    <contour>
      <point x="221.66666666666666" y="1166.0" type="line"/>
      <point x="294.6666666666667" y="1166.0" type="line"/>
      <point x="394.6666666666667" y="1400.0" type="line"/>
      <point x="326.6666666666667" y="1400.0" type="line"/>
      <point x="258.3333333333333" y="1235.3333333333333" type="line"/>
      <point x="187.66666666666669" y="1400.0" type="line"/>
      <point x="120.0" y="1400.0" type="line"/>
    </contour>
  </outline>
</glyph>
<glyph name="breve" format="2">
  <advance width="1144.0"/>
  <unicode hex="02D8"/>
  <outline>
    <contour>
      <point x="572.0" y="1128.0" type="curve" smooth="yes"/>
      <point x="749.0" y="1128.0"/>
      <point x="904.0" y="1272.6666666666667"/>
      <point x="904.0" y="1460.0" type="curve"/>
      <point x="829.0" y="1460.0" type="line"/>
      <point x="829.0" y="1318.0"/>
      <point x="712.0" y="1203.0"/>
      <point x="572.0" y="1203.0" type="curve" smooth="yes"/>
      <point x="437.3333333333333" y="1203.0"/>
      <point x="315.0" y="1311.6666666666667"/>
      <point x="315.0" y="1460.0" type="curve"/>
      <point x="240.0" y="1460.0" type="line"/>
      <point x="240.0" y="1278.0"/>
      <point x="390.0" y="1128.0"/>
    </contour>
  </outline>
</glyph>
<glyph name="ogonek" format="2">
  <advance width="1081.0"/>
  <unicode hex="02DB"/>
  <outline>
    <contour>
      <point x="611.3333333333334" y="-363.6666666666667" type="curve" smooth="yes"/>
      <point x="653.0" y="-363.6666666666667" type="line"/>
      <point x="653.0" y="-284.0" type="line"/>
      <point x="610.6666666666666" y="-284.0" type="line" smooth="yes"/>
      <point x="464.3333333333333" y="-284.0"/>
      <point x="341.6666666666667" y="-161.66666666666666"/>
      <point x="341.6666666666667" y="-15.333333333333334" type="curve" smooth="yes"/>
      <point x="341.6666666666667" y="62.0" type="line"/>
      <point x="262.0" y="62.0" type="line"/>
      <point x="262.0" y="-14.666666666666668" type="line" smooth="yes"/>
      <point x="262.0" y="-207.66666666666666"/>
      <point x="418.3333333333333" y="-363.6666666666667"/>
    </contour>
  </outline>
</glyph>
<glyph name="gravecomb" format="2">
  <unicode hex="0300"/>
  <outline>
    <contour>
      <point x="320.0" y="1426.0" type="line"/>
      <point x="452.6666666666667" y="1138.0" type="line"/>
      <point x="490.0" y="1138.0" type="line"/>
      <point x="410.0" y="1426.0" type="line"/>
    </contour>
  </outline>
</glyph>
<glyph name="circumflexcomb" format="2">
  <unicode hex="0302"/>
  <outline>
    <contour>
      <point x="501.6666666666667" y="1400.0" type="line"/>
      <point x="400.0" y="1166.0" type="line"/>
      <point x="467.6666666666667" y="1166.0" type="line"/>
      <point x="538.3333333333334" y="1330.6666666666667" type="line"/>
      <point x="606.6666666666666" y="1166.0" type="line"/>
      <point x="674.6666666666666" y="1166.0" type="line"/>
      <point x="574.6666666666666" y="1400.0" type="line"/>
    </contour>
  </outline>
</glyph>
<glyph name="tildecomb" format="2">
  <unicode hex="0303"/>
  <outline>
    <contour>
      <point x="762.6666666666666" y="1299.0" type="curve" smooth="yes"/>
      <point x="867.6666666666666" y="1299.0"/>
      <point x="939.6666666666666" y="1401.3333333333333"/>
      <point x="907.6666666666666" y="1500.0" type="curve"/>
      <point x="837.0" y="1477.3333333333333" type="line"/>
      <point x="849.3333333333334" y="1444.6666666666667"/>
      <point x="823.6666666666666" y="1374.6666666666667"/>
      <point x="777.0" y="1374.6666666666667" type="curve" smooth="yes"/>
      <point x="698.3333333333334" y="1374.6666666666667"/>
      <point x="552.0" y="1520.0"/>
      <point x="450.6666666666667" y="1520.0" type="curve" smooth="yes"/>
      <point x="346.3333333333333" y="1520.0"/>
      <point x="275.6666666666667" y="1415.6666666666667"/>
      <point x="308.0" y="1321.6666666666667" type="curve"/>
      <point x="379.6666666666667" y="1341.3333333333333" type="line"/>
      <point x="366.0" y="1395.3333333333333"/>
      <point x="400.3333333333333" y="1441.3333333333333"/>
      <point x="443.3333333333333" y="1444.3333333333333" type="curve" smooth="yes"/>
      <point x="525.6666666666666" y="1450.0"/>
      <point x="664.3333333333334" y="1299.0"/>
    </contour>
  </outline>
</glyph>
<glyph name="dotaccentcomb" format="2">
  <unicode hex="0307"/>
  <outline>
    <contour>
      <point x="459.3333333333333" y="1216.6666666666667" type="curve" smooth="yes"/>
      <point x="490.6666666666667" y="1216.6666666666667"/>
      <point x="516.6666666666666" y="1240.6666666666667"/>
      <point x="516.6666666666666" y="1274.0" type="curve" smooth="yes"/>
      <point x="516.6666666666666" y="1307.3333333333333"/>
      <point x="490.6666666666667" y="1331.3333333333333"/>
      <point x="459.3333333333333" y="1331.3333333333333" type="curve" smooth="yes"/>
      <point x="425.6666666666667" y="1331.3333333333333"/>
      <point x="400.0" y="1307.3333333333333"/>
      <point x="400.0" y="1274.0" type="curve" smooth="yes"/>
      <point x="400.0" y="1240.6666666666667"/>
      <point x="425.6666666666667" y="1216.6666666666667"/>
    </contour>
  </outline>
</glyph>
<glyph name="dieresiscomb" format="2">
  <unicode hex="0308"/>
  <outline>
    <contour>
      <point x="461.0" y="1216.6666666666667" type="curve" smooth="yes"/>
      <point x="492.6666666666667" y="1216.6666666666667"/>
      <point x="520.0" y="1240.6666666666667"/>
      <point x="520.0" y="1274.0" type="curve" smooth="yes"/>
      <point x="520.0" y="1305.6666666666667"/>
      <point x="492.6666666666667" y="1333.0"/>
      <point x="461.0" y="1333.0" type="curve" smooth="yes"/>
      <point x="427.6666666666667" y="1333.0"/>
      <point x="400.0" y="1305.6666666666667"/>
      <point x="400.0" y="1274.0" type="curve" smooth="yes"/>
      <point x="400.0" y="1240.6666666666667"/>
      <point x="427.6666666666667" y="1216.6666666666667"/>
    </contour>
    <contour>
      <point x="736.6666666666666" y="1216.6666666666667" type="curve" smooth="yes"/>
      <point x="768.0" y="1216.6666666666667"/>
      <point x="795.6666666666666" y="1240.6666666666667"/>
      <point x="795.6666666666666" y="1274.0" type="curve" smooth="yes"/>
      <point x="795.6666666666666" y="1305.6666666666667"/>
      <point x="768.0" y="1333.0"/>
      <point x="736.6666666666666" y="1333.0" type="curve" smooth="yes"/>
      <point x="703.0" y="1333.0"/>
      <point x="675.6666666666666" y="1305.6666666666667"/>
      <point x="675.6666666666666" y="1274.0" type="curve" smooth="yes"/>
      <point x="675.6666666666666" y="1240.6666666666667"/>
      <point x="703.0" y="1216.6666666666667"/>
    </contour>
  </outline>
</glyph>
<glyph name="ringcomb" format="2">
  <unicode hex="030A"/>
  <outline>
    <contour>
      <point x="545.6666666666666" y="1134.6666666666667" type="curve" smooth="yes"/>
      <point x="626.0" y="1134.6666666666667"/>
      <point x="691.6666666666666" y="1200.0"/>
      <point x="691.6666666666666" y="1282.3333333333333" type="curve" smooth="yes"/>
      <point x="691.6666666666666" y="1360.6666666666667"/>
      <point x="626.0" y="1427.6666666666667"/>
      <point x="545.6666666666666" y="1427.6666666666667" type="curve" smooth="yes"/>
      <point x="465.6666666666667" y="1427.6666666666667"/>
      <point x="400.0" y="1360.6666666666667"/>
      <point x="400.0" y="1282.3333333333333" type="curve" smooth="yes"/>
      <point x="400.0" y="1202.0"/>
      <point x="465.6666666666667" y="1134.6666666666667"/>
    </contour>
    <contour>
      <point x="545.6666666666666" y="1190.3333333333333" type="curve" smooth="yes"/>
      <point x="495.6666666666667" y="1190.3333333333333"/>
      <point x="455.6666666666667" y="1230.3333333333333"/>
      <point x="455.6666666666667" y="1282.3333333333333" type="curve" smooth="yes"/>
      <point x="455.6666666666667" y="1330.3333333333333"/>
      <point x="495.6666666666667" y="1370.3333333333333"/>
      <point x="545.6666666666666" y="1370.3333333333333" type="curve" smooth="yes"/>
      <point x="595.6666666666666" y="1370.3333333333333"/>
      <point x="635.6666666666666" y="1330.3333333333333"/>
      <point x="635.6666666666666" y="1282.3333333333333" type="curve" smooth="yes"/>
      <point x="635.6666666666666" y="1230.3333333333333"/>
      <point x="595.6666666666666" y="1190.3333333333333"/>
    </contour>
  </outline>
</glyph>
<glyph name="cedillacomb" format="2">
  <unicode hex="0327"/>
  <outline>
    <contour>
      <point x="400.0" y="-306.0" type="line"/>
      <point x="441.6666666666667" y="-306.0" type="line" smooth="yes"/>
      <point x="634.6666666666666" y="-306.0"/>
      <point x="791.0" y="-149.66666666666666"/>
      <point x="791.0" y="43.0" type="curve" smooth="yes"/>
      <point x="791.0" y="84.66666666666667" type="line"/>
      <point x="711.3333333333334" y="84.66666666666667" type="line"/>
      <point x="711.3333333333334" y="42.66666666666667" type="line" smooth="yes"/>
      <point x="711.3333333333334" y="-103.66666666666666"/>
      <point x="588.6666666666666" y="-226.33333333333331"/>
      <point x="442.3333333333333" y="-226.33333333333331" type="curve" smooth="yes"/>
      <point x="400.0" y="-226.33333333333331" type="line"/>
    </contour>
  </outline>
</glyph>
<glyph name="mu" format="2">
  <advance width="1020.25"/>
  <unicode hex="03BC"/>
  <outline>
    <contour>
      <point x="80.0" y="-432.0" type="line"/>
      <point x="170.0" y="-432.0" type="line"/>
      <point x="170.0" y="182.0" type="line"/>
      <point x="239.33333333333334" y="59.0"/>
      <point x="359.6666666666667" y="-26.333333333333332"/>
      <point x="505.6666666666667" y="-26.333333333333332" type="curve" smooth="yes"/>
      <point x="648.6666666666666" y="-26.333333333333332"/>
      <point x="770.6666666666666" y="55.33333333333333"/>
      <point x="850.3333333333334" y="191.66666666666666" type="curve"/>
      <point x="850.3333333333334" y="0.0" type="line"/>
      <point x="940.3333333333334" y="0.0" type="line"/>
      <point x="940.3333333333334" y="1000.0" type="line"/>
      <point x="850.3333333333334" y="1000.0" type="line"/>
      <point x="850.3333333333334" y="458.0" type="line" smooth="yes"/>
      <point x="850.3333333333334" y="240.33333333333334"/>
      <point x="700.0" y="62.66666666666667"/>
      <point x="512.3333333333334" y="62.66666666666667" type="curve" smooth="yes"/>
      <point x="322.6666666666667" y="62.66666666666667"/>
      <point x="170.0" y="240.33333333333334"/>
      <point x="170.0" y="458.0" type="curve" smooth="yes"/>
      <point x="170.0" y="1000.0" type="line"/>
      <point x="80.0" y="1000.0" type="line"/>
    </contour>
  </outline>
</glyph>
<glyph name="Germandbls" format="2">
  <advance width="1092.0"/>
  <unicode hex="1E9E"/>
  <outline>
    <contour>
      <point x="120.0" y="0.0" type="line"/>
      <point x="210.0" y="0.0" type="line"/>
      <point x="210.0" y="988.6666666666666" type="line" smooth="yes"/>
      <point x="210.0" y="1168.3333333333333"/>
      <point x="354.0" y="1313.6666666666667"/>
      <point x="531.0" y="1313.6666666666667" type="curve" smooth="yes"/>
      <point x="673.0" y="1313.6666666666667"/>
      <point x="798.3333333333334" y="1265.3333333333333"/>
      <point x="800.0" y="1142.3333333333333" type="curve" smooth="yes"/>
      <point x="801.6666666666666" y="1033.0"/>
      <point x="520.0" y="767.0"/>
      <point x="527.0" y="695.3333333333334" type="curve" smooth="yes"/>
      <point x="530.6666666666666" y="653.6666666666666" type="line"/>
      <point x="598.6666666666666" y="653.6666666666666" type="line" smooth="yes"/>
      <point x="756.6666666666666" y="653.6666666666666"/>
      <point x="946.3333333333334" y="566.6666666666666"/>
      <point x="946.3333333333334" y="371.6666666666667" type="curve" smooth="yes"/>
      <point x="946.3333333333334" y="173.0"/>
      <point x="758.6666666666666" y="84.33333333333334"/>
      <point x="600.3333333333334" y="84.33333333333334" type="curve" smooth="yes"/>
      <point x="507.6666666666667" y="84.33333333333334" type="line"/>
      <point x="532.6666666666666" y="0.0" type="line"/>
      <point x="604.3333333333334" y="0.0" type="line" smooth="yes"/>
      <point x="806.6666666666666" y="0.0"/>
      <point x="1032.0" y="125.66666666666667"/>
      <point x="1032.0" y="369.6666666666667" type="curve" smooth="yes"/>
      <point x="1032.0" y="587.6666666666666"/>
      <point x="828.0" y="743.6666666666666"/>
      <point x="630.6666666666666" y="721.6666666666666" type="curve"/>
      <point x="821.6666666666666" y="981.3333333333334"/>
      <point x="898.6666666666666" y="1057.6666666666667"/>
      <point x="898.6666666666666" y="1141.6666666666667" type="curve" smooth="yes"/>
      <point x="898.6666666666666" y="1311.0"/>
      <point x="733.6666666666666" y="1398.3333333333333"/>
      <point x="541.6666666666666" y="1398.3333333333333" type="curve" smooth="yes"/>
      <point x="309.0" y="1398.3333333333333"/>
      <point x="120.0" y="1209.3333333333333"/>
      <point x="120.0" y="976.6666666666666" type="curve" smooth="yes"/>
    </contour>
  </outline>
</glyph>
<glyph name="emdash" format="2">
  <advance width="2040.0"/>
  <unicode hex="2014"/>
  <outline>
    <contour>
      <point x="120.0" y="645.0" type="line"/>
      <point x="120.0" y="555.0" type="line"/>
      <point x="1920.0" y="555.0" type="line"/>
      <point x="1920.0" y="645.0" type="line"/>
    </contour>
  </outline>
</glyph>
<glyph name="dagger" format="2">
  <advance width="756.0"/>
  <unicode hex="2020"/>
  <outline>
    <contour>
      <point x="80.0" y="1122.6666666666667" type="line"/>
      <point x="333.0" y="1122.6666666666667" type="line"/>
      <point x="333.0" y="595.0" type="line"/>
      <point x="423.0" y="595.0" type="line"/>
      <point x="423.0" y="1122.6666666666667" type="line"/>
      <point x="676.0" y="1122.6666666666667" type="line"/>
      <point x="676.0" y="1212.6666666666667" type="line"/>
      <point x="423.0" y="1212.6666666666667" type="line"/>
      <point x="423.0" y="1500.0" type="line"/>
      <point x="333.0" y="1500.0" type="line"/>
      <point x="333.0" y="1212.6666666666667" type="line"/>
      <point x="80.0" y="1212.6666666666667" type="line"/>
    </contour>
  </outline>
</glyph>
<glyph name="daggerdbl" format="2">
  <advance width="756.0"/>
  <unicode hex="2021"/>
  <outline>
    <contour>
      <point x="80.0" y="807.0" type="line"/>
      <point x="333.0" y="807.0" type="line"/>
      <point x="333.0" y="560.0" type="line"/>
      <point x="423.0" y="560.0" type="line"/>
      <point x="423.0" y="807.0" type="line"/>
      <point x="676.0" y="807.0" type="line"/>
      <point x="676.0" y="895.0" type="line"/>
      <point x="423.0" y="895.0" type="line"/>
      <point x="423.0" y="1135.0" type="line"/>
      <point x="676.0" y="1135.0" type="line"/>
      <point x="676.0" y="1225.0" type="line"/>
      <point x="423.0" y="1225.0" type="line"/>
      <point x="423.0" y="1500.0" type="line"/>
      <point x="333.0" y="1500.0" type="line"/>
      <point x="333.0" y="1225.0" type="line"/>
      <point x="80.0" y="1225.0" type="line"/>
      <point x="80.0" y="1135.0" type="line"/>
      <point x="333.0" y="1135.0" type="line"/>
      <point x="333.0" y="895.0" type="line"/>
      <point x="80.0" y="895.0" type="line"/>
    </contour>
  </outline>
</glyph>
<glyph name="bullet" format="2">
  <advance width="315.0"/>
  <unicode hex="2022"/>
  <outline>
    <contour>
      <point x="155.66666666666669" y="522.6666666666666" type="curve" smooth="yes"/>
      <point x="201.0" y="522.6666666666666"/>
      <point x="235.0" y="556.3333333333334"/>
      <point x="235.0" y="601.6666666666666" type="curve" smooth="yes"/>
      <point x="235.0" y="643.6666666666666"/>
      <point x="201.0" y="677.6666666666666"/>
      <point x="155.66666666666669" y="677.6666666666666" type="curve" smooth="yes"/>
      <point x="113.66666666666667" y="677.6666666666666"/>
      <point x="80.0" y="643.6666666666666"/>
      <point x="80.0" y="601.6666666666666" type="curve" smooth="yes"/>
      <point x="80.0" y="556.3333333333334"/>
      <point x="113.66666666666667" y="522.6666666666666"/>
    </contour>
  </outline>
</glyph>
<glyph name="perthousand" format="2">
  <advance width="1622.0"/>
  <unicode hex="2030"/>
  <outline>
    <contour>
      <point x="129.66666666666666" y="0.0" type="line"/>
      <point x="234.0" y="0.0" type="line"/>
      <point x="1042.0" y="1400.0" type="line"/>
      <point x="937.6666666666666" y="1400.0" type="line"/>
    </contour>
    <contour>
      <point x="289.6666666666667" y="882.6666666666666" type="curve"/>
      <point x="404.6666666666667" y="882.6666666666666"/>
      <point x="499.33333333333337" y="975.6666666666666"/>
      <point x="499.33333333333337" y="1092.0" type="curve"/>
      <point x="499.33333333333337" y="1207.6666666666667"/>
      <point x="405.3333333333333" y="1303.3333333333333"/>
      <point x="289.6666666666667" y="1303.3333333333333" type="curve"/>
      <point x="174.66666666666666" y="1303.3333333333333"/>
      <point x="80.0" y="1208.6666666666667"/>
      <point x="80.0" y="1092.0" type="curve"/>
      <point x="80.0" y="976.0"/>
      <point x="174.33333333333334" y="882.6666666666666"/>
    </contour>
    <contour>
      <point x="289.6666666666667" y="960.0" type="curve"/>
      <point x="215.66666666666669" y="960.0"/>
      <point x="157.66666666666669" y="1019.6666666666666"/>
      <point x="157.66666666666669" y="1092.0" type="curve"/>
      <point x="157.66666666666669" y="1166.0"/>
      <point x="215.66666666666669" y="1225.6666666666667"/>
      <point x="289.6666666666667" y="1225.6666666666667" type="curve"/>
      <point x="363.6666666666667" y="1225.6666666666667"/>
      <point x="421.6666666666667" y="1166.0"/>
      <point x="421.6666666666667" y="1092.0" type="curve"/>
      <point x="421.6666666666667" y="1019.6666666666666"/>
      <point x="363.6666666666667" y="960.0"/>
    </contour>
    <contour>
      <point x="831.0" y="96.66666666666666" type="curve"/>
      <point x="946.6666666666667" y="96.66666666666666"/>
      <point x="1040.6666666666667" y="192.33333333333334"/>
      <point x="1040.6666666666667" y="307.6666666666667" type="curve"/>
      <point x="1040.6666666666667" y="422.6666666666667"/>
      <point x="947.6666666666667" y="517.6666666666666"/>
      <point x="831.0" y="517.6666666666666" type="curve"/>
      <point x="716.3333333333334" y="517.6666666666666"/>
      <point x="619.6666666666666" y="424.3333333333333"/>
      <point x="619.6666666666666" y="307.6666666666667" type="curve"/>
      <point x="619.6666666666666" y="193.33333333333334"/>
      <point x="715.0" y="96.66666666666666"/>
    </contour>
    <contour>
      <point x="831.0" y="174.0" type="curve"/>
      <point x="757.3333333333334" y="174.0"/>
      <point x="697.3333333333334" y="234.0"/>
      <point x="697.3333333333334" y="307.6666666666667" type="curve"/>
      <point x="697.3333333333334" y="380.0"/>
      <point x="757.3333333333334" y="440.0"/>
      <point x="831.0" y="440.0" type="curve"/>
      <point x="903.3333333333334" y="440.0"/>
      <point x="963.3333333333334" y="380.0"/>
      <point x="963.3333333333334" y="307.6666666666667" type="curve"/>
      <point x="963.3333333333334" y="234.0"/>
      <point x="903.3333333333334" y="174.0"/>
    </contour>
    <contour>
      <point x="1332.3333333333333" y="96.66666666666666" type="curve"/>
      <point x="1448.0" y="96.66666666666666"/>
      <point x="1542.0" y="192.33333333333334"/>
      <point x="1542.0" y="307.6666666666667" type="curve"/>
      <point x="1542.0" y="422.6666666666667"/>
      <point x="1449.0" y="517.6666666666666"/>
      <point x="1332.3333333333333" y="517.6666666666666" type="curve"/>
      <point x="1217.6666666666667" y="517.6666666666666"/>
      <point x="1121.0" y="424.3333333333333"/>
      <point x="1121.0" y="307.6666666666667" type="curve"/>
      <point x="1121.0" y="193.33333333333334"/>
      <point x="1216.3333333333333" y="96.66666666666666"/>
    </contour>
    <contour>
      <point x="1332.3333333333333" y="174.0" type="curve"/>
      <point x="1258.6666666666667" y="174.0"/>
      <point x="1198.6666666666667" y="234.0"/>
      <point x="1198.6666666666667" y="307.6666666666667" type="curve"/>
      <point x="1198.6666666666667" y="380.0"/>
      <point x="1258.6666666666667" y="440.0"/>
      <point x="1332.3333333333333" y="440.0" type="curve"/>
      <point x="1404.6666666666667" y="440.0"/>
      <point x="1464.6666666666667" y="380.0"/>
      <point x="1464.6666666666667" y="307.6666666666667" type="curve"/>
      <point x="1464.6666666666667" y="234.0"/>
      <point x="1404.6666666666667" y="174.0"/>
    </contour>
  </outline>
</glyph>
<glyph name="primeReversed" format="2">
  <advance width="392.0"/>
  <unicode hex="2035"/>
  <outline>
    <contour>
      <point x="212.0" y="878.0" type="line"/>
      <point x="272.0" y="878.0" type="line"/>
      <point x="210.0" y="1400.0" type="line"/>
      <point x="120.0" y="1400.0" type="line"/>
    </contour>
  </outline>
</glyph>
<glyph name="guilsinglleft" format="2">
  <advance width="627.5"/>
  <unicode hex="2039"/>
  <outline>
    <contour>
      <point x="420.0" y="261.0" type="line"/>
      <point x="527.6666666666666" y="261.0" type="line"/>
      <point x="227.66666666666669" y="601.0" type="line"/>
      <point x="527.6666666666666" y="939.0" type="line"/>
      <point x="420.0" y="939.0" type="line"/>
      <point x="120.0" y="601.0" type="line"/>
    </contour>
  </outline>
</glyph>
<glyph name="guilsinglright" format="2">
  <advance width="627.5"/>
  <unicode hex="203A"/>
  <outline>
    <contour>
      <point x="100.0" y="261.0" type="line"/>
      <point x="207.66666666666669" y="261.0" type="line"/>
      <point x="507.6666666666667" y="601.0" type="line"/>
      <point x="207.66666666666669" y="939.0" type="line"/>
      <point x="100.0" y="939.0" type="line"/>
      <point x="399.6666666666667" y="601.0" type="line"/>
    </contour>
  </outline>
</glyph>
<glyph name="fraction" format="2">
  <advance width="899.5"/>
  <unicode hex="2044"/>
  <unicode hex="2215"/>
  <outline>
    <contour>
      <point x="0.0" y="0.0" type="line"/>
      <point x="91.66666666666667" y="0.0" type="line"/>
      <point x="899.6666666666666" y="1400.0" type="line"/>
      <point x="808.0" y="1400.0" type="line"/>
    </contour>
  </outline>
</glyph>
<glyph name="zerosuperior" format="2">
  <advance width="648.0"/>
  <unicode hex="2070"/>
  <outline>
    <contour>
      <point x="324.0" y="798.0" type="curve"/>
      <point x="463.0" y="798.0"/>
      <point x="576.0" y="940.3333333333334"/>
      <point x="576.0" y="1132.3333333333333" type="curve"/>
      <point x="576.0" y="1324.0"/>
      <point x="463.0" y="1468.0"/>
      <point x="324.0" y="1468.0" type="curve"/>
      <point x="185.0" y="1468.0"/>
      <point x="72.0" y="1324.0"/>
      <point x="72.0" y="1132.3333333333333" type="curve"/>
      <point x="72.0" y="940.3333333333334"/>
      <point x="185.0" y="798.0"/>
    </contour>
    <contour>
      <point x="324.0" y="880.6666666666666" type="curve"/>
      <point x="224.33333333333334" y="880.6666666666666"/>
      <point x="156.0" y="1005.0"/>
      <point x="156.0" y="1132.3333333333333" type="curve"/>
      <point x="156.0" y="1254.6666666666667"/>
      <point x="220.33333333333334" y="1385.6666666666667"/>
      <point x="324.0" y="1385.6666666666667" type="curve"/>
      <point x="423.3333333333333" y="1385.6666666666667"/>
      <point x="492.0" y="1261.6666666666667"/>
      <point x="492.0" y="1132.3333333333333" type="curve"/>
      <point x="492.0" y="1013.0"/>
      <point x="427.0" y="880.6666666666666"/>
    </contour>
  </outline>
</glyph>
<glyph name="foursuperior" format="2">
  <advance width="676.75"/>
  <unicode hex="2074"/>
  <outline>
    <contour>
      <point x="373.0" y="818.0" type="line"/>
      <point x="457.0" y="818.0" type="line"/>
      <point x="457.0" y="950.3333333333334" type="line"/>
      <point x="532.6666666666666" y="950.3333333333334" type="line"/>
      <point x="532.6666666666666" y="1034.3333333333333" type="line"/>
      <point x="457.0" y="1034.3333333333333" type="line"/>
      <point x="457.0" y="1449.0" type="line"/>
      <point x="348.0" y="1449.0" type="line"/>
      <point x="96.0" y="1051.0" type="line"/>
      <point x="96.0" y="950.3333333333334" type="line"/>
      <point x="373.0" y="950.3333333333334" type="line"/>
    </contour>
    <contour>
      <point x="183.66666666666666" y="1034.3333333333333" type="line"/>
      <point x="375.0" y="1335.6666666666667" type="line"/>
      <point x="375.0" y="1034.3333333333333" type="line"/>
    </contour>
  </outline>
</glyph>
<glyph name="fivesuperior" format="2">
  <advance width="674.5"/>
  <unicode hex="2075"/>
  <outline>
    <contour>
      <point x="307.0" y="798.0" type="curve" smooth="yes"/>
      <point x="430.3333333333333" y="798.0"/>
      <point x="530.6666666666666" y="886.0"/>
      <point x="530.6666666666666" y="1009.0" type="curve" smooth="yes"/>
      <point x="530.6666666666666" y="1168.0"/>
      <point x="397.3333333333333" y="1248.0"/>
      <point x="220.66666666666666" y="1223.6666666666667" type="curve"/>
      <point x="231.0" y="1368.0" type="line"/>
      <point x="502.3333333333333" y="1368.0" type="line"/>
      <point x="502.3333333333333" y="1449.0" type="line"/>
      <point x="155.0" y="1449.0" type="line"/>
      <point x="125.66666666666667" y="1115.6666666666667" type="line"/>
      <point x="205.33333333333334" y="1139.6666666666667"/>
      <point x="240.0" y="1147.0"/>
      <point x="307.0" y="1146.6666666666667" type="curve" smooth="yes"/>
      <point x="383.0" y="1146.0"/>
      <point x="446.6666666666667" y="1085.6666666666667"/>
      <point x="446.6666666666667" y="1009.0" type="curve" smooth="yes"/>
      <point x="446.6666666666667" y="933.6666666666666"/>
      <point x="383.0" y="880.6666666666666"/>
      <point x="307.0" y="880.6666666666666" type="curve" smooth="yes"/>
      <point x="230.66666666666666" y="880.6666666666666"/>
      <point x="168.0" y="933.6666666666666"/>
      <point x="168.0" y="1009.0" type="curve"/>
      <point x="84.0" y="1009.0" type="line"/>
      <point x="84.0" y="886.0"/>
      <point x="183.33333333333334" y="798.0"/>
    </contour>
  </outline>
</glyph>
